<svg xmlns="http://www.w3.org/2000/svg" width="1200" height="624" viewBox="0 0 1200 624" version="1.1"><path d="M 507.117 87.250 C 506.659 88.487, 497.792 115.019, 487.412 146.208 L 468.541 202.916 462.580 203.208 C 456.691 203.497, 456.609 203.542, 455.705 207 C 454.724 210.753, 455.209 223.910, 456.398 225.835 C 457.422 227.491, 510.578 227.491, 511.602 225.835 C 512.856 223.806, 513.233 210.614, 512.119 207.750 C 511.132 205.211, 510.626 205, 505.525 205 C 502.486 205, 500 204.637, 500 204.194 C 500 203.751, 501.063 199.813, 502.362 195.444 L 504.723 187.500 525.626 187.231 L 546.528 186.962 548.786 195.231 C 550.028 199.779, 551.034 203.838, 551.022 204.250 C 551.010 204.662, 548.552 205, 545.559 205 C 542.566 205, 539.864 205.412, 539.553 205.915 C 538.251 208.021, 537.852 218.774, 538.927 222.750 L 540.077 227 567.980 227 C 585.473 227, 596.112 226.628, 596.499 226.002 C 597.803 223.891, 598.190 211.349, 597.077 207.250 L 595.923 203 590.559 203 L 585.195 203 583.124 196.250 C 581.985 192.537, 576.782 176.225, 571.561 160 C 566.340 143.775, 558.791 120.269, 554.784 107.765 L 547.500 85.031 527.725 85.015 C 508.125 85, 507.943 85.020, 507.117 87.250 M 744 85.706 C 741.668 86.559, 737.954 90.223, 736.405 93.200 C 733.495 98.793, 735.737 106.650, 741.190 109.974 C 745.193 112.415, 751.902 112.619, 756.137 110.429 C 760.080 108.390, 763.433 101.124, 762.566 96.499 C 761.033 88.330, 751.687 82.896, 744 85.706 M 613.002 88.494 C 611.883 91.438, 611.665 102.074, 612.625 106.875 C 613.240 109.949, 613.345 110, 619.125 110 L 625 110 625 156.500 L 625 203 619.475 203 C 614.465 203, 613.860 203.239, 612.975 205.565 C 611.879 208.449, 611.674 219.122, 612.625 223.875 L 613.250 227 643.046 227 L 672.841 227 673.532 223.854 C 674.550 219.220, 674.303 208.909, 673.098 205.750 C 672.092 203.111, 671.767 203, 665.025 203 L 658 203 658 187.654 L 658 172.308 676.250 171.705 C 688.358 171.305, 696.241 170.574, 699.673 169.535 C 711.018 166.099, 721.815 155.809, 725.666 144.762 C 727.034 140.838, 727.500 136.576, 727.499 128 C 727.498 117.621, 727.237 115.943, 724.822 110.787 C 721.172 102.999, 717.488 98.572, 711.104 94.306 C 699.973 86.866, 698.320 86.633, 653.752 86.223 L 614.005 85.858 613.002 88.494 M 743.775 89.559 C 740.231 91.482, 739 93.919, 739 99.011 C 739 104.699, 743.178 109.007, 748.673 108.985 C 750.778 108.976, 753.175 108.533, 754 108 C 755.318 107.148, 755.311 107.029, 753.935 107.015 C 753.075 107.007, 751.619 105.425, 750.701 103.500 C 749.783 101.575, 748.525 100, 747.905 100 C 747.158 100, 746.999 101.181, 747.434 103.500 C 748.029 106.674, 747.877 107, 745.795 107 C 743.593 107, 743.500 106.677, 743.500 99.002 L 743.500 91.003 748.050 91.001 C 754.515 90.999, 756.804 94.138, 753.821 98.915 C 752.870 100.438, 752.993 101.341, 754.457 103.575 C 756.188 106.217, 756.337 106.259, 757.637 104.482 C 758.386 103.457, 759 101.150, 759 99.356 C 759 90.425, 751.305 85.473, 743.775 89.559 M 747 94.941 C 747 97.500, 748.723 98.475, 750.556 96.953 C 751.671 96.028, 751.752 95.406, 750.890 94.367 C 749.231 92.369, 747 92.698, 747 94.941 M 658.227 129.250 L 658.500 147.500 670.261 147.327 C 679.365 147.194, 682.863 146.742, 685.747 145.327 C 697.625 139.503, 697.774 118.677, 685.980 112.752 C 683.233 111.371, 679.916 111.003, 670.227 111.002 L 657.955 111 658.227 129.250 M 525.745 115.710 C 525.466 116.695, 522.258 127.680, 518.618 140.122 C 514.978 152.565, 512 163.252, 512 163.872 C 512 164.657, 516.387 165, 526.430 165 L 540.860 165 539.903 161.750 C 539.377 159.963, 536.234 148.613, 532.918 136.528 C 529.602 124.444, 526.747 114.413, 526.572 114.238 C 526.397 114.064, 526.025 114.726, 525.745 115.710 M 192.405 390.830 C 182.405 397.317, 178.442 402.826, 176.815 412.500 C 176.528 414.210, 175.176 414.684, 167.490 415.768 C 157.262 417.210, 145.311 420.279, 140.657 422.660 C 130.375 427.918, 125.369 436.100, 126.280 446.155 C 126.867 452.623, 130.502 461.321, 134.984 466.980 C 136.715 469.166, 138.010 472.004, 138.024 473.644 C 138.094 481.758, 144.137 497.873, 151.173 508.709 C 156.662 517.162, 168.834 529.701, 178.878 537.250 C 186.535 543.004, 189.671 543.315, 196.230 538.971 C 202.533 534.796, 218.193 519.897, 223.414 513.109 C 231.317 502.831, 236.988 489.588, 238.991 476.729 C 239.794 471.568, 240.852 468.902, 243.438 465.514 C 253.322 452.564, 253.426 435.614, 243.672 427.364 C 236.573 421.358, 221.422 416.869, 203.291 415.398 C 198.731 415.028, 195 414.307, 195 413.796 C 195 413.285, 196.063 411.434, 197.362 409.683 C 201.494 404.114, 203.125 395.799, 201.370 389.250 C 200.543 386.166, 199.241 386.396, 192.405 390.830 M 192.536 397.737 C 187.799 402.473, 184.042 412, 186.911 412 C 188.283 412, 192.893 406.191, 194.418 402.542 C 197.849 394.331, 197.312 392.961, 192.536 397.737 M 180.297 422.135 C 164.733 423.512, 153.349 427.766, 149.498 433.643 C 147.200 437.150, 146.555 443.816, 148.211 446.945 C 148.922 448.290, 151.078 450.315, 153.002 451.445 C 156.145 453.291, 157.667 453.449, 168 453 C 191.147 451.994, 206.081 452.557, 211.500 454.640 C 214.358 455.739, 216.500 457.192, 216.500 458.031 C 216.500 458.856, 215.842 459.317, 215 459.083 C 214.175 458.853, 207.106 458.466, 199.292 458.223 C 181.346 457.663, 173.540 459.588, 166.586 466.284 C 161.388 471.290, 160.013 475.451, 160.006 486.198 C 159.995 500.913, 168.513 519.574, 180.349 530.769 C 187.026 537.084, 189.175 537.319, 196.401 532.522 C 207.836 524.932, 220.569 508.651, 227.084 493.290 C 230.153 486.054, 230.393 484.682, 230.468 474 C 230.547 462.697, 230.613 462.378, 234.322 455.343 C 239.085 446.308, 239.764 442.413, 237.432 437.497 C 232.383 426.857, 206.270 419.836, 180.297 422.135 M 1038 441.970 L 1038 448 1042 448 L 1046 448 1046 459.500 L 1046 471 1042.065 467.065 C 1034.089 459.089, 1019.591 458.871, 1009.491 466.575 C 997.769 475.516, 995.509 502.224, 1005.319 515.881 C 1014.234 528.293, 1034.013 529.722, 1043.728 518.657 C 1045.494 516.646, 1047.178 515, 1047.469 515 C 1047.761 515, 1048 517.025, 1048 519.500 L 1048 524 1060 524 L 1072 524 1072 518.557 L 1072 513.115 1067.959 512.807 L 1063.919 512.500 1063.709 474.500 L 1063.500 436.500 1050.750 436.220 L 1038 435.940 1038 441.970 M 304.500 438.409 C 296.872 440.299, 291.796 443.349, 286.339 449.320 C 275.200 461.507, 272.111 483.857, 279.014 502.308 C 285.371 519.298, 305.463 529.128, 327.552 526.056 C 345.064 523.620, 355.622 514.335, 357.643 499.591 L 358.272 495 349.655 495 C 341.067 495, 341.036 495.009, 340.438 497.750 C 338.821 505.154, 334.432 510.766, 328.500 513.014 C 319.526 516.414, 305.730 512.559, 300.675 505.239 C 295.637 497.945, 294.577 494.170, 294.568 483.500 C 294.557 471.635, 296.536 464.065, 301.259 457.905 C 308.578 448.357, 322.638 446.304, 333.099 453.256 C 336.923 455.798, 341 462.998, 341 467.212 L 341 470 349.500 470 L 358 470 358 454.500 L 358 439 350 439 L 342 439 342 442.833 C 342 444.942, 341.772 446.894, 341.494 447.173 C 341.216 447.451, 339.190 445.968, 336.992 443.878 C 330.273 437.486, 317.144 435.276, 304.500 438.409 M 430 442.443 L 430 447.885 434.250 448.193 L 438.500 448.500 438.500 480.500 L 438.500 512.500 434.500 513 L 430.500 513.500 430.200 519.250 L 429.900 525 446.950 525 L 464 525 464 519 L 464 513 460 513 L 456 513 456 475 L 456 437 443 437 L 430 437 430 442.443 M 471 442.443 L 471 447.885 475.250 448.193 L 479.500 448.500 479.764 480.692 L 480.028 512.884 475.764 513.192 L 471.500 513.500 471.199 519.274 L 470.899 525.048 488.199 524.774 L 505.500 524.500 505.500 519 L 505.500 513.500 501.250 513.193 L 497 512.885 497 474.943 L 497 437 484 437 L 471 437 471 442.443 M 721 444.923 L 721 451 726.514 451 L 732.029 451 731.764 481.750 L 731.500 512.500 726.250 512.802 L 721 513.105 721 519.131 L 721 525.158 750.250 524.773 C 781.376 524.364, 784.048 523.982, 790.828 518.969 C 800.131 512.091, 801.678 493.683, 793.592 486.087 C 792.296 484.869, 788.595 482.787, 785.368 481.460 C 782.140 480.133, 780.145 479.037, 780.934 479.024 C 781.723 479.011, 784.317 478.057, 786.698 476.904 C 793.016 473.846, 796 468.293, 796 459.596 C 796 452.343, 795.201 450.057, 791.128 445.668 C 785.744 439.866, 784.254 439.625, 751.250 439.218 L 721 438.846 721 444.923 M 750 463 L 750 475 757.057 475 C 771.833 475, 778 471.190, 778 462.060 C 778 458.280, 777.471 456.744, 775.486 454.759 C 772.426 451.698, 769.246 451, 758.375 451 L 750 451 750 463 M 389.687 462.119 C 378.343 463.729, 368.795 471.275, 365.304 481.391 C 362.974 488.141, 362.984 499.885, 365.324 506.671 C 370.239 520.918, 385.774 528.986, 402.636 526.050 C 410.769 524.633, 415.351 522.360, 420.201 517.335 C 426.366 510.945, 428.451 505.049, 428.451 494 C 428.451 486.246, 428.033 483.581, 426.174 479.500 C 422.038 470.416, 413.291 463.746, 403.833 462.462 C 401.450 462.139, 398.600 461.744, 397.500 461.584 C 396.400 461.425, 392.884 461.665, 389.687 462.119 M 534.800 462.133 C 523.838 463.638, 515.176 470.022, 510.625 479.949 C 507.420 486.939, 507.670 501.532, 511.123 509.006 C 514.354 516.002, 519.018 520.660, 525.994 523.859 C 530.671 526.004, 532.930 526.381, 541 526.360 C 552.247 526.332, 559.119 523.906, 564.132 518.196 C 567.086 514.833, 570 509.288, 570 507.032 C 570 506.409, 566.854 506, 562.067 506 C 555.072 506, 554.061 506.231, 553.514 507.956 C 553.172 509.032, 551.476 511.104, 549.744 512.562 C 546.951 514.912, 545.940 515.164, 540.784 514.791 C 532.274 514.175, 528.040 510.449, 526.371 502.106 L 525.750 499 548.503 499 L 571.257 499 570.788 491.250 C 569.544 470.693, 555.457 459.296, 534.800 462.133 M 680.445 462.068 C 668.890 463.590, 659.854 470.459, 656.020 480.635 C 654.173 485.538, 653.879 487.976, 654.227 495.500 C 655.173 515.948, 666.105 526.420, 686.500 526.416 C 701.494 526.413, 710.862 520.728, 714.785 509.250 L 715.896 506 707.556 506 C 699.468 506, 699.198 506.076, 698.582 508.531 C 697.129 514.320, 686.094 516.944, 679.062 513.173 C 675.230 511.118, 672 505.909, 672 501.785 L 672 499.038 694.250 498.769 L 716.500 498.500 716.186 492 C 715.509 477.962, 711.151 470.309, 701 465.325 C 694.011 461.893, 688.454 461.013, 680.445 462.068 M 829.500 462.023 C 819.008 463.529, 811.145 468.698, 806.449 477.176 C 803.663 482.205, 803.500 483.137, 803.500 494 C 803.500 506.563, 804.623 510.084, 810.913 517.249 C 819.614 527.158, 838.779 529.648, 852.336 522.629 C 862.789 517.218, 868.006 507.702, 867.994 494.068 C 867.987 485.664, 866.620 480.644, 862.775 474.902 C 856.132 464.981, 843.351 460.034, 829.500 462.023 M 897.444 462.066 C 884.448 463.347, 876 470.241, 876 479.565 C 876 481.928, 876.221 482, 883.487 482 L 890.973 482 892.381 478.631 C 893.155 476.778, 894.836 474.528, 896.117 473.631 C 898.736 471.796, 906.436 471.455, 910.483 472.994 C 913.290 474.061, 916 479.206, 916 483.468 C 916 485.924, 915.798 486.001, 909.250 486.031 C 884.651 486.143, 874 492.304, 874 506.418 C 874 513.504, 875.715 517.664, 880.291 521.682 C 886.434 527.076, 898.347 528.268, 906.500 524.305 C 908.150 523.503, 910.956 521.194, 912.735 519.173 L 915.970 515.500 915.985 520.282 L 916 525.063 927.750 524.782 L 939.500 524.500 939.500 519 L 939.500 513.500 935.860 513.196 L 932.221 512.892 931.852 495.154 C 931.508 478.594, 931.318 477.086, 928.977 472.458 C 924.620 463.842, 914.215 460.413, 897.444 462.066 M 986.225 462.173 C 981.955 463.127, 976.296 467.678, 972.764 473 C 971.127 475.466, 971.104 475.416, 971.052 469.250 L 971 463 959 463 L 947 463 947 469 L 947 475 951 475 L 955 475 955 494 L 955 513 951 513 L 947 513 947 519 L 947 525 965.050 525 L 983.100 525 982.800 519.250 L 982.500 513.500 977.126 513.193 L 971.753 512.887 972.198 501.693 C 972.952 482.762, 977.260 476.829, 990.746 476.148 L 998 475.781 998 468.891 C 998 462.269, 997.905 462, 995.582 462 C 994.252 462, 992.564 461.824, 991.832 461.609 C 991.099 461.394, 988.576 461.648, 986.225 462.173 M 595.759 463.423 C 590.574 465.273, 587.562 467.396, 584.586 471.298 C 578.648 479.083, 576.528 492.658, 579.522 503.719 C 581.056 509.386, 582.196 511.297, 586.918 516.116 C 593.026 522.349, 596.978 524.016, 605.500 523.951 C 611.661 523.903, 616.519 522.232, 621.471 518.455 L 625.261 515.564 624.841 522.162 C 624.316 530.408, 621.064 535.301, 614.879 537.154 C 609.077 538.893, 603.051 536.753, 601.070 532.250 L 599.639 529 590.240 529 L 580.841 529 581.541 532.250 C 584.138 544.308, 593.817 549.588, 611.887 548.805 C 626.169 548.186, 634.220 543.991, 639.342 534.500 C 641.363 530.755, 641.532 528.748, 642 503 L 642.500 475.500 646.750 475.193 L 651 474.885 651 468.943 L 651 463 639 463 L 627 463 627 467.500 C 627 469.975, 626.746 472, 626.435 472 C 626.125 472, 624.764 470.685, 623.412 469.078 C 617.952 462.588, 605.330 460.007, 595.759 463.423 M 534.500 473.954 C 531.763 475.086, 528.352 478.923, 527.067 482.315 C 524.894 488.049, 524.783 488, 540 488 C 555.840 488, 555.612 488.148, 552.010 480.212 C 550.610 477.127, 549.083 475.515, 546.564 474.462 C 542.748 472.868, 537.646 472.653, 534.500 473.954 M 679.270 474.483 C 675.511 476.117, 672.009 481.306, 672.004 485.250 L 672 488 685.500 488 L 699 488 698.985 485.250 C 698.936 476.137, 688.534 470.455, 679.270 474.483 M 1025 475.170 C 1023.075 476.460, 1020.461 479.538, 1019.190 482.008 C 1017.224 485.832, 1016.931 487.689, 1017.221 494.500 C 1017.907 510.650, 1025.644 517.327, 1037.961 512.399 C 1044.058 509.959, 1046.321 505.504, 1046.771 495.056 C 1047.091 487.617, 1046.836 485.920, 1044.819 482.059 C 1041.894 476.457, 1038.417 473.910, 1032.864 473.302 C 1029.422 472.924, 1027.761 473.319, 1025 475.170 M 388.832 475.709 C 387.364 476.619, 385.120 479.194, 383.845 481.432 C 381.912 484.822, 381.530 486.917, 381.551 494 C 381.593 507.837, 386.367 514.167, 396.761 514.167 C 402.002 514.167, 405.490 512.006, 408.500 506.895 C 410.100 504.179, 410.500 501.702, 410.500 494.500 C 410.500 484.086, 408.587 478.939, 403.580 475.886 C 399.749 473.550, 392.453 473.462, 388.832 475.709 M 603.898 476.258 C 594.150 482.736, 593.325 501.604, 602.476 508.802 C 609.318 514.184, 619.533 511.914, 623.669 504.093 C 626.685 498.390, 626.852 488.473, 624.036 482.271 C 620.455 474.381, 610.979 471.552, 603.898 476.258 M 830 474.709 C 827.371 475.676, 824.847 478.384, 822.737 482.500 C 820.343 487.172, 819.873 498.326, 821.829 504.085 C 824.274 511.287, 831.492 515.477, 838.791 513.932 C 846.055 512.395, 849.956 505.430, 849.956 494 C 849.956 484.846, 847.613 478.954, 842.808 476.024 C 839.646 474.096, 833.409 473.456, 830 474.709 M 750 499.503 L 750 513.257 760.750 512.800 C 772.832 512.288, 777.034 510.770, 779.483 506.033 C 782.770 499.677, 780.550 490.546, 775.085 487.937 C 773.663 487.258, 767.438 486.488, 761.250 486.226 L 750 485.748 750 499.503 M 894.775 498.559 C 891.351 500.417, 890 502.907, 890 507.362 C 890 512.667, 893.882 515.329, 900.791 514.763 C 908.870 514.100, 913.744 509.247, 915.365 500.250 L 915.950 497 906.725 497.040 C 900.546 497.067, 896.600 497.568, 894.775 498.559" stroke="none" fill="#ffffff" fill-rule="evenodd"/><path d="M -0 468.002 L 0 624.002 600.250 623.751 L 1200.500 623.500 1200.753 467.500 L 1201.006 311.500 600.503 311.752 L -0 312.003 -0 468.002 M 0.488 468 C 0.488 554.075, 0.606 589.287, 0.750 546.250 C 0.894 503.212, 0.894 432.787, 0.750 389.750 C 0.606 346.712, 0.488 381.925, 0.488 468 M 191.486 390.814 C 182.358 396.638, 177 404.109, 177 411.015 C 177 413.957, 175.515 415, 171.325 415 C 167.227 415, 149.358 418.894, 143.642 421.033 C 137.046 423.501, 130.595 428.926, 127.797 434.357 C 123.462 442.774, 126.010 456.064, 133.863 466 C 135.853 468.518, 137.098 471.917, 138.302 478.115 C 141.447 494.311, 150.154 510.680, 162.258 523.148 C 169.131 530.227, 183.863 541.916, 186.873 542.678 C 190.487 543.593, 196.428 540.127, 206.685 531.120 C 216.520 522.483, 224.831 512.831, 229.971 504.073 C 233.803 497.545, 238.614 483.548, 239.593 476.078 C 240.110 472.133, 241.362 469.144, 244.190 465.108 C 249.145 458.034, 252.471 447.450, 251.641 441.395 C 250.554 433.470, 245.613 426.884, 237.739 422.867 C 232.288 420.086, 217.171 416.371, 208 415.559 C 203.875 415.194, 199.265 414.659, 197.756 414.369 L 195.012 413.844 198.023 409.466 C 201.473 404.452, 203.111 397.306, 202.141 391.500 C 201.244 386.129, 199.049 385.988, 191.486 390.814 M 191.582 399.304 C 188.680 403.108, 185.617 409.951, 186.445 410.779 C 187.440 411.773, 192.206 406.625, 194.110 402.500 C 197.378 395.418, 195.936 393.595, 191.582 399.304 M 172.199 423.528 C 161.687 425.377, 154.790 428.336, 151.042 432.605 C 147.204 436.976, 146.311 441.747, 148.477 446.311 C 151.237 452.126, 153.291 452.500, 182.500 452.500 C 205.494 452.500, 208.982 452.711, 212.673 454.328 C 216.718 456.099, 218.743 458.423, 217.118 459.427 C 216.681 459.697, 213.213 459.433, 209.412 458.841 C 199.006 457.220, 182.747 458.249, 175.635 460.979 C 167.251 464.196, 162.500 469.275, 160.965 476.661 C 158.518 488.436, 161.589 503.092, 169.123 515.583 C 174.384 524.307, 181.210 532.308, 185.255 534.493 C 188.888 536.456, 188.995 536.457, 192.457 534.593 C 204.176 528.282, 216.086 514.597, 224.302 498 L 229.500 487.500 229.662 475.636 C 229.823 463.898, 229.868 463.686, 233.912 455.560 C 237.003 449.350, 238 446.166, 238 442.502 C 238 438.103, 237.608 437.282, 233.732 433.579 C 229.320 429.361, 221.989 426.265, 211 423.975 C 202.076 422.115, 181.576 421.879, 172.199 423.528 M 309.214 437.086 C 294.153 439.005, 283.846 447.386, 277.957 462.500 C 275.945 467.665, 275.614 470.309, 275.581 481.500 C 275.549 492.438, 275.886 495.416, 277.705 500.275 C 282.099 512.015, 291.034 520.618, 303.031 524.658 C 311.533 527.522, 330.488 527.195, 338.469 524.047 C 349.483 519.703, 358 508.484, 358 498.322 L 358 495 349.128 495 L 340.256 495 339.643 498.829 C 338.782 504.217, 335.256 508.946, 330 511.762 C 326.207 513.795, 324.479 514.105, 319 513.737 C 308.605 513.038, 302.690 509.194, 297.863 500 C 295.730 495.938, 295.500 494.235, 295.505 482.500 C 295.509 471.065, 295.786 468.898, 297.806 464.500 C 300.557 458.510, 305.315 453.270, 309.718 451.381 C 314.571 449.298, 325.304 449.604, 329.914 451.956 C 334.913 454.507, 338.667 459.059, 340.088 464.295 C 340.715 466.608, 341.388 469.063, 341.583 469.750 C 341.829 470.617, 344.399 471, 349.969 471 L 358 471 358 454.460 L 358 437.919 349.750 438.210 L 341.500 438.500 341.191 442.783 L 340.882 447.066 336.451 443.166 C 330.147 437.617, 321.026 435.581, 309.214 437.086 M 429.420 437.347 C 429.123 438.121, 429.020 440.947, 429.190 443.627 L 429.500 448.500 433.750 448.807 L 438 449.115 438 481 L 438 512.885 433.750 513.193 L 429.500 513.500 429.200 519.250 L 428.900 525 446.950 525 L 465 525 465 519 L 465 513 460.512 513 L 456.024 513 455.762 474.750 L 455.500 436.500 442.730 436.220 C 432.487 435.995, 429.853 436.218, 429.420 437.347 M 471.667 436.667 C 471.300 437.033, 471 439.958, 471 443.167 L 471 449 475 449 L 479 449 479 481 L 479 513 475 513 L 471 513 471 519 L 471 525 488.500 525 L 506 525 506 519.057 L 506 513.115 501.750 512.807 L 497.500 512.500 497.238 474.250 L 496.976 436 484.655 436 C 477.878 436, 472.033 436.300, 471.667 436.667 M 1037 442 L 1037 448 1041.500 448 L 1046 448 1046 459.203 L 1046 470.406 1042.250 466.762 C 1037.514 462.161, 1034.401 461, 1026.801 461 C 1018.758 461, 1013.839 462.590, 1008.958 466.768 C 1001.941 472.774, 998.813 481.346, 998.850 494.470 C 998.905 514.302, 1009.836 526.686, 1027.023 526.386 C 1034.628 526.254, 1040.747 523.614, 1044.164 518.992 C 1045.381 517.346, 1046.741 516, 1047.188 516 C 1047.635 516, 1048 518.039, 1048 520.531 L 1048 525.062 1060.250 524.781 L 1072.500 524.500 1072.500 518.500 L 1072.500 512.500 1068.250 512.193 L 1064 511.885 1064 473.943 L 1064 436 1050.500 436 L 1037 436 1037 442 M 721 444.409 L 721 451 726 451 L 731 451 731 481.500 L 731 512 726 512 L 721 512 721 518.500 L 721 525 748.684 525 C 779.632 525, 784.829 524.238, 791.526 518.718 C 796.554 514.573, 798.951 508.976, 798.978 501.315 C 799.004 494.044, 797.860 490.544, 794.186 486.658 C 791.243 483.545, 785.108 480.059, 782.290 479.898 C 781.305 479.842, 782.033 479.306, 783.907 478.708 C 789.057 477.064, 794.590 471.252, 796.004 466 C 798.425 457.009, 795.567 447.646, 789.064 443.264 C 782.965 439.154, 779.538 438.718, 749.750 438.260 L 721 437.818 721 444.409 M 750 462.500 L 750 474 759.032 474 C 764.576 474, 769.378 473.451, 771.466 472.579 C 777.775 469.943, 780.140 460.545, 775.750 455.552 C 773.155 452.600, 766.339 451, 756.364 451 L 750 451 750 462.500 M 386.734 462.024 C 377.407 464.380, 370.052 470.249, 365.958 478.605 C 363.895 482.815, 363.556 484.979, 363.530 494.071 C 363.502 503.890, 363.715 505.061, 366.518 510.542 C 372.310 521.869, 383.541 527.590, 398.446 526.807 C 411.761 526.109, 420.288 520.868, 426.244 509.722 C 428.210 506.043, 428.500 504.021, 428.500 494 C 428.500 483.132, 428.338 482.207, 425.546 477.167 C 422.041 470.840, 418.385 467.547, 411.195 464.242 C 405.229 461.499, 393.150 460.404, 386.734 462.024 M 530.929 462.303 C 519.741 465.477, 511.554 473.656, 508.928 484.282 C 507.285 490.933, 508.185 503.431, 510.718 509.122 C 515.608 520.113, 524.705 525.968, 538.153 526.782 C 554.787 527.790, 564.840 522.072, 569.918 508.716 L 570.950 506 562.501 506 C 554.076 506, 554.047 506.009, 552.459 509.079 C 548.208 517.301, 532.699 516.209, 528.516 507.393 C 527.682 505.636, 527 503.028, 527 501.599 L 527 499 548.941 499 C 561.009 499, 571.065 498.663, 571.290 498.250 C 571.514 497.837, 571.367 493.871, 570.964 489.436 C 569.814 476.795, 564.941 469.009, 555.334 464.465 C 548.632 461.294, 537.851 460.339, 530.929 462.303 M 599.326 461.997 C 590.863 463.766, 584.329 468.998, 580.657 476.947 C 578.911 480.725, 578.548 483.458, 578.526 493 C 578.503 503.051, 578.784 505.032, 580.756 508.722 C 586.515 519.500, 593.662 524, 605.021 524 C 612.885 524, 618.056 522.277, 622.250 518.260 L 625 515.626 624.994 519.563 C 624.985 525.987, 623.191 530.625, 619.441 533.918 C 616.463 536.532, 615.139 536.995, 610.715 536.968 C 604.924 536.933, 602.575 535.643, 601.064 531.669 C 600.061 529.031, 599.936 529, 590.394 529 L 580.738 529 581.344 532.734 C 583.085 543.459, 592.554 549.145, 608.954 549.310 C 624.995 549.471, 634.476 544.841, 639.641 534.323 L 642.500 528.500 642.823 501.750 L 643.145 475 647.622 475 L 652.100 475 651.800 469.250 L 651.500 463.500 639 463.500 L 626.500 463.500 626 467.342 L 625.500 471.185 623 468.495 C 617.690 462.782, 608.127 460.158, 599.326 461.997 M 676.081 462.529 C 666.408 465.236, 659.686 470.976, 655.679 479.949 C 653.293 485.292, 652.805 498.976, 654.765 505.559 C 657.636 515.196, 664.737 522.238, 674.958 525.581 C 682.511 528.052, 695.776 527.164, 702.508 523.738 C 709.367 520.248, 713.976 514.890, 715.400 508.750 L 716.038 506 707.769 506.039 C 699.585 506.077, 699.480 506.110, 697.500 509.250 C 691.890 518.149, 676.352 515.658, 672.938 505.312 C 670.832 498.930, 670.587 499, 695.117 499 L 717.296 499 716.680 491.010 C 715.618 477.234, 710.145 468.590, 699.516 463.899 C 693.158 461.093, 683.275 460.515, 676.081 462.529 M 825.081 462.524 C 815.435 465.232, 808.785 470.806, 804.826 479.500 C 801.538 486.719, 801.571 501.260, 804.892 508.714 C 807.781 515.197, 814.967 522.052, 821.528 524.583 C 829.074 527.493, 843.738 527.247, 850.779 524.093 C 857.501 521.083, 864.276 513.657, 866.632 506.720 C 868.999 499.748, 868.962 488.144, 866.549 481.032 C 864.114 473.853, 856.465 466.043, 849.492 463.614 C 842.416 461.150, 831.684 460.671, 825.081 462.524 M 894.132 462.015 C 884.204 464.109, 878.714 468.349, 876.153 475.899 C 874.109 481.926, 874.197 482, 883.422 482 L 891.845 482 893.006 478.483 C 894.559 473.777, 898.762 471.627, 905.198 472.245 C 911.834 472.883, 915 475.889, 915 481.551 L 915 485.753 903.250 486.276 C 890.450 486.846, 886.024 487.835, 880.936 491.264 C 875.692 494.798, 873.500 499.436, 873.500 507 C 873.500 518.849, 880.342 525.862, 892.770 526.751 C 901.495 527.376, 906.034 525.932, 911.666 520.740 L 916 516.745 916 520.873 L 916 525 928 525 L 940 525 940 519 L 940 513 936 513 L 932 513 931.994 496.750 C 931.991 487.813, 931.537 478.872, 930.984 476.882 C 928.133 466.620, 920.923 461.931, 907.204 461.419 C 902.417 461.240, 896.534 461.508, 894.132 462.015 M 982.446 463.508 C 979.726 464.888, 976.375 467.549, 975 469.423 L 972.500 472.830 972 468.165 L 971.500 463.500 958.750 463.220 L 946 462.940 946 468.970 L 946 475 950.500 475 L 955 475 955 494 L 955 513 950.500 513 L 946 513 946 519 L 946 525 964.407 525 L 982.815 525 983.157 519.415 C 983.346 516.342, 983.312 513.642, 983.083 513.415 C 982.854 513.187, 980.492 513, 977.833 513 L 973 513 973.022 501.750 C 973.039 492.958, 973.447 489.626, 974.890 486.500 C 978.418 478.855, 983.907 475.710, 992.978 476.135 L 998.500 476.394 998.791 469.324 C 999.065 462.685, 998.943 462.217, 996.791 461.641 C 992.207 460.413, 987.287 461.054, 982.446 463.508 M 535.035 474.306 C 530.960 475.710, 527 481.053, 527 485.148 L 527 488 540.132 488 L 553.263 488 552.714 483.902 C 552.050 478.954, 548.899 475.344, 544.074 474.004 C 539.727 472.796, 539.386 472.808, 535.035 474.306 M 681.643 474.028 C 676.634 475.529, 672 481.259, 672 485.950 C 672 487.916, 672.557 488, 685.611 488 L 699.223 488 698.525 484.284 C 697.526 478.957, 694.503 475.234, 690.207 474.041 C 685.966 472.863, 685.533 472.862, 681.643 474.028 M 1027.286 474.149 C 1016.572 477.114, 1013.423 500.623, 1022.521 509.721 C 1025.411 512.611, 1026.435 513, 1031.150 512.996 C 1041.894 512.989, 1046.315 507.349, 1046.432 493.500 C 1046.485 487.222, 1046.049 484.639, 1044.402 481.500 C 1041.153 475.303, 1034.085 472.268, 1027.286 474.149 M 389.192 476.024 C 384.387 478.954, 382.044 484.846, 382.044 494 C 382.044 507.605, 387.472 514.546, 397.438 513.684 C 404.125 513.106, 408.297 508.695, 410.031 500.369 C 411.414 493.725, 410.249 484.555, 407.485 480.336 C 403.526 474.295, 395.234 472.340, 389.192 476.024 M 607.208 474.682 C 605.948 474.939, 603.415 476.652, 601.579 478.488 C 595.810 484.257, 594.582 495.102, 598.712 503.805 C 603.282 513.437, 618.548 513.430, 623.646 503.794 C 626.225 498.918, 626.143 486.591, 623.500 482.105 C 620.009 476.177, 613.779 473.339, 607.208 474.682 M 829.256 475.645 C 827.472 476.524, 824.997 478.876, 823.756 480.872 C 821.828 483.973, 821.500 485.879, 821.500 494 C 821.500 501.258, 821.925 504.278, 823.299 506.794 C 828.525 516.367, 842.143 516.264, 847.295 506.612 C 850.550 500.515, 850.429 487.208, 847.066 481.286 C 843.228 474.529, 836.100 472.271, 829.256 475.645 M 750 499.500 L 750 512 759.980 512 C 772.213 512, 777.125 510.363, 779.423 505.521 C 781.376 501.405, 781.421 497.944, 779.579 493.534 C 777.368 488.242, 773.845 487, 761.050 487 L 750 487 750 499.500 M 897.313 498.102 C 893.793 499.121, 890 503.262, 890 506.088 C 890 509.888, 892.324 513.017, 895.954 514.104 C 904.941 516.797, 915 509.050, 915 499.435 C 915 497.071, 914.790 497.003, 907.750 497.090 C 903.763 497.140, 899.066 497.595, 897.313 498.102" stroke="none" fill="#040404" fill-rule="evenodd"/><path d="M 0 156.001 L 0 312.002 600.250 311.751 L 1200.500 311.500 1200.753 155.750 L 1201.006 0 600.503 0 L 0 0 0 156.001 M 0.488 156.500 C 0.488 242.300, 0.606 277.252, 0.750 234.171 C 0.894 191.091, 0.894 120.891, 0.750 78.171 C 0.606 35.452, 0.488 70.700, 0.488 156.500 M 507.117 87.250 C 506.659 88.487, 497.792 115.019, 487.412 146.208 L 468.541 202.916 462.580 203.208 C 456.691 203.497, 456.609 203.542, 455.705 207 C 454.724 210.753, 455.209 223.910, 456.398 225.835 C 457.422 227.491, 510.578 227.491, 511.602 225.835 C 512.856 223.806, 513.233 210.614, 512.119 207.750 C 511.132 205.211, 510.626 205, 505.525 205 C 502.486 205, 500 204.637, 500 204.194 C 500 203.751, 501.063 199.813, 502.362 195.444 L 504.723 187.500 525.626 187.231 L 546.528 186.962 548.786 195.231 C 550.028 199.779, 551.034 203.838, 551.022 204.250 C 551.010 204.662, 548.552 205, 545.559 205 C 542.566 205, 539.864 205.412, 539.553 205.915 C 538.251 208.021, 537.852 218.774, 538.927 222.750 L 540.077 227 567.980 227 C 585.473 227, 596.112 226.628, 596.499 226.002 C 597.803 223.891, 598.190 211.349, 597.077 207.250 L 595.923 203 590.559 203 L 585.195 203 583.124 196.250 C 581.985 192.537, 576.782 176.225, 571.561 160 C 566.340 143.775, 558.791 120.269, 554.784 107.765 L 547.500 85.031 527.725 85.015 C 508.125 85, 507.943 85.020, 507.117 87.250 M 744 85.706 C 741.668 86.559, 737.954 90.223, 736.405 93.200 C 733.495 98.793, 735.737 106.650, 741.190 109.974 C 745.193 112.415, 751.902 112.619, 756.137 110.429 C 760.080 108.390, 763.433 101.124, 762.566 96.499 C 761.033 88.330, 751.687 82.896, 744 85.706 M 613.002 88.494 C 611.883 91.438, 611.665 102.074, 612.625 106.875 C 613.240 109.949, 613.345 110, 619.125 110 L 625 110 625 156.500 L 625 203 619.475 203 C 614.465 203, 613.860 203.239, 612.975 205.565 C 611.879 208.449, 611.674 219.122, 612.625 223.875 L 613.250 227 643.046 227 L 672.841 227 673.532 223.854 C 674.550 219.220, 674.303 208.909, 673.098 205.750 C 672.092 203.111, 671.767 203, 665.025 203 L 658 203 658 187.654 L 658 172.308 676.250 171.705 C 688.358 171.305, 696.241 170.574, 699.673 169.535 C 711.018 166.099, 721.815 155.809, 725.666 144.762 C 727.034 140.838, 727.500 136.576, 727.499 128 C 727.498 117.621, 727.237 115.943, 724.822 110.787 C 721.172 102.999, 717.488 98.572, 711.104 94.306 C 699.973 86.866, 698.320 86.633, 653.752 86.223 L 614.005 85.858 613.002 88.494 M 743.775 89.559 C 740.231 91.482, 739 93.919, 739 99.011 C 739 104.699, 743.178 109.007, 748.673 108.985 C 750.778 108.976, 753.175 108.533, 754 108 C 755.318 107.148, 755.311 107.029, 753.935 107.015 C 753.075 107.007, 751.619 105.425, 750.701 103.500 C 749.783 101.575, 748.525 100, 747.905 100 C 747.158 100, 746.999 101.181, 747.434 103.500 C 748.029 106.674, 747.877 107, 745.795 107 C 743.593 107, 743.500 106.677, 743.500 99.002 L 743.500 91.003 748.050 91.001 C 754.515 90.999, 756.804 94.138, 753.821 98.915 C 752.870 100.438, 752.993 101.341, 754.457 103.575 C 756.188 106.217, 756.337 106.259, 757.637 104.482 C 758.386 103.457, 759 101.150, 759 99.356 C 759 90.425, 751.305 85.473, 743.775 89.559 M 747 94.941 C 747 97.500, 748.723 98.475, 750.556 96.953 C 751.671 96.028, 751.752 95.406, 750.890 94.367 C 749.231 92.369, 747 92.698, 747 94.941 M 658.227 129.250 L 658.500 147.500 670.261 147.327 C 679.365 147.194, 682.863 146.742, 685.747 145.327 C 697.625 139.503, 697.774 118.677, 685.980 112.752 C 683.233 111.371, 679.916 111.003, 670.227 111.002 L 657.955 111 658.227 129.250 M 525.745 115.710 C 525.466 116.695, 522.258 127.680, 518.618 140.122 C 514.978 152.565, 512 163.252, 512 163.872 C 512 164.657, 516.387 165, 526.430 165 L 540.860 165 539.903 161.750 C 539.377 159.963, 536.234 148.613, 532.918 136.528 C 529.602 124.444, 526.747 114.413, 526.572 114.238 C 526.397 114.064, 526.025 114.726, 525.745 115.710 M 429.409 437.377 C 429.118 438.134, 429.020 440.947, 429.190 443.627 L 429.500 448.500 433.736 448.807 L 437.972 449.114 438.257 480.557 L 438.543 512.001 438.521 480.250 L 438.500 448.500 434.250 448.193 L 430 447.885 430 442.472 L 430 437.060 442.750 436.747 L 455.500 436.435 442.719 436.217 C 432.636 436.046, 429.826 436.291, 429.409 437.377 M 478.292 436.742 C 482.027 436.935, 487.877 436.934, 491.292 436.739 C 494.706 436.545, 491.650 436.387, 484.500 436.389 C 477.350 436.390, 474.556 436.550, 478.292 436.742 M 341.537 439.250 C 340.695 441.879, 340.455 447.837, 341.209 447.371 C 341.644 447.102, 342 445.127, 342 442.981 L 342 439.081 350.250 438.744 L 358.500 438.407 350.219 438.204 C 344.325 438.059, 341.822 438.360, 341.537 439.250 M 733.750 438.747 C 741.038 438.918, 752.962 438.918, 760.250 438.747 C 767.538 438.577, 761.575 438.437, 747 438.437 C 732.425 438.437, 726.462 438.577, 733.750 438.747 M 474.979 448.709 L 478.972 449.114 479.257 480.807 L 479.542 512.500 479.521 480.500 L 479.500 448.500 475.243 448.402 L 470.985 448.304 474.979 448.709 M 731.235 481.198 L 731 511.895 725.750 512.263 L 720.500 512.630 725.781 512.815 C 729.254 512.937, 731.228 512.568, 731.547 511.739 C 731.813 511.046, 731.904 496.983, 731.750 480.489 L 731.469 450.500 731.235 481.198 M 997.990 469.205 C 997.720 473.442, 997.860 476.548, 998.299 476.106 C 998.739 475.663, 998.959 472.196, 998.789 468.401 L 998.480 461.500 997.990 469.205 M 345.750 470.732 C 348.087 470.943, 351.913 470.943, 354.250 470.732 C 356.587 470.522, 354.675 470.349, 350 470.349 C 345.325 470.349, 343.413 470.522, 345.750 470.732 M 753.750 474.732 C 756.087 474.943, 759.913 474.943, 762.250 474.732 C 764.587 474.522, 762.675 474.349, 758 474.349 C 753.325 474.349, 751.413 474.522, 753.750 474.732 M 642.434 500.500 C 642.433 514.250, 642.574 520.014, 642.747 513.308 C 642.919 506.603, 642.920 495.353, 642.748 488.308 C 642.576 481.264, 642.434 486.750, 642.434 500.500 M 294.328 483.500 C 294.333 487.350, 294.513 488.802, 294.730 486.728 C 294.946 484.653, 294.943 481.503, 294.722 479.728 C 294.501 477.952, 294.324 479.650, 294.328 483.500 M 754.784 486.738 C 757.689 486.941, 762.189 486.939, 764.784 486.734 C 767.378 486.528, 765 486.363, 759.500 486.365 C 754 486.368, 751.878 486.536, 754.784 486.738 M 972.365 503.500 C 972.368 509, 972.536 511.122, 972.738 508.216 C 972.941 505.311, 972.939 500.811, 972.734 498.216 C 972.528 495.622, 972.363 498, 972.365 503.500 M 1063.631 512.212 C 1063.899 512.645, 1065.891 513, 1068.059 513 L 1072 513 1072 518.469 L 1072 523.938 1059.998 524.267 L 1047.997 524.596 1060.248 524.548 L 1072.500 524.500 1072.500 518.500 L 1072.500 512.500 1067.822 511.962 C 1065.249 511.666, 1063.363 511.779, 1063.631 512.212 M 754.250 512.735 C 756.862 512.941, 761.138 512.941, 763.750 512.735 C 766.362 512.529, 764.225 512.360, 759 512.360 C 753.775 512.360, 751.638 512.529, 754.250 512.735" stroke="none" fill="#049bdb" fill-rule="evenodd"/></svg>