<svg xmlns="http://www.w3.org/2000/svg" width="10000" height="1536" viewBox="0 0 10000 1536" version="1.1"><path d="" stroke="none" fill="#289c9c" fill-rule="evenodd"/><path d="M 715 0.652 C 627.104 6.212, 547.390 24.039, 470.298 55.376 C 439.934 67.718, 399.626 86.924, 385.770 95.651 C 383.718 96.943, 381.805 98, 381.519 98 C 378.758 98, 320.761 135.430, 302.827 148.786 C 281.080 164.982, 260.372 181.881, 242 198.425 C 234.131 205.511, 193.714 245.972, 188.125 252.358 C 161.442 282.848, 149.152 298.175, 131.500 322.972 C 130.400 324.518, 124.899 332.544, 119.275 340.809 L 109.050 355.837 112.360 358.668 C 115.872 361.673, 117.321 362.874, 126.015 369.986 C 129.032 372.454, 131.725 374.708, 132 374.996 C 132.275 375.284, 139.700 381.805, 148.500 389.487 C 167.828 406.360, 205.043 443.114, 217.685 457.817 C 241.530 485.548, 254.946 505.084, 264.167 525.500 C 274.798 549.041, 274.997 570.288, 264.709 583.415 C 250.474 601.578, 225.879 609.543, 178 611.497 C 165.087 612.023, 151.313 612.745, 120 614.535 C 87.276 616.406, 52.546 620.343, 36 624.059 C 14.951 628.786, 5.892 633.371, 1.817 641.359 C -1.257 647.383, -0.431 659.239, 3.472 665.138 C 9.236 673.847, 22.712 684.420, 48.544 700.500 C 65.893 711.300, 82.294 722.444, 119.304 748.582 C 135.060 759.710, 183.022 794.284, 204.174 809.762 C 212.245 815.668, 225.004 825, 232.528 830.500 C 261.319 851.548, 291.786 875.290, 298.631 882.013 C 311.312 894.468, 320.830 910.467, 325.097 926.500 C 327.999 937.402, 328.038 954.394, 325.186 965.093 C 318.709 989.393, 303.398 1008.759, 273.500 1030.467 C 242.289 1053.127, 237.097 1056.877, 222.159 1067.545 C 213.722 1073.570, 205.573 1079.400, 204.050 1080.500 C 202.527 1081.600, 199.980 1083.394, 198.391 1084.486 C 195.592 1086.409, 166.507 1107.427, 137.625 1128.399 C 115.648 1144.357, 97 1158.540, 97 1159.299 C 97 1161.843, 125.594 1205.493, 140.039 1225 C 173.987 1270.844, 223.599 1323.513, 264 1356.601 C 265.925 1358.178, 267.725 1359.713, 268 1360.012 C 270.608 1362.849, 294.189 1380.946, 314.500 1395.696 C 324.876 1403.232, 351.624 1420.532, 367 1429.653 C 448.599 1478.054, 539.125 1510.855, 634 1526.395 C 657.158 1530.188, 681.333 1532.933, 709.500 1534.968 C 722.566 1535.913, 804.894 1535.672, 810.500 1534.673 C 812.150 1534.379, 817.550 1533.862, 822.500 1533.523 C 830.608 1532.969, 853.661 1530.523, 860 1529.546 C 861.375 1529.334, 864.525 1528.884, 867 1528.548 C 924.142 1520.771, 991.133 1502.645, 1047 1479.843 C 1072.073 1469.610, 1108.058 1452.447, 1128 1441.210 C 1133.775 1437.956, 1140.750 1434.033, 1143.500 1432.492 C 1159.342 1423.616, 1206.595 1392.512, 1213.373 1386.500 C 1213.993 1385.950, 1218.100 1382.833, 1222.500 1379.573 C 1247.014 1361.410, 1274.918 1337.033, 1299.949 1311.911 C 1323.930 1287.842, 1335.296 1275.204, 1358.869 1246.395 C 1365.745 1237.993, 1386.274 1209.893, 1394.874 1197.112 C 1418.117 1162.572, 1439.519 1124.549, 1456.008 1088.500 C 1491.875 1010.089, 1514.331 926.420, 1522.433 841 C 1537.254 684.750, 1504.047 527.537, 1427.489 391.500 C 1341.211 238.192, 1204.258 118.661, 1040 53.303 C 984.552 31.241, 918.609 14.013, 861 6.540 C 846.688 4.683, 831.257 3.055, 822.500 2.477 C 817 2.114, 811.375 1.579, 810 1.289 C 807.145 0.685, 723.358 0.124, 715 0.652 M 3842.500 33.098 C 3727.428 40.904, 3623.481 73.354, 3526.688 131.688 C 3454.075 175.449, 3391.307 231.830, 3340.418 299 C 3327.854 315.584, 3329.579 313.170, 3316.411 332.607 C 3256.087 421.650, 3213.307 530.110, 3195.955 638 C 3192.144 661.699, 3191.702 665.054, 3188.519 694.500 C 3186.030 717.521, 3185.508 732.131, 3185.520 778.500 C 3185.533 831.953, 3186.277 846.275, 3191.055 885 C 3208.499 1026.374, 3262.001 1150.998, 3351.602 1258.968 C 3370.355 1281.566, 3388.768 1300.580, 3417.542 1327.063 C 3427.907 1336.602, 3448.996 1353.695, 3460.335 1361.747 C 3462.076 1362.983, 3464.889 1365.008, 3466.588 1366.247 C 3475.282 1372.591, 3502.783 1390.451, 3512 1395.739 C 3568.116 1427.938, 3624.810 1449.748, 3690.500 1464.407 C 3727.977 1472.770, 3774.721 1478.891, 3815 1480.710 C 3844.063 1482.022, 3897.230 1481.455, 3920.500 1479.584 C 4036.398 1470.266, 4134.734 1436.355, 4218.996 1376.646 C 4228.647 1369.807, 4255.346 1349.043, 4257 1347.090 C 4257.275 1346.766, 4261.100 1343.351, 4265.500 1339.503 C 4280.104 1326.729, 4302.660 1304.444, 4317.629 1288 C 4320.383 1284.975, 4323.664 1281.375, 4324.921 1280 C 4328.024 1276.607, 4349.748 1250.456, 4353.588 1245.492 C 4374.453 1218.522, 4392.276 1192.838, 4411.179 1162.500 C 4420.689 1147.238, 4433 1126.121, 4433 1125.070 C 4433 1124.380, 4416.502 1113.316, 4404.856 1106.196 L 4401.213 1103.968 4395.912 1111.234 C 4379.955 1133.107, 4340.184 1184.315, 4337.068 1187 C 4336.749 1187.275, 4334.020 1190.425, 4331.004 1194 C 4295.325 1236.292, 4248.340 1282.082, 4216.090 1305.993 C 4191.426 1324.279, 4162.829 1340.894, 4137 1351.944 C 4132.875 1353.709, 4128.150 1355.750, 4126.500 1356.480 C 4120.169 1359.281, 4094.714 1368.056, 4083.271 1371.381 C 4069.799 1375.296, 4044.286 1381.102, 4030 1383.503 C 4024.775 1384.381, 4019.375 1385.296, 4018 1385.536 C 4016.625 1385.775, 4009.425 1386.634, 4002 1387.445 C 3994.575 1388.255, 3986.250 1389.170, 3983.500 1389.477 C 3974.513 1390.483, 3907.786 1390.883, 3896 1390.002 C 3845.244 1386.208, 3803.596 1378.205, 3761.076 1364.076 C 3736.019 1355.749, 3722.278 1350.166, 3699.500 1339.057 C 3632.601 1306.430, 3579.315 1262.764, 3535.888 1204.983 C 3490.983 1145.234, 3459.619 1073.155, 3438.645 981.500 C 3428.665 937.892, 3420.981 874.560, 3419.118 820.559 C 3418.107 791.246, 3419.025 711.770, 3420.517 699.500 C 3420.717 697.850, 3421.150 690.875, 3421.478 684 C 3421.806 677.125, 3422.267 670.375, 3422.503 669 C 3422.738 667.625, 3423.408 660.425, 3423.992 653 C 3425.927 628.401, 3431.697 586.021, 3438.014 550 C 3440.640 535.027, 3450.052 495.489, 3456.106 474 C 3476.188 402.709, 3511.625 328.564, 3550.499 276.500 C 3576.021 242.317, 3608.833 209.828, 3640.626 187.258 C 3699.515 145.454, 3776.306 116.897, 3851 109.025 C 3880.149 105.954, 3928.004 105.464, 3954 107.972 C 4043.386 116.595, 4116.511 144.222, 4182.143 194.164 C 4259.380 252.937, 4318.875 347.221, 4361.160 477.857 C 4365.012 489.761, 4368.573 500.524, 4369.073 501.775 C 4369.970 504.025, 4370.158 504.048, 4385.740 503.775 L 4401.500 503.500 4401.417 501 C 4401.183 493.921, 4399.879 472.048, 4399.510 469 C 4399.088 465.523, 4398.895 462.755, 4397.002 433 C 4396.459 424.475, 4395.789 414.575, 4395.512 411 C 4395.235 407.425, 4394.549 397.075, 4393.987 388 C 4393.425 378.925, 4392.744 368.800, 4392.474 365.500 C 4392.205 362.200, 4391.092 345.775, 4390.002 329 C 4388.912 312.225, 4387.793 295.575, 4387.515 292 C 4387.236 288.425, 4386.549 278.075, 4385.987 269 C 4385.425 259.925, 4384.742 249.800, 4384.469 246.500 C 4384.197 243.200, 4382.855 223.400, 4381.488 202.500 C 4380.120 181.600, 4378.780 161.350, 4378.508 157.500 C 4378.237 153.650, 4377.554 143.525, 4376.990 135 C 4376.427 126.475, 4375.749 116.575, 4375.485 113 C 4375.220 109.425, 4374.548 99.525, 4373.991 91 C 4373.435 82.475, 4372.776 72.800, 4372.527 69.500 C 4372.279 66.200, 4371.818 59, 4371.503 53.500 C 4371.188 48, 4370.677 40.913, 4370.367 37.750 L 4369.804 32 4351.636 32 L 4333.469 32 4331.226 40.750 C 4324.476 67.082, 4311.063 92.689, 4296.197 107.628 C 4283.154 120.734, 4268.096 127.160, 4250 127.343 C 4240.598 127.439, 4238.460 127.101, 4229.553 124.118 C 4217.141 119.961, 4206.943 115.487, 4186.137 105.069 C 4113.248 68.570, 4039.408 45.572, 3965.742 36.423 C 3932.238 32.262, 3876.855 30.768, 3842.500 33.098 M 8023.496 35.663 C 8022.654 37.678, 8020.874 41.840, 8019.541 44.913 C 8018.207 47.986, 8013.990 57.700, 8010.169 66.500 C 8006.348 75.300, 8000.877 88.125, 7998.010 95 C 7991.227 111.270, 7965.100 172.364, 7954.838 195.954 C 7950.423 206.103, 7946.003 216.453, 7945.016 218.954 C 7942.731 224.742, 7912.427 295.636, 7901.842 319.954 C 7897.425 330.103, 7892.991 340.486, 7891.990 343.026 C 7889.812 348.550, 7860.159 417.896, 7848.832 443.954 C 7844.420 454.103, 7839.991 464.486, 7838.990 467.026 C 7836.812 472.550, 7807.159 541.896, 7795.832 567.954 C 7791.420 578.103, 7786.991 588.486, 7785.990 591.026 C 7784.012 596.045, 7754.506 665.143, 7745.008 687 C 7741.781 694.425, 7736.584 706.575, 7733.459 714 C 7725.175 733.682, 7699.124 794.554, 7689.827 815.954 C 7685.418 826.103, 7681.003 836.453, 7680.016 838.954 C 7677.045 846.481, 7639.085 935.242, 7634.013 946.522 C 7633.018 948.733, 7629.865 956.158, 7627.005 963.022 C 7619.012 982.206, 7585.427 1060.704, 7581.013 1070.522 C 7580.018 1072.733, 7576.865 1080.158, 7574.005 1087.022 C 7568.759 1099.613, 7540.014 1166.940, 7537.510 1172.500 C 7536.767 1174.150, 7534.057 1180.450, 7531.488 1186.500 C 7525.609 1200.343, 7506.138 1242.532, 7501.687 1251.072 C 7499.845 1254.607, 7495.695 1262.675, 7492.467 1269 C 7489.238 1275.325, 7484.437 1284.248, 7481.798 1288.829 C 7479.159 1293.410, 7477 1297.317, 7477 1297.513 C 7477 1298.136, 7459.866 1325.198, 7455.182 1331.973 C 7444.884 1346.867, 7433.921 1360.131, 7422.780 1371.175 C 7408.027 1385.800, 7374.328 1398.837, 7326.500 1408.422 L 7310.500 1411.628 7310 1430.816 L 7309.500 1450.003 7528.250 1450.001 L 7747 1450 7747 1431.019 C 7747 1409.009, 7748.713 1411.523, 7733 1410.475 C 7727.775 1410.126, 7721.925 1409.655, 7720 1409.428 C 7644.952 1400.578, 7615.564 1388.564, 7596.357 1358.883 C 7594.002 1355.244, 7590.842 1348.719, 7589.334 1344.383 C 7586.843 1337.217, 7586.602 1335.273, 7586.690 1323 C 7586.795 1308.159, 7589.088 1295.202, 7595.536 1273.014 C 7604.338 1242.727, 7600.947 1250.892, 7709.968 997.500 L 7714.701 986.500 7982.893 986.500 L 8251.084 986.500 8253.506 992 C 8254.838 995.025, 8266.105 1021.800, 8278.543 1051.500 C 8290.981 1081.200, 8302.897 1109.550, 8305.023 1114.500 C 8321.701 1153.336, 8343.762 1206.708, 8349.609 1222.368 C 8369.297 1275.099, 8378.229 1315.863, 8374.836 1337.500 C 8372.458 1352.659, 8366.338 1364.402, 8354.500 1376.521 C 8345.524 1385.710, 8339.039 1390.160, 8327.876 1394.791 C 8308.657 1402.763, 8287.117 1407.404, 8257.500 1409.956 C 8250.350 1410.572, 8242.128 1411.317, 8239.228 1411.612 L 8233.956 1412.149 8234.228 1430.825 L 8234.500 1449.500 8508.250 1449.752 L 8782 1450.004 8782 1431.021 C 8782 1409.128, 8783.490 1411.571, 8769.500 1410.518 C 8740.759 1408.355, 8709.405 1400.214, 8686.528 1388.974 C 8672.183 1381.926, 8670.468 1380.937, 8661.501 1374.538 C 8635.928 1356.289, 8613.439 1326.572, 8585.571 1274.200 C 8576.894 1257.895, 8569.530 1242.845, 8561.495 1225 C 8559.143 1219.775, 8555.769 1212.350, 8553.997 1208.500 C 8552.226 1204.650, 8550.346 1200.375, 8549.819 1199 C 8549.292 1197.625, 8546.674 1191.325, 8544.001 1185 C 8538.021 1170.847, 8523.330 1135.835, 8511.064 1106.500 C 8506.004 1094.400, 8501.257 1083.150, 8500.514 1081.500 C 8499.771 1079.850, 8498.278 1076.250, 8497.195 1073.500 C 8496.113 1070.750, 8493.419 1064.225, 8491.210 1059 C 8489.001 1053.775, 8484.952 1044.100, 8482.212 1037.500 C 8479.472 1030.900, 8472.401 1014.025, 8466.499 1000 C 8455.790 974.554, 8442.792 943.414, 8438.533 933 C 8437.296 929.975, 8432.678 918.950, 8428.270 908.500 C 8423.862 898.050, 8416.315 880.050, 8411.498 868.500 C 8406.682 856.950, 8401.945 845.700, 8400.972 843.500 C 8400 841.300, 8396.407 832.750, 8392.989 824.500 C 8380.683 794.799, 8377.060 786.111, 8366.509 761 C 8360.616 746.975, 8353.111 728.975, 8349.830 721 C 8346.550 713.025, 8342.792 704.025, 8341.479 701 C 8338.899 695.060, 8325.525 663.166, 8311.496 629.500 C 8306.683 617.950, 8301.677 606.124, 8300.373 603.220 C 8299.068 600.317, 8298 597.692, 8298 597.388 C 8298 597.084, 8296.700 593.835, 8295.110 590.168 C 8293.521 586.500, 8289.308 576.525, 8285.748 568 C 8282.189 559.475, 8275.889 544.400, 8271.750 534.500 C 8267.610 524.600, 8260.748 508.175, 8256.501 498 C 8246.596 474.272, 8241.044 461.012, 8231.166 437.500 C 8226.775 427.050, 8218.586 407.475, 8212.967 394 C 8207.349 380.525, 8201.683 367.124, 8200.376 364.220 C 8199.069 361.317, 8198 358.692, 8198 358.388 C 8198 358.084, 8196.700 354.835, 8195.110 351.168 C 8193.521 347.500, 8189.308 337.525, 8185.748 329 C 8182.189 320.475, 8175.889 305.400, 8171.750 295.500 C 8167.610 285.600, 8160.748 269.175, 8156.501 259 C 8143.793 228.556, 8139.017 217.168, 8133.225 203.500 C 8127.973 191.105, 8122.935 179.032, 8109.021 145.500 C 8105.597 137.250, 8101.983 128.700, 8100.988 126.500 C 8099.994 124.300, 8098.290 120.250, 8097.203 117.500 C 8096.116 114.750, 8093.423 108.225, 8091.217 103 C 8087.281 93.673, 8080.536 77.535, 8067.919 47.250 L 8061.566 32 8043.296 32 L 8025.027 32 8023.496 35.663 M 1789.667 63.667 C 1789.300 64.033, 1789 72.808, 1789 83.167 L 1789 102 1822.250 102.010 C 1874.873 102.026, 1895.889 105.480, 1922.500 118.489 C 1936.109 125.142, 1943.504 130.446, 1954.536 141.471 C 1962.967 149.896, 1965.229 152.860, 1968.677 160 C 1976.514 176.233, 1981.351 195.034, 1984.974 223.350 C 1989.610 259.587, 1989.500 246.580, 1989.500 759.500 C 1989.500 1215.087, 1989.393 1245.713, 1987.732 1264.500 C 1983.576 1311.511, 1976.885 1340.104, 1966.265 1356.231 C 1960.156 1365.508, 1949.657 1376.376, 1939.744 1383.681 C 1926.105 1393.734, 1919.271 1397.292, 1903.403 1402.601 C 1894.637 1405.535, 1888.780 1406.924, 1874.500 1409.459 C 1872.850 1409.751, 1867 1410.266, 1861.500 1410.602 C 1856 1410.937, 1850.600 1411.356, 1849.500 1411.532 C 1848.400 1411.708, 1834.338 1411.885, 1818.250 1411.926 L 1789 1412 1789 1431.037 L 1789 1450.075 2158.750 1449.728 C 2362.113 1449.537, 2529.850 1449.101, 2531.500 1448.759 C 2533.150 1448.417, 2540.800 1447.871, 2548.500 1447.544 C 2628.868 1444.136, 2709.326 1432.477, 2762.241 1416.569 C 2871.647 1383.679, 2952.361 1316.511, 3001.458 1217.500 C 3021.106 1177.877, 3031.964 1140.185, 3035.883 1098 C 3037.250 1083.281, 3036.501 1043.034, 3034.586 1028.365 C 3025.595 959.467, 2997.999 902.474, 2949.049 851.702 C 2916.664 818.112, 2880.554 794.879, 2827.500 773.496 C 2800.463 762.599, 2766.076 752.035, 2734.047 744.787 L 2723.594 742.421 2737.047 737.579 C 2822.239 706.912, 2880.227 664.394, 2922.638 601.500 C 2930.818 589.370, 2933.896 583.948, 2941.942 567.500 C 2957.774 535.136, 2966.063 507.032, 2970.552 470.500 C 2972.608 453.771, 2972.896 417.207, 2971.106 400.097 C 2964.393 335.911, 2941.125 279.553, 2900.247 228.472 C 2889.375 214.886, 2864.813 189.948, 2851.379 178.856 C 2783.406 122.736, 2690.334 87.376, 2573 73.094 C 2551.623 70.492, 2545.855 69.943, 2520.500 68.091 C 2483.126 65.362, 2477.369 65.081, 2436.500 63.993 C 2396.295 62.922, 1790.717 62.616, 1789.667 63.667 M 4940.620 71.250 C 4940.313 75.787, 4939.816 84.450, 4939.516 90.500 C 4939.217 96.550, 4938.082 119.275, 4936.995 141 C 4935.907 162.725, 4934.123 198.725, 4933.030 221 C 4931.937 243.275, 4930.577 270.050, 4930.010 280.500 C 4928.849 301.862, 4926.312 353.150, 4925.348 374.750 L 4924.712 389 4944.356 389 C 4955.160 389, 4964 388.756, 4964 388.457 C 4964 386.343, 4967.265 358.329, 4968.075 353.500 C 4974.859 313.016, 4983.163 286.454, 4997.551 259.208 C 5017.952 220.576, 5049.620 188.802, 5084.500 171.969 C 5097.981 165.462, 5107.015 162.567, 5124.643 159.102 C 5159.115 152.327, 5188.406 151.041, 5308.750 151.018 L 5404 151 5403.982 691.750 C 5403.965 1189.727, 5403.676 1257.939, 5401.491 1278.500 C 5399.387 1298.307, 5399.229 1299.509, 5396.957 1313.054 C 5394.941 1325.078, 5389.253 1344.590, 5385.750 1351.500 C 5377.625 1367.529, 5359.278 1384.801, 5340.157 1394.424 C 5314.440 1407.365, 5295.128 1410.806, 5243.250 1411.692 L 5208 1412.293 5208 1431.147 L 5208 1450 5502 1450 L 5796 1450 5796 1431 L 5796 1412 5771.250 1411.985 C 5724.379 1411.955, 5704.172 1409.630, 5679.460 1401.420 C 5658.077 1394.317, 5633.451 1377.571, 5625.205 1364.527 C 5611.883 1343.453, 5605.491 1313.497, 5602.048 1256 C 5601.604 1248.575, 5601.185 996.887, 5601.118 696.694 L 5600.996 150.889 5716.248 151.293 C 5837.792 151.719, 5837.678 151.715, 5865 156.487 C 5896.031 161.907, 5927.042 173.353, 5948 187.122 C 5974.437 204.490, 5997.507 229.708, 6015.326 260.718 C 6029.101 284.688, 6040.863 327.999, 6047.585 379.500 C 6047.872 381.700, 6048.344 384.738, 6048.633 386.250 L 6049.159 389 6068.984 389 L 6088.810 389 6088.429 385.250 C 6088.219 383.188, 6087.577 370.475, 6087.002 357 C 6086.426 343.525, 6085.751 328.900, 6085.501 324.500 C 6085.251 320.100, 6084.797 310.650, 6084.492 303.500 C 6084.187 296.350, 6083.736 286.900, 6083.489 282.500 C 6083.242 278.100, 6082.799 268.650, 6082.503 261.500 C 6082.208 254.350, 6081.754 244.900, 6081.496 240.500 C 6081.238 236.100, 6080.788 226.650, 6080.497 219.500 C 6080.206 212.350, 6079.755 202.450, 6079.495 197.500 C 6079.235 192.550, 6078.782 183.100, 6078.489 176.500 C 6078.196 169.900, 6077.735 160.225, 6077.464 155 C 6076.809 142.338, 6075.154 105.797, 6074.476 89 C 6074.176 81.575, 6073.685 72.688, 6073.386 69.250 L 6072.841 63 5507.010 63 L 4941.180 63 4940.620 71.250 M 6099.667 63.667 C 6099.300 64.033, 6099 72.758, 6099 83.056 L 6099 101.778 6138.250 102.283 C 6177.808 102.792, 6187.719 103.563, 6205.201 107.495 C 6240.371 115.404, 6268.450 133.530, 6278.575 154.861 C 6287.505 173.674, 6293.882 207.668, 6295.580 245.500 C 6295.901 252.650, 6296.356 259.110, 6296.591 259.856 C 6297.541 262.867, 6296.967 1249.437, 6296.006 1266.208 C 6292.389 1329.305, 6285.642 1351.840, 6264.282 1372.163 C 6246.982 1388.624, 6214.233 1403.030, 6180.500 1409.018 C 6170.382 1410.814, 6163.050 1411.236, 6133.750 1411.712 L 6099 1412.277 6099 1431.139 L 6099 1450.002 6633.706 1449.751 L 7168.412 1449.500 7169.620 1445.500 C 7170.284 1443.300, 7172.944 1435.425, 7175.531 1428 C 7183.641 1404.722, 7198.083 1362.805, 7200.510 1355.500 C 7201.789 1351.650, 7206.737 1337.250, 7211.505 1323.500 C 7216.273 1309.750, 7221.231 1295.350, 7222.522 1291.500 C 7223.814 1287.650, 7228.536 1273.925, 7233.017 1261 C 7237.498 1248.075, 7243.555 1230.525, 7246.477 1222 C 7249.399 1213.475, 7254.039 1199.975, 7256.788 1192 C 7276.893 1133.675, 7285.947 1107.120, 7286.535 1104.750 L 7287.217 1102 7266.779 1102 L 7246.341 1102 7240.773 1112.250 C 7237.711 1117.888, 7233.876 1124.975, 7232.250 1128 C 7215.703 1158.783, 7187.758 1204.151, 7171.688 1226.323 C 7111.398 1309.502, 7058.769 1349.533, 6992.033 1362.970 C 6972.679 1366.867, 6943.056 1370.429, 6920.652 1371.554 C 6914.518 1371.861, 6907.925 1372.370, 6906 1372.683 C 6899.915 1373.674, 6593.206 1373.911, 6580.500 1372.935 C 6554.046 1370.902, 6538.437 1366.966, 6527.028 1359.449 C 6519.437 1354.448, 6510.442 1345.318, 6506.528 1338.639 C 6500.889 1329.016, 6497.702 1313.601, 6496.454 1289.915 C 6496.124 1283.637, 6495.596 1277.150, 6495.281 1275.500 C 6494.966 1273.850, 6494.515 1157.609, 6494.278 1017.186 L 6493.847 761.873 6666.173 762.302 C 6785.077 762.598, 6841.290 763.079, 6847.500 763.854 C 6852.450 764.471, 6858.750 765.227, 6861.500 765.535 C 6869.805 766.464, 6889.014 769.972, 6897.180 772.051 C 6938.740 782.633, 6971.326 806.918, 6987.776 839.568 C 6995.659 855.213, 7003.953 890.677, 7012.463 945.127 C 7014.409 957.572, 7016 968.044, 7016 968.399 C 7016 968.753, 7024.663 968.921, 7035.250 968.772 L 7054.500 968.500 7054.500 727 L 7054.500 485.500 7035.501 485.500 L 7016.503 485.500 7015.851 491.500 C 7015.493 494.800, 7014.673 503.350, 7014.029 510.500 C 7009.870 556.679, 6996.975 598.436, 6978.223 626.455 C 6954.159 662.410, 6923.173 676.891, 6853.536 684.724 C 6841.432 686.086, 6815.722 686.358, 6666.750 686.700 L 6494 687.097 6494 413.509 L 6494 139.920 6713.250 140.287 C 6907.006 140.611, 6934.477 140.844, 6949.500 142.293 C 6991.361 146.331, 7010.455 150.676, 7030.596 160.746 C 7063.792 177.344, 7087.944 200.868, 7103.241 231.500 C 7115.223 255.496, 7127.501 295.558, 7138.026 345 C 7140.309 355.725, 7142.523 365.175, 7142.946 366 C 7143.584 367.242, 7147.098 367.547, 7163.358 367.771 L 7183 368.042 7182.985 361.771 C 7182.977 358.322, 7182.539 347.850, 7182.012 338.500 C 7181.484 329.150, 7180.588 311.825, 7180.021 300 C 7179.454 288.175, 7178.764 274.450, 7178.489 269.500 C 7178.214 264.550, 7177.322 247, 7176.507 230.500 C 7175.066 201.328, 7174.441 189.084, 7173.445 170.500 C 7172.339 149.862, 7170.967 122.130, 7170.031 101.500 C 7169.482 89.400, 7168.760 75.788, 7168.427 71.250 L 7167.820 63 6634.077 63 C 6340.518 63, 6100.033 63.300, 6099.667 63.667 M 8805 82.395 L 8805 101.790 8843.750 102.280 C 8884.055 102.790, 8892.439 103.516, 8910.122 108.031 C 8942.125 116.202, 8971.884 136.563, 8982.862 157.800 C 8993.733 178.828, 8999.548 207.305, 9002.913 256 C 9003.389 262.875, 9003.771 488.550, 9003.763 757.500 C 9003.752 1148.184, 9003.488 1250.119, 9002.451 1264.500 C 8998.696 1316.610, 8992.486 1341.680, 8978.754 1360.168 C 8955.847 1391.011, 8920.749 1407.789, 8872.517 1410.952 C 8863.726 1411.528, 8844.939 1412, 8830.767 1412 L 8805 1412 8805 1431 L 8805 1450 9341.918 1450 L 9878.836 1450 9881.356 1442.250 C 9884.426 1432.807, 9895.099 1398.950, 9897.826 1390 C 9899.656 1383.996, 9911.521 1346.381, 9924.481 1305.500 C 9927.445 1296.150, 9932.340 1280.625, 9935.359 1271 C 9938.377 1261.375, 9946.239 1236.400, 9952.830 1215.500 C 9959.421 1194.600, 9965.926 1173.900, 9967.286 1169.500 C 9968.645 1165.100, 9972.759 1152.050, 9976.428 1140.500 C 9985.009 1113.485, 9993.348 1087.056, 9995.592 1079.762 C 9996.563 1076.606, 9997.136 1073.803, 9996.865 1073.532 C 9996.354 1073.021, 9963.683 1065.981, 9963.359 1066.312 C 9963.258 1066.415, 9960.182 1073.475, 9956.525 1082 C 9952.867 1090.525, 9948.842 1099.750, 9947.579 1102.500 C 9946.317 1105.250, 9943.322 1111.775, 9940.925 1117 C 9915.164 1173.136, 9886.094 1221.061, 9858.433 1253 C 9849.428 1263.398, 9830.948 1281.669, 9821.500 1289.517 C 9818.200 1292.257, 9815.275 1294.759, 9815 1295.075 C 9813.309 1297.018, 9794.671 1309.919, 9785.446 1315.532 C 9743.681 1340.943, 9705.833 1351.246, 9631.500 1357.441 C 9596.004 1360.399, 9565.845 1361.022, 9458.900 1361.005 C 9325.207 1360.985, 9290.815 1359.709, 9264.500 1353.795 C 9248.864 1350.281, 9233.850 1340.967, 9223.686 1328.476 C 9215.481 1318.391, 9210.345 1304.337, 9206.520 1281.500 C 9201.321 1250.464, 9201.500 1268.799, 9201.500 767 C 9201.500 509.875, 9201.826 290.500, 9202.224 279.500 C 9204.113 227.351, 9209.238 193.587, 9217.935 176 C 9225.221 161.265, 9235.583 149.714, 9252.287 137.709 C 9266.754 127.310, 9282.976 119.312, 9299 114.676 C 9318.211 109.118, 9347.459 104.682, 9373.069 103.442 C 9380.456 103.084, 9387.400 102.647, 9388.500 102.470 C 9389.600 102.293, 9400.063 102.115, 9411.750 102.074 L 9433 102 9433 82.500 L 9433 63 9119 63 L 8805 63 8805 82.395 M 730.500 82.123 C 714.542 82.708, 702.479 83.456, 692 84.508 C 689.525 84.757, 685.025 85.213, 682 85.522 C 668.421 86.910, 639.016 91.454, 623.219 94.606 C 535.111 112.185, 454.571 145.288, 377 195.804 C 359.862 206.964, 325.716 232.810, 306.545 249.132 C 292.155 261.384, 264.250 288.747, 248.041 306.500 C 235.139 320.631, 224 333.499, 224 334.272 C 224 334.503, 232.213 334.970, 242.250 335.309 C 274.770 336.409, 301.022 342.967, 329.120 357.011 C 357.589 371.242, 379.894 387.860, 404.605 413.252 C 433.020 442.451, 450.176 468.884, 469.996 514 C 473.983 523.075, 478.366 532.975, 479.735 536 C 481.105 539.025, 484.911 547.575, 488.194 555 C 497.737 576.583, 517.044 615.108, 527.284 633 C 558.939 688.313, 589.071 721.607, 621.500 737.105 C 637.037 744.530, 645.615 746.449, 663 746.389 C 690.080 746.294, 716.305 740.396, 737.929 729.536 C 761.570 717.662, 780.838 700.642, 800.799 674 C 832.395 631.829, 831.259 633.521, 848.473 603 C 865.048 573.610, 876.677 554.857, 893.985 529.602 C 897.816 524.012, 914.497 501.758, 917.673 498 C 944.922 465.761, 965.390 445.432, 988.836 427.322 C 1035.446 391.320, 1082.808 371.090, 1138.500 363.394 C 1151.737 361.564, 1188.804 360.775, 1202 362.041 C 1243.228 365.998, 1281.013 375.395, 1322 391.886 C 1329.975 395.095, 1336.673 397.572, 1336.886 397.391 C 1337.483 396.882, 1323.898 377.122, 1311.524 360.500 C 1288.474 329.538, 1267.334 305.392, 1238.855 277.500 C 1135.648 176.422, 1003.094 110.485, 860 89.042 C 821.922 83.336, 771.258 80.629, 730.500 82.123 M 2327 133.596 C 2324.525 133.793, 2315.525 134.436, 2307 135.026 C 2290.523 136.166, 2290.039 136.213, 2271.500 138.457 C 2247.716 141.338, 2210.692 148.365, 2190.500 153.832 L 2187.500 154.644 2187.248 420.751 L 2186.996 686.857 2192.248 687.927 C 2196.907 688.875, 2219.596 692.307, 2229 693.486 C 2235.866 694.346, 2252.713 695.944, 2266 696.995 C 2273.425 697.582, 2281.750 698.261, 2284.500 698.504 C 2313.725 701.086, 2450.992 701.113, 2459.272 698.539 C 2459.947 698.329, 2464.466 697.898, 2469.313 697.581 C 2513.010 694.726, 2564.518 684.436, 2595.022 672.467 C 2653.245 649.621, 2695.814 612.486, 2724.848 559.213 C 2728.232 553.005, 2731 547.757, 2731 547.552 C 2731 547.346, 2732.524 543.876, 2734.386 539.839 C 2744.581 517.744, 2752.606 489.015, 2756.130 462 C 2758.220 445.981, 2757.916 400.706, 2755.619 386 C 2744.769 316.518, 2709.221 257.795, 2649.194 210.192 C 2596.935 168.751, 2526.978 144.120, 2436.728 135.388 C 2421.616 133.925, 2339.673 132.587, 2327 133.596 M 7984.256 358.219 C 7982.597 362.224, 7967.861 396.550, 7951.508 434.500 C 7935.155 472.450, 7916.852 514.958, 7910.835 528.961 C 7904.817 542.965, 7899.282 555.790, 7898.534 557.461 C 7895.542 564.150, 7889.637 577.812, 7878.200 604.500 C 7858.960 649.400, 7812.973 756.224, 7811.474 759.500 C 7810.720 761.150, 7803.048 778.925, 7794.426 799 C 7785.804 819.075, 7771.782 851.700, 7763.267 871.500 C 7754.752 891.300, 7747.561 908.063, 7747.286 908.750 C 7746.887 909.748, 7794.729 910, 7984.500 910 C 8174.277 910, 8222.111 909.748, 8221.704 908.750 C 8219.398 903.099, 8178.572 805.817, 8177.534 803.500 C 8176.795 801.850, 8169.146 783.625, 8160.536 763 C 8151.926 742.375, 8143.144 721.450, 8141.020 716.500 C 8136.543 706.063, 8117.309 660.241, 8112.478 648.500 C 8110.667 644.100, 8107.183 635.775, 8104.736 630 C 8100.217 619.339, 8091.781 599.213, 8077.071 564 C 8072.590 553.275, 8067.750 541.820, 8066.314 538.544 C 8064.878 535.268, 8060.902 525.818, 8057.479 517.544 C 8050.876 501.582, 8039.003 473.267, 8028.528 448.500 C 8025.039 440.250, 8014.445 415.050, 8004.986 392.500 C 7995.527 369.950, 7987.671 351.374, 7987.529 351.219 C 7987.388 351.065, 7985.915 354.215, 7984.256 358.219 M 1238 464.261 C 1178.666 467.875, 1121.550 494.145, 1075.626 538.942 C 1051.106 562.861, 1034.343 584.502, 1016.326 615.500 C 1010.701 625.178, 998.422 649.353, 993.978 659.500 C 974.179 704.702, 958.506 761.647, 950.492 817.500 C 944.302 860.637, 935.653 897.842, 925.384 925.500 C 916.468 949.515, 912.798 958.279, 904.447 975.500 C 888.208 1008.987, 862.015 1049.062, 840.068 1074 C 838.858 1075.375, 835.568 1079.200, 832.759 1082.500 C 823.855 1092.957, 794.007 1122.162, 780 1134.123 C 752.982 1157.194, 715.694 1183.728, 689.500 1198.523 C 648.461 1221.703, 620.610 1235.231, 583 1250.255 C 509.880 1279.465, 429.263 1300.017, 348.557 1310.023 C 339.789 1311.111, 331.971 1312, 331.185 1312 C 328.716 1312, 331.279 1314.209, 347.813 1326.332 C 407.828 1370.337, 470.787 1403.193, 538.500 1425.845 C 561.587 1433.568, 580.188 1438.684, 613.500 1446.472 C 623.583 1448.829, 658.257 1454.584, 673.500 1456.429 C 720.849 1462.163, 777.050 1462.740, 826.991 1458.006 C 833.311 1457.407, 839.386 1456.732, 840.491 1456.505 C 841.596 1456.278, 844.900 1455.839, 847.834 1455.530 C 858.398 1454.417, 882.131 1450.479, 896.153 1447.513 C 900.194 1446.658, 906.650 1445.293, 910.500 1444.478 C 938.722 1438.510, 981.331 1425.227, 1014 1412.213 C 1134.849 1364.072, 1243.414 1278.731, 1318.948 1172.500 C 1343.068 1138.578, 1359.652 1110.753, 1377.953 1073.500 C 1417.432 993.137, 1440.527 904.768, 1446.490 811.260 C 1447.337 797.978, 1447.354 744.208, 1446.515 731.978 C 1441.879 664.374, 1430.587 606.762, 1410.455 548 C 1405.138 532.479, 1396.169 509.052, 1393.974 504.951 C 1392.899 502.944, 1378.030 494.306, 1365.909 488.649 C 1343.191 478.045, 1317.226 470.140, 1293 466.451 C 1279.103 464.335, 1253.519 463.316, 1238 464.261 M 2268.500 774.062 C 2234.386 775.638, 2190.916 779.698, 2187.849 781.593 C 2187.382 781.882, 2187 909.843, 2187 1065.952 L 2187 1349.786 2192.750 1350.863 C 2195.912 1351.456, 2205.936 1353.502, 2215.026 1355.411 C 2230.329 1358.625, 2266.558 1365.077, 2277 1366.447 C 2279.475 1366.772, 2284.425 1367.478, 2288 1368.016 C 2302.851 1370.250, 2335.443 1373.392, 2362 1375.150 C 2383.005 1376.541, 2446.451 1376.893, 2464.500 1375.719 C 2591.122 1367.483, 2678.498 1329.334, 2739.850 1255.500 C 2771.916 1216.910, 2791.130 1171.851, 2797.419 1120.500 C 2799.344 1104.776, 2798.906 1063.926, 2796.651 1049 C 2790.399 1007.599, 2777.051 969.764, 2756.258 934.500 C 2727.070 884.998, 2680.075 845.492, 2617 817.433 C 2574.659 798.598, 2522.537 784.845, 2469.500 778.513 C 2462.350 777.659, 2455.150 776.780, 2453.500 776.559 C 2451.850 776.339, 2446 775.860, 2440.500 775.496 C 2435 775.133, 2429.375 774.578, 2428 774.265 C 2424.050 773.364, 2287.370 773.190, 2268.500 774.062" stroke="none" fill="#249c9c" fill-rule="evenodd"/></svg>