<svg xmlns="http://www.w3.org/2000/svg" width="2500" height="2500" viewBox="0 0 2500 2500" version="1.1"><path d="M 1208.500 547.114 C 1006.999 558.954, 821.773 655.179, 695.231 813.758 C 573.807 965.924, 520.926 1161.473, 548.595 1356 C 562.500 1453.757, 596.945 1547.220, 650.637 1632.880 C 695.033 1703.709, 758.334 1772.061, 826.500 1822.776 C 969.901 1929.463, 1144.716 1977.528, 1323.500 1959.425 C 1550.399 1936.451, 1752.569 1803.946, 1867.137 1603.120 C 1960.270 1439.868, 1983.549 1240.569, 1930.859 1057.563 C 1905.513 969.528, 1862.128 885.640, 1804.769 813.758 C 1684.706 663.299, 1511.621 568.676, 1321.500 549.564 C 1287.059 546.102, 1242.262 545.130, 1208.500 547.114 M 1222.500 576.987 C 1009.139 587.258, 814.471 695.755, 695.661 870.616 C 670.416 907.772, 650.826 943.720, 632.511 986.500 C 624.436 1005.363, 613.730 1034.063, 614.487 1034.820 C 614.755 1035.088, 615.599 1033.775, 616.363 1031.904 C 626.947 1005.971, 630.867 997.136, 640.506 977.500 C 674.446 908.356, 717.159 849.232, 771.633 795.993 C 882.941 687.209, 1028.139 621.995, 1186 609.885 C 1206.829 608.287, 1256.672 608.283, 1277 609.877 C 1332.805 614.254, 1383.672 624.212, 1434.485 640.705 C 1452.065 646.412, 1486.840 659.440, 1488.248 660.848 C 1488.687 661.287, 1487.431 669.484, 1485.458 679.064 C 1451.394 844.449, 1373.454 995.774, 1258.124 1120.444 L 1248 1131.387 1248 1188.694 C 1248 1220.212, 1248.284 1246, 1248.631 1246 C 1248.979 1246, 1253.240 1243.724, 1258.101 1240.942 C 1287.050 1224.376, 1327.757 1208.781, 1358.063 1202.646 C 1377.596 1198.692, 1390.669 1197.682, 1414.834 1198.263 C 1431.825 1198.671, 1439.628 1199.333, 1451 1201.331 C 1517.126 1212.947, 1573.879 1249.330, 1609.494 1302.938 C 1646.343 1358.402, 1659.022 1432.914, 1642.982 1499.733 C 1634.331 1535.771, 1613.970 1572.010, 1585.786 1601.529 C 1543.156 1646.180, 1483.882 1674.454, 1411.500 1684.666 C 1395.328 1686.948, 1342.790 1687.277, 1326 1685.203 C 1263.590 1677.490, 1197.773 1657.383, 1135.050 1626.867 C 1117.805 1618.477, 1099.801 1609.058, 1096.338 1606.614 C 1096.250 1606.551, 1096.571 1604.250, 1097.053 1601.500 C 1098.593 1592.710, 1100.941 1570.099, 1102.452 1549.500 C 1106.407 1495.613, 1106.500 1488.037, 1106.500 1219.833 C 1106.500 1076.467, 1106.212 958.879, 1105.861 958.527 C 1105.509 958.175, 1098.759 959.468, 1090.861 961.401 C 1055.309 970.097, 1010.494 976.178, 950.500 980.445 C 931.407 981.803, 915.405 982.705, 877.250 984.574 L 864 985.223 864 997.513 L 864 1009.803 875.750 1010.431 C 901.711 1011.820, 921.007 1015.059, 932.354 1019.933 C 943.456 1024.702, 952.603 1033.225, 957.890 1043.729 C 963.156 1054.190, 963.027 1050.105, 962.754 1197.536 L 962.500 1334.229 944 1342.164 C 840.281 1386.652, 730.167 1411.396, 615.630 1415.956 C 602.502 1416.478, 591.590 1417.077, 591.380 1417.286 C 590.725 1417.941, 598.868 1446.671, 605.187 1466 C 655.773 1620.744, 761.021 1752.404, 901.548 1836.734 C 1094.593 1952.581, 1335.433 1964.482, 1539.397 1868.254 C 1705.132 1790.062, 1833.487 1646.660, 1892.091 1474.212 C 1914.018 1409.691, 1925.427 1347.509, 1927.949 1278.778 C 1933.188 1136.038, 1894.398 998.165, 1815.472 879 C 1743.059 769.668, 1636.879 681.218, 1516.845 630.236 C 1501.918 623.896, 1497.461 622.244, 1467.500 611.949 C 1426.417 597.831, 1380.356 587.187, 1336 581.559 C 1303.024 577.376, 1254.790 575.433, 1222.500 576.987 M 1007 717.452 C 985.851 720.940, 968.187 730.562, 952.682 747.039 C 935.321 765.490, 927.857 785.046, 927.698 812.500 C 927.530 841.328, 935.634 861.954, 954.748 881.352 C 967.130 893.917, 982.394 902.882, 998.500 907.050 C 1009.878 909.993, 1029.719 910.723, 1041.650 908.636 C 1078.746 902.145, 1108.372 875.376, 1118.163 839.500 C 1121.100 828.739, 1121.422 799.348, 1118.720 788.671 C 1110.116 754.669, 1082.547 727.163, 1048.893 719.003 C 1037.771 716.307, 1018.314 715.586, 1007 717.452 M 1337.136 1254.606 C 1276.239 1264.814, 1248.378 1311.734, 1241.893 1415 C 1240.447 1438.023, 1241.298 1488.985, 1243.462 1509 C 1251.406 1582.475, 1270.621 1620.535, 1309.072 1638.960 C 1326.718 1647.415, 1351.967 1651.223, 1376.414 1649.116 C 1443.729 1643.315, 1473.922 1602.651, 1483.640 1504.701 C 1485.762 1483.318, 1486.069 1424.694, 1484.173 1403 C 1479.838 1353.397, 1469.894 1317.507, 1453.937 1293.870 C 1439.224 1272.075, 1415.577 1258.311, 1385.500 1254.035 C 1375.517 1252.616, 1346.999 1252.952, 1337.136 1254.606" stroke="none" fill="#ffffff" fill-rule="evenodd"/><path d="M 1556.252 1691.887 L 1215.135 1930.737 1220.318 1931.360 C 1223.168 1931.702, 1235.850 1931.984, 1248.500 1931.987 C 1384.067 1932.011, 1513.308 1893.113, 1625 1818.672 C 1740.264 1741.850, 1828.716 1632.831, 1880.112 1504.242 C 1885.480 1490.813, 1898.229 1453.896, 1897.687 1453.354 C 1897.512 1453.179, 1743.866 1560.519, 1556.252 1691.887" stroke="none" fill="#1d376c" fill-rule="evenodd"/><path d="M 1786.774 1386.766 L 1647.183 1484.500 1645.963 1491 C 1640.600 1519.577, 1625.882 1552.342, 1606.762 1578.265 C 1570.436 1627.518, 1517.916 1661.194, 1451.411 1677.877 C 1425.999 1684.252, 1405.894 1686.939, 1376.500 1687.888 L 1355.500 1688.566 1209.500 1790.894 C 1129.200 1847.175, 1060.614 1895.273, 1057.087 1897.778 L 1050.674 1902.333 1058.587 1904.645 C 1104.348 1918.014, 1159.120 1927.777, 1204 1930.564 L 1214.500 1931.216 1556.500 1691.746 L 1898.500 1452.276 1903.269 1434.888 C 1915.127 1391.654, 1922.445 1349.290, 1926.032 1303.119 C 1926.603 1295.759, 1926.912 1289.579, 1926.718 1289.385 C 1926.524 1289.191, 1863.550 1333.013, 1786.774 1386.766" stroke="none" fill="#1f3870" fill-rule="evenodd"/><path d="M 1775.500 1238.668 C 1697.400 1293.367, 1632.892 1338.475, 1632.148 1338.907 C 1631.068 1339.536, 1631.611 1341.909, 1634.844 1350.697 C 1643.558 1374.378, 1648.212 1397.512, 1650.003 1426.050 C 1651.051 1442.744, 1650.246 1464.533, 1648.084 1478 C 1647.599 1481.025, 1647.342 1483.649, 1647.514 1483.830 C 1647.774 1484.104, 1923.941 1291.144, 1926.241 1289.083 C 1927.708 1287.767, 1928.245 1247.251, 1927.096 1224.500 C 1925.555 1193.956, 1920.764 1149.166, 1918.203 1141.357 C 1917.566 1139.417, 1904.107 1148.595, 1775.500 1238.668 M 1375.267 1518.778 L 1266.035 1595.383 1268.660 1599.942 C 1283.604 1625.883, 1306.517 1641.471, 1338 1647.116 C 1347.885 1648.888, 1379.115 1648.888, 1389 1647.116 C 1446.216 1636.858, 1473.749 1595.635, 1482.585 1507 C 1483.946 1493.346, 1485.786 1441.899, 1484.906 1442.086 C 1484.683 1442.134, 1435.345 1476.645, 1375.267 1518.778 M 1049.814 1746.752 L 913.129 1842.497 918.814 1845.776 C 930.646 1852.600, 970.119 1871.990, 985.237 1878.404 C 1002.549 1885.748, 1035.021 1897.826, 1044.622 1900.492 L 1050.745 1902.192 1203.317 1795.374 C 1287.232 1736.624, 1355.802 1688.485, 1355.695 1688.399 C 1355.588 1688.312, 1348.750 1687.713, 1340.500 1687.069 C 1298.474 1683.784, 1261.474 1675.859, 1213.783 1659.926 C 1199.088 1655.017, 1186.938 1651.002, 1186.783 1651.003 C 1186.627 1651.005, 1124.991 1694.092, 1049.814 1746.752" stroke="none" fill="#35508f" fill-rule="evenodd"/><path d="M 1710.005 1116.563 C 1617.883 1181.136, 1542.406 1234.313, 1542.278 1234.734 C 1542.150 1235.155, 1544.894 1237.372, 1548.377 1239.660 C 1578.919 1259.725, 1606.009 1290.848, 1624.051 1326.601 L 1630.787 1339.949 1773.143 1240.358 C 1851.439 1185.583, 1916.091 1140.213, 1916.813 1139.535 C 1919.156 1137.336, 1909.409 1093.015, 1898.968 1058.395 C 1893.079 1038.867, 1878.720 998.750, 1877.737 999.079 C 1877.606 999.123, 1802.127 1051.991, 1710.005 1116.563 M 1348 1370.099 L 1242.500 1444.095 1242.573 1468.297 C 1242.648 1493.437, 1243.724 1508.292, 1247.090 1530.672 C 1250.473 1553.158, 1257.297 1577.735, 1263.641 1590.271 C 1265.652 1594.246, 1266.342 1594.878, 1267.777 1594.065 C 1268.725 1593.528, 1317.875 1559.181, 1377 1517.739 L 1484.500 1442.390 1484.243 1425.945 C 1483.694 1390.735, 1478.079 1353.796, 1469.363 1328.053 C 1466.261 1318.890, 1458.020 1301.328, 1455.402 1298.301 L 1453.500 1296.103 1348 1370.099 M 948.281 1649.834 C 864.561 1708.500, 796.048 1756.753, 796.031 1757.063 C 795.944 1758.650, 833.545 1789.529, 851.608 1802.704 C 872.302 1817.798, 909.968 1842, 912.766 1842 C 913.642 1842, 1183.643 1653.521, 1186.272 1651.074 C 1186.697 1650.679, 1182.647 1648.629, 1177.272 1646.520 C 1159.344 1639.483, 1140.701 1630.954, 1119.052 1619.884 C 1107.256 1613.852, 1097.078 1608.480, 1096.434 1607.945 C 1095.621 1607.270, 1095.517 1605.617, 1096.092 1602.535 C 1098.546 1589.403, 1102.658 1542.956, 1101.356 1543.084 C 1100.885 1543.130, 1032.001 1591.168, 948.281 1649.834" stroke="none" fill="#5573a8" fill-rule="evenodd"/><path d="M 1617.582 1048.816 L 1406.680 1196.500 1419.340 1197.165 C 1462.403 1199.428, 1501.862 1211.024, 1534.521 1231.013 L 1541.034 1234.999 1707.366 1118.532 C 1798.848 1054.476, 1874.687 1001.263, 1875.897 1000.283 L 1878.097 998.500 1872.118 984.849 C 1860.799 959.006, 1842.860 924.229, 1831.120 905.367 L 1828.484 901.131 1617.582 1048.816 M 1348.212 1254.007 C 1325.446 1256.388, 1316.676 1259.650, 1297.837 1272.744 C 1280.761 1284.612, 1278.475 1286.842, 1270.733 1299.174 C 1259.134 1317.648, 1249.788 1348.440, 1245.591 1382 C 1243.427 1399.306, 1241.797 1424.779, 1242.180 1435.294 L 1242.500 1444.088 1348 1370.147 C 1406.025 1329.480, 1453.922 1296.464, 1454.438 1296.778 C 1456.299 1297.913, 1448.387 1287.643, 1443.500 1282.579 C 1429.957 1268.547, 1411.698 1259.399, 1389.511 1255.530 C 1378.859 1253.672, 1358.568 1252.924, 1348.212 1254.007 M 913.272 1541.946 C 807.546 1615.951, 721.034 1676.874, 721.022 1677.330 C 720.996 1678.296, 732.098 1691.603, 746.610 1708 C 762.447 1725.896, 794.658 1757.327, 796.199 1756.391 C 797.616 1755.530, 1101.259 1542.986, 1101.880 1542.419 C 1103.378 1541.054, 1106.254 1458.233, 1105.819 1428.946 L 1105.500 1407.392 913.272 1541.946" stroke="none" fill="#6489b9" fill-rule="evenodd"/><path d="M 1512.169 1010.278 L 1249.037 1194.500 1249.018 1219.808 L 1249 1245.116 1255.250 1241.515 C 1299.482 1216.034, 1351.266 1199.481, 1393.480 1197.330 L 1406.460 1196.669 1616.980 1049.257 C 1732.766 968.180, 1827.627 901.301, 1827.782 900.637 C 1828.360 898.162, 1800.136 857.421, 1781.811 834.278 L 1775.301 826.056 1512.169 1010.278 M 1304.196 1266.443 C 1297.141 1270.245, 1288.696 1276.495, 1284.968 1280.673 C 1283.611 1282.195, 1283.175 1282.958, 1284 1282.370 C 1284.825 1281.781, 1290.900 1277.558, 1297.500 1272.986 C 1313.932 1261.601, 1314.856 1260.698, 1304.196 1266.443 M 887.137 1447.968 C 767.038 1532.076, 668.586 1601.080, 668.357 1601.310 C 667.841 1601.825, 683.207 1626.600, 690.802 1637.500 C 703.141 1655.208, 720.429 1677.926, 720.948 1677.114 C 721.252 1676.640, 807.450 1616.086, 912.500 1542.552 C 1017.550 1469.017, 1104.066 1408.303, 1104.758 1407.632 C 1105.746 1406.674, 1105.961 1394.436, 1105.758 1350.728 L 1105.500 1295.043 887.137 1447.968" stroke="none" fill="#689ac7" fill-rule="evenodd"/><path d="M 1539.677 799.024 C 1473.775 845.211, 1419.550 883.018, 1419.177 883.040 C 1418.805 883.063, 1415.125 890.114, 1411 898.711 C 1374.237 975.326, 1314.997 1061.410, 1257.339 1121.998 L 1249 1130.761 1249 1162.464 C 1249 1179.900, 1249.376 1194.017, 1249.836 1193.833 C 1252.182 1192.898, 1774.924 826.373, 1774.959 825.639 C 1775.140 821.837, 1720.144 764.483, 1697 744.337 C 1681.835 731.136, 1661.756 715.017, 1660.500 715.034 C 1659.950 715.041, 1605.580 752.837, 1539.677 799.024 M 1035 1152.424 L 964.500 1201.841 964 1268.042 L 963.500 1334.243 953.500 1338.675 C 887.041 1368.133, 809.388 1391.514, 736.734 1403.943 C 718.300 1407.097, 686.391 1411.393, 672.500 1412.592 C 668.100 1412.972, 663.501 1413.653, 662.281 1414.105 C 660.703 1414.690, 604.813 1453.186, 602.231 1455.467 C 601.729 1455.910, 613.186 1488.434, 618.974 1503 C 630.589 1532.227, 646.635 1565.701, 661.006 1590.686 L 667.440 1601.872 671.970 1598.648 C 674.461 1596.875, 773.138 1527.760, 891.250 1445.059 L 1106 1294.694 1106 1198.847 C 1106 1146.131, 1105.888 1103.002, 1105.750 1103.003 C 1105.612 1103.005, 1073.775 1125.244, 1035 1152.424 M 1106.462 1399 C 1106.462 1425.125, 1106.591 1435.813, 1106.749 1422.750 C 1106.907 1409.688, 1106.907 1388.313, 1106.749 1375.250 C 1106.591 1362.188, 1106.462 1372.875, 1106.462 1399" stroke="none" fill="#62a7d4" fill-rule="evenodd"/><path d="M 1207 240.598 C 1203.975 240.795, 1193.625 241.434, 1184 242.018 C 936.936 257.004, 700.441 365.509, 525.500 544.144 C 296.977 777.491, 195.222 1102.158, 249.521 1424.707 C 275.560 1579.385, 337.524 1725.915, 431.002 1853.870 C 441.727 1868.551, 450.109 1878.686, 446.410 1872.500 C 445.423 1870.850, 440.945 1863.875, 436.459 1857 C 394.780 1793.126, 355.827 1714.242, 330.539 1642.500 C 327.437 1633.700, 321.146 1616.375, 316.559 1604 C 280.702 1507.253, 261.559 1415.945, 254.921 1310 C 253.432 1286.219, 253.428 1222.867, 254.915 1199 C 260.699 1106.168, 276.467 1023.575, 304.457 939.500 C 368.312 747.690, 489.439 579.765, 652.125 457.511 C 772.696 366.904, 913.135 304.504, 1059.500 276.506 C 1069.950 274.507, 1085.925 271.345, 1095 269.479 C 1153.135 257.525, 1198.435 251.492, 1257 247.904 C 1277.910 246.624, 1346.658 246.247, 1361.500 247.332 C 1366.817 247.721, 1369.682 247.636, 1368.500 247.125 C 1366.568 246.289, 1344.986 244.112, 1317 241.929 C 1303.933 240.910, 1218.144 239.872, 1207 240.598 M 1285.341 369.031 C 1263.766 372.904, 1247.646 388.666, 1240.839 412.545 C 1237.855 423.011, 1237.573 444.054, 1240.285 453.928 C 1245.949 474.557, 1260.602 489.549, 1279.531 494.084 C 1287.665 496.032, 1303.444 495.551, 1311.072 493.122 C 1330.378 486.975, 1344.437 470.177, 1349.071 447.720 C 1356.673 410.881, 1341.531 379.353, 1312.032 370.601 C 1305.210 368.577, 1292.152 367.809, 1285.341 369.031 M 1107.500 379.702 C 1103.650 380.523, 1100.392 381.297, 1100.261 381.420 C 1099.381 382.247, 1118.999 470.532, 1121.610 477.500 C 1122.022 478.600, 1119.645 476.125, 1116.327 472 C 1107.387 460.886, 1098.350 451.099, 1069.011 420.756 L 1042.522 393.361 1034.217 395.058 C 1029.649 395.991, 1025.658 397.008, 1025.349 397.318 C 1024.742 397.925, 1048.954 516.046, 1049.919 517.187 C 1050.481 517.852, 1063.910 515.423, 1064.846 514.487 C 1065.590 513.743, 1046.307 422.631, 1044.255 417.195 C 1043.903 416.263, 1047.178 419.775, 1051.532 425 C 1061.542 437.012, 1069.844 445.856, 1111.945 489.358 L 1124.389 502.216 1131.584 500.986 C 1135.541 500.309, 1139.221 499.473, 1139.761 499.127 C 1140.766 498.486, 1116.162 377.903, 1115.067 378.104 C 1114.755 378.161, 1111.350 378.880, 1107.500 379.702 M 1286.734 383.025 C 1268.336 387.667, 1256 408.107, 1256 433.950 C 1256 455.223, 1264.075 470.973, 1278.664 478.155 C 1284.404 480.981, 1286.239 481.387, 1293.361 481.408 C 1300.208 481.429, 1302.488 480.982, 1307.722 478.592 C 1334.431 466.399, 1342.020 417.617, 1320.934 393.663 C 1313.202 384.878, 1298.060 380.168, 1286.734 383.025 M 1397.365 442.696 C 1390.177 475.588, 1384.573 502.821, 1384.912 503.214 C 1385.628 504.043, 1400.117 507.217, 1400.668 506.665 C 1400.872 506.461, 1403.556 494.641, 1406.634 480.397 C 1409.711 466.154, 1412.515 454.218, 1412.864 453.874 C 1413.214 453.530, 1423.396 455.409, 1435.492 458.049 C 1447.587 460.690, 1457.546 462.771, 1457.622 462.675 C 1457.698 462.579, 1458.437 459.498, 1459.263 455.829 C 1460.745 449.251, 1460.736 449.151, 1458.633 448.651 C 1457.460 448.372, 1447.725 446.259, 1437 443.955 C 1426.275 441.652, 1417.128 439.426, 1416.674 439.008 C 1415.899 438.295, 1423.182 402.485, 1424.336 401.330 C 1424.630 401.037, 1435.535 403.107, 1448.569 405.931 C 1461.603 408.755, 1472.416 410.917, 1472.598 410.735 C 1473.062 410.271, 1475.972 397.638, 1475.681 397.348 C 1475.550 397.217, 1461.731 394.137, 1444.972 390.503 C 1428.212 386.868, 1413.585 383.669, 1412.467 383.394 C 1410.544 382.919, 1409.731 386.112, 1397.365 442.696 M 922.638 430.585 C 894.766 437.332, 876.909 462.296, 879.520 490.868 C 881.694 514.670, 894.584 537.483, 912.136 548.593 C 920.166 553.676, 928.478 555.956, 939.068 555.979 C 950.103 556.003, 956.344 554.457, 966.379 549.212 C 979.359 542.428, 987.885 532.582, 992.746 518.764 C 996.208 508.923, 996.369 494.318, 993.149 482.163 C 983.128 444.327, 953.973 423.001, 922.638 430.585 M 1588.064 438.750 C 1586.780 441.559, 1542.172 546.387, 1541.357 548.513 C 1540.937 549.606, 1555.724 556.609, 1556.600 555.733 C 1556.809 555.524, 1567.550 530.496, 1580.469 500.114 C 1593.389 469.733, 1604.226 444.443, 1604.553 443.914 C 1604.993 443.202, 1591.390 436, 1589.605 436 C 1589.449 436, 1588.755 437.238, 1588.064 438.750 M 922.500 445.342 C 911.181 449.101, 902.845 456.617, 898.976 466.551 C 895.688 474.993, 895.646 489.483, 898.879 500 C 907.400 527.724, 928.606 545.115, 948.802 540.943 C 976.763 535.167, 986.331 504.838, 970.296 472.807 C 964.631 461.490, 955.431 451.709, 946.500 447.507 C 939.422 444.177, 928.874 443.226, 922.500 445.342 M 1657.246 470.292 C 1656.735 470.956, 1643.128 494.623, 1627.009 522.883 L 1597.702 574.267 1600.101 576.157 C 1605.206 580.178, 1620.873 589.520, 1628.608 593.154 C 1649.862 603.139, 1666.906 601.684, 1678.399 588.902 C 1684.665 581.932, 1687.323 574.488, 1686.755 565.500 C 1686.305 558.378, 1683.009 549.912, 1679.578 547.065 C 1676.885 544.829, 1677.769 544.285, 1684.925 543.773 C 1697.483 542.875, 1707.154 535.158, 1710.606 523.282 C 1715.301 507.132, 1705.005 492.124, 1680 478.668 C 1668.187 472.311, 1658.450 468.727, 1657.246 470.292 M 807.300 488.234 C 803.340 490.500, 800.236 492.611, 800.403 492.927 C 803.161 498.154, 860.617 596.846, 861.400 597.702 C 862.243 598.624, 864.198 597.961, 869.776 594.862 L 877.051 590.819 875.121 587.659 C 874.059 585.922, 860.277 562.225, 844.493 535 C 828.709 507.775, 815.504 485.188, 815.148 484.807 C 814.791 484.426, 811.260 485.968, 807.300 488.234 M 1657.200 504.134 C 1650.837 515.268, 1648.280 520.632, 1648.950 521.440 C 1649.485 522.084, 1654.102 524.751, 1659.211 527.366 C 1667.347 531.530, 1669.279 532.123, 1674.774 532.141 C 1683.406 532.170, 1688.827 528.995, 1692.403 521.818 C 1693.831 518.952, 1695 515.263, 1695 513.619 C 1695 509.061, 1691.279 502.360, 1686.656 498.593 C 1681.849 494.677, 1670.014 488, 1667.878 488 C 1667.045 488, 1662.478 494.902, 1657.200 504.134 M 726.500 541.126 C 707.250 555.410, 690.865 567.726, 690.089 568.495 C 688.877 569.696, 689.274 570.681, 692.917 575.506 L 697.155 581.119 700.327 578.719 C 702.072 577.399, 708.765 572.432, 715.201 567.681 L 726.902 559.042 736.729 572.271 C 742.134 579.547, 756.624 599.135, 768.929 615.799 C 783.577 635.637, 791.769 645.919, 792.654 645.579 C 795.094 644.643, 805.076 636.725, 804.785 635.957 C 804.628 635.544, 790.325 616.027, 773 592.587 C 755.675 569.146, 741.399 549.637, 741.276 549.234 C 741.153 548.830, 747.544 543.775, 755.477 538 C 763.411 532.225, 769.924 527.136, 769.951 526.690 C 770.011 525.701, 762.700 515.060, 762 515.116 C 761.725 515.138, 745.750 526.843, 726.500 541.126 M 1630.053 551.629 C 1617.053 574.405, 1616.980 572.172, 1630.961 579.318 C 1645.067 586.528, 1654.745 586.675, 1662.575 579.800 C 1669.422 573.788, 1671.963 565.824, 1669.613 557.740 C 1667.133 549.210, 1661.277 543.529, 1645.864 534.704 L 1641.229 532.050 1630.053 551.629 M 1810.705 578.131 C 1807.680 583.284, 1793.296 608.050, 1778.740 633.166 L 1752.276 678.831 1758.455 684.955 L 1764.634 691.079 1802.567 668.887 C 1823.430 656.681, 1842.975 645.042, 1846 643.021 C 1849.025 641.001, 1852.073 639.012, 1852.774 638.600 C 1853.475 638.189, 1851.577 641.481, 1848.557 645.917 C 1842.117 655.374, 1801.908 722.623, 1801.316 724.927 C 1801.075 725.862, 1803.294 728.853, 1806.783 732.298 L 1812.655 738.096 1868.270 706.212 L 1923.885 674.328 1917.693 668.214 L 1911.500 662.100 1875.500 683.851 C 1855.700 695.813, 1835.617 708.121, 1830.872 711.200 L 1822.243 716.798 1828.987 706.649 C 1836.857 694.806, 1876 629.574, 1876 628.301 C 1876 627.826, 1873.346 624.811, 1870.101 621.600 L 1864.203 615.763 1829.351 636.539 C 1810.183 647.966, 1790.112 660.156, 1784.750 663.628 C 1779.388 667.100, 1775 669.750, 1775 669.516 C 1775 669.282, 1777.848 664.683, 1781.328 659.296 C 1784.808 653.908, 1796.353 635.100, 1806.983 617.500 C 1817.612 599.900, 1826.907 584.579, 1827.637 583.453 C 1828.853 581.578, 1828.429 580.876, 1822.585 575.084 L 1816.206 568.762 1810.705 578.131 M 1224.500 577.585 C 1189.938 579.639, 1165.279 582.337, 1138.500 586.994 C 910.970 626.563, 722.099 776.543, 632.252 989 C 628.414 998.075, 624.985 1006.625, 624.632 1008 L 623.989 1010.500 625.177 1008 C 625.831 1006.625, 629.891 997.850, 634.201 988.500 C 658.201 936.425, 692.513 883.094, 731.442 837.356 C 744.507 822.005, 784.269 781.981, 799 769.352 C 866.044 711.875, 938.815 670.341, 1021.479 642.373 C 1071.632 625.404, 1116.857 615.866, 1176 609.785 C 1196.043 607.724, 1271.123 608.071, 1292.500 610.322 C 1360.098 617.442, 1418.329 631.696, 1479 655.975 C 1484.775 658.286, 1489.620 660.295, 1489.767 660.439 C 1490.215 660.878, 1483.150 694.482, 1478.982 711.740 C 1466.293 764.282, 1443.946 829.410, 1423.367 873.826 C 1420.990 878.955, 1419.408 883.005, 1419.852 882.826 C 1420.295 882.647, 1474.523 844.753, 1540.358 798.617 L 1660.059 714.734 1649.279 706.731 C 1603.834 672.991, 1541.083 638.900, 1492 621.284 C 1424.830 597.177, 1372.420 585.231, 1308.500 579.457 C 1292.555 578.016, 1237.781 576.796, 1224.500 577.585 M 1995.116 592.485 C 1995.877 593.577, 2000.976 599.652, 2006.447 605.985 C 2031.462 634.943, 2059.012 671.469, 2081.507 705.500 C 2172.571 843.264, 2227.408 999.500, 2242.435 1164 C 2247.640 1220.978, 2247.643 1287.397, 2242.443 1345 C 2224.904 1539.274, 2150.457 1724.237, 2028.516 1876.500 C 2003.975 1907.144, 1985.525 1927.604, 1954.065 1959.065 C 1903.225 2009.905, 1858.923 2046.324, 1801.500 2084.486 C 1611.299 2210.889, 1386.981 2267.642, 1159.500 2246.914 C 1128.981 2244.133, 1087.519 2238.514, 1067 2234.378 C 1065.167 2234.008, 1064.900 2234.125, 1066 2234.815 C 1067.973 2236.052, 1101.498 2244.095, 1120.500 2247.889 C 1201.229 2264.010, 1293.001 2270.665, 1350 2264.532 C 1433.733 2255.523, 1505.650 2239.920, 1578.483 2214.961 C 1705.296 2171.504, 1817.668 2106.144, 1921.500 2015.447 C 1941.213 1998.228, 1989.178 1950.622, 2006.583 1931 C 2069.076 1860.549, 2116.802 1790.097, 2158.328 1707 C 2242.850 1537.865, 2277.703 1351.338, 2260.442 1160.500 C 2249.609 1040.720, 2216.013 919.992, 2163.602 812.500 C 2140.833 765.803, 2096.631 702.743, 2046.266 645.106 C 2034.690 631.858, 1991.815 587.751, 1995.116 592.485 M 632.617 620.882 L 625.788 627.764 650.523 679.632 C 664.128 708.159, 676.815 734.606, 678.718 738.401 L 682.177 745.303 688.275 739.205 L 694.373 733.107 685.530 714.835 L 676.687 696.562 691.902 681.805 L 707.116 667.047 725.101 676.050 L 743.086 685.053 749.543 679.349 C 753.094 676.212, 755.992 673.387, 755.982 673.072 C 755.965 672.562, 640.837 614, 639.849 614 C 639.628 614, 636.373 617.097, 632.617 620.882 M 647.947 640.174 C 652.490 648.295, 667.509 678.879, 668.524 682.075 C 668.879 683.194, 669.523 683.973, 669.956 683.805 C 670.388 683.637, 676.230 678.230, 682.938 671.789 L 695.134 660.079 679.190 652.095 C 670.421 647.704, 659.706 642.018, 655.379 639.460 C 651.052 636.902, 646.688 634.368, 645.680 633.829 C 644.357 633.120, 644.985 634.880, 647.947 640.174 M 561.831 698.750 C 561.017 699.712, 558.700 702.568, 556.682 705.096 L 553.012 709.691 600.577 747.596 C 626.738 768.443, 648.673 785.600, 649.321 785.722 C 649.970 785.844, 652.652 783.175, 655.283 779.790 C 659.164 774.798, 659.824 773.399, 658.783 772.372 C 656.287 769.910, 564.525 697, 563.922 697 C 563.585 697, 562.644 697.788, 561.831 698.750 M 1008.500 718.008 C 977.597 722.698, 950.191 743.110, 936.998 771.264 C 930.567 784.986, 928.598 794.773, 928.598 813 C 928.598 829.922, 930.332 839.675, 935.572 852.217 C 942.154 867.973, 958.057 886.009, 974.041 895.846 C 982.967 901.339, 996.879 906.341, 1008.063 908.080 C 1018.859 909.758, 1040.541 908.740, 1050.500 906.086 C 1080.295 898.147, 1106.442 873.445, 1115.836 844.361 C 1119.242 833.815, 1120.287 824.196, 1119.751 808.321 C 1119.342 796.192, 1118.773 791.904, 1116.619 784.712 C 1106.375 750.513, 1077.284 724.594, 1042.295 718.492 C 1033.376 716.937, 1017.097 716.704, 1008.500 718.008 M 1927.507 737.615 C 1919.550 739.539, 1906.794 745.800, 1899.194 751.513 C 1871.724 772.163, 1864.468 803.300, 1881.121 829.066 C 1900.799 859.512, 1937.749 863.493, 1971.263 838.779 C 1988.221 826.274, 1998.016 808.787, 1997.988 791.068 C 1997.965 776.031, 1992.587 763.636, 1981 751.911 C 1969.603 740.377, 1958.863 735.965, 1942.500 736.095 C 1937.550 736.134, 1930.803 736.819, 1927.507 737.615 M 517.854 757.818 C 510.699 764.511, 503.288 774.839, 499.510 783.383 C 491.450 801.606, 492.107 822.774, 501.231 838.858 C 511.130 856.309, 534.107 871.380, 554.582 873.851 C 572.390 876.001, 587.412 870.650, 600.500 857.496 C 610.558 847.387, 620.715 828.890, 622.566 817.310 L 623.215 813.256 616.934 811.135 C 613.479 809.968, 610.475 809.192, 610.257 809.410 C 610.039 809.628, 609.177 812.437, 608.342 815.653 C 606.192 823.929, 599.518 836.272, 593.826 842.500 C 579.466 858.212, 561.196 861.106, 540.358 850.969 C 526.717 844.333, 514.920 832.108, 511.011 820.556 C 508.664 813.619, 508.400 803.829, 510.363 796.500 C 513.299 785.536, 522.704 771.185, 530.380 765.957 C 532.363 764.605, 533.984 763.275, 533.982 763 C 533.980 762.725, 531.824 760.067, 529.192 757.094 L 524.406 751.688 517.854 757.818 M 1934.428 753.443 C 1913.419 759.345, 1895.981 774.377, 1889.822 791.894 C 1887.145 799.509, 1887.664 811.557, 1890.948 818 C 1894.758 825.476, 1899.482 830.445, 1906.166 834.008 C 1911.476 836.838, 1913.800 837.453, 1920.540 837.807 C 1931.229 838.368, 1938.276 836.761, 1949.271 831.257 C 1961.255 825.258, 1973.024 813.935, 1978.099 803.521 C 1981.277 797.001, 1981.500 795.884, 1981.500 786.521 C 1981.500 777.361, 1981.254 776.056, 1978.636 771.332 C 1974.669 764.174, 1968.505 758.183, 1962 755.162 C 1955.235 752.019, 1942.354 751.216, 1934.428 753.443 M 1986.608 885.567 C 1956.968 898.978, 1932.611 910.074, 1932.482 910.225 C 1931.881 910.932, 1938.630 924.977, 1939.576 924.988 C 1940.168 924.994, 1951.143 920.263, 1963.965 914.473 C 1976.788 908.683, 1987.402 904.070, 1987.553 904.223 C 1988.763 905.448, 1995.052 921.473, 1995.554 924.611 C 1996.406 929.943, 1994.711 935.699, 1990.945 940.258 C 1989.238 942.325, 1982.589 948.027, 1976.170 952.929 C 1969.752 957.831, 1963.082 963.340, 1961.348 965.171 L 1958.197 968.500 1961.848 976.360 L 1965.500 984.220 1967.500 982.003 C 1968.600 980.783, 1974.675 975.706, 1981 970.720 C 2001.692 954.409, 2007.965 946.838, 2007.990 938.146 L 2008 934.793 2011.699 938.041 C 2017.906 943.491, 2023.433 945.468, 2032.500 945.484 C 2039.046 945.496, 2041.508 945.026, 2046.046 942.898 C 2066.045 933.521, 2070.229 914.651, 2058.330 887.501 C 2052.979 875.294, 2044.248 860.983, 2042.217 861.092 C 2041.273 861.142, 2016.249 872.156, 1986.608 885.567 M 2018.403 889.867 L 1999.306 898.559 2003.976 908.543 C 2009.335 920.001, 2013.301 924.999, 2019.360 927.932 C 2028.865 932.534, 2041.486 928.983, 2047.185 920.103 C 2049.902 915.869, 2050.113 914.891, 2049.819 907.905 C 2049.536 901.178, 2048.952 899.208, 2044.706 890.655 C 2042.070 885.345, 2039.370 881.039, 2038.706 881.087 C 2038.043 881.135, 2028.906 885.086, 2018.403 889.867 M 461.112 895.523 C 443.026 900.581, 428.534 915.628, 423.483 934.592 C 421.214 943.112, 421.419 956.961, 423.933 965.072 C 431.238 988.636, 458.754 1008.145, 488.194 1010.634 C 510.846 1012.548, 532.085 1000.663, 541.522 980.791 C 552.725 957.201, 548.783 933.745, 530.679 916.271 C 521.835 907.734, 512.420 902.092, 500 897.883 C 491.795 895.103, 488.864 894.620, 478.500 894.340 C 469.992 894.110, 464.932 894.454, 461.112 895.523 M 468.978 912.085 C 455.352 913.573, 444.803 920.585, 439.299 931.810 C 436.839 936.826, 436.508 938.630, 436.504 947.042 C 436.500 955.455, 436.819 957.198, 439.192 961.773 C 443.050 969.209, 446.666 973.491, 453.500 978.715 C 466.460 988.624, 481.307 993.427, 497.079 992.815 C 505.442 992.490, 507.496 992.030, 513.264 989.191 C 521.429 985.171, 528.083 978.060, 531.033 970.202 C 534.156 961.880, 533.568 950.693, 529.577 942.500 C 520.439 923.739, 492.172 909.551, 468.978 912.085 M 1092.500 961.673 C 1075.944 965.981, 1052.697 970.342, 1029.619 973.469 C 996.247 977.990, 932.538 983.099, 892 984.504 C 882.925 984.819, 873.138 985.316, 870.250 985.610 L 865 986.144 865 997.924 L 865 1009.704 881.250 1010.283 C 912.420 1011.393, 933.661 1017.062, 946.888 1027.798 C 952.447 1032.310, 958.389 1041.464, 961.254 1049.928 C 963.453 1056.422, 963.485 1057.360, 963.990 1129.170 L 964.500 1201.840 1035.250 1152.256 L 1106 1102.672 1106 1030.336 C 1106 990.551, 1105.888 958.065, 1105.750 958.145 C 1105.612 958.225, 1099.650 959.813, 1092.500 961.673 M 2034.109 1000.537 C 2002.543 1009.564, 1976.597 1017.073, 1976.450 1017.225 C 1976.304 1017.376, 1979.971 1030.775, 1984.600 1047 C 1989.230 1063.225, 1993.471 1078.153, 1994.027 1080.174 L 1995.036 1083.848 2001.653 1081.956 C 2005.292 1080.916, 2008.383 1079.937, 2008.522 1079.782 C 2008.662 1079.627, 2005.695 1068.700, 2001.929 1055.500 C 1998.164 1042.300, 1995.064 1031.050, 1995.042 1030.500 C 1995.019 1029.949, 2017.976 1022.985, 2046.058 1015.023 C 2074.140 1007.061, 2097.601 1000.247, 2098.193 999.881 C 2098.937 999.421, 2098.660 996.933, 2097.300 991.857 C 2095.768 986.134, 2094.905 984.458, 2093.415 984.312 C 2092.362 984.209, 2065.674 991.510, 2034.109 1000.537 M 393.086 1042.040 C 389.222 1047.375, 385.357 1057.285, 383.917 1065.553 C 380.243 1086.655, 389.100 1103.935, 406.264 1109.149 C 422.570 1114.102, 435.745 1107.123, 449.994 1085.987 C 455.990 1077.093, 462.348 1070.579, 466.617 1068.955 C 470.826 1067.355, 478.772 1067.843, 482.914 1069.956 C 491.616 1074.395, 495.175 1083.219, 493.053 1095.093 C 491.641 1102.991, 486.606 1114.102, 482.125 1119.205 C 478.597 1123.223, 478.515 1123.075, 486.817 1127.601 L 492.133 1130.500 494.614 1127.500 C 498.724 1122.529, 504.959 1108.702, 506.625 1100.866 C 509.046 1089.477, 508.089 1077.654, 504.087 1069.526 C 498.126 1057.416, 487.248 1050.811, 473 1050.650 C 459.347 1050.496, 450.813 1056.463, 437.224 1075.664 C 433.268 1081.255, 428.397 1087.176, 426.400 1088.822 C 419.793 1094.268, 412.136 1094.719, 404.667 1090.103 C 395.050 1084.159, 394.993 1067.357, 404.538 1051.508 C 406.442 1048.345, 408 1045.640, 408 1045.496 C 408 1045.352, 405.292 1043.621, 401.983 1041.649 L 395.966 1038.065 393.086 1042.040 M 2061.500 1111.074 C 2030.150 1114.829, 2004.094 1117.924, 2003.598 1117.951 C 2003.076 1117.979, 2002.971 1122.828, 2003.348 1129.431 C 2004.694 1152.991, 2007.702 1166.874, 2014.413 1180.500 C 2024.663 1201.310, 2042.916 1212, 2068.202 1212 C 2099.436 1212, 2120.895 1197.977, 2128.649 1172.500 C 2130.075 1167.811, 2130.469 1163.222, 2130.449 1151.500 C 2130.424 1136.870, 2129.347 1128.212, 2125.383 1110.783 C 2123.937 1104.426, 2123.672 1104.008, 2121.170 1104.123 C 2119.701 1104.190, 2092.850 1107.318, 2061.500 1111.074 M 2064.617 1127.817 L 2017.734 1133.416 2018.383 1142.458 C 2019.536 1158.518, 2023.317 1170.065, 2030.322 1178.916 C 2039.827 1190.928, 2057.019 1196.597, 2076.050 1193.994 C 2102.735 1190.345, 2115.559 1177.236, 2116.761 1152.380 C 2117.350 1140.196, 2114.550 1121.723, 2112.172 1122.109 C 2111.803 1122.169, 2090.403 1124.738, 2064.617 1127.817 M 371.421 1165.391 C 365.555 1178.205, 364.496 1196.494, 368.942 1208.202 C 371.763 1215.630, 378.613 1223.174, 385.671 1226.628 C 390.200 1228.843, 392.681 1229.368, 398.874 1229.419 C 413.818 1229.542, 423.048 1222.030, 434.010 1200.822 C 443.377 1182.700, 447.739 1178.674, 458 1178.680 C 467.540 1178.686, 474.065 1183.392, 476.978 1192.368 C 479.889 1201.338, 476.639 1219.903, 470.546 1229.110 L 468.070 1232.852 475.146 1235.556 C 483.137 1238.609, 482.598 1238.857, 486.524 1230.331 C 491.707 1219.071, 493.812 1205.248, 492.062 1193.944 C 489.850 1179.645, 483.538 1170.359, 472.254 1164.804 C 466.444 1161.944, 464.773 1161.588, 457.112 1161.576 C 439.931 1161.550, 432.248 1168.156, 418.583 1194.703 C 411.151 1209.142, 403.399 1214.531, 393.786 1211.942 C 388.191 1210.436, 382.540 1204.708, 380.981 1198.964 C 379.270 1192.661, 380.349 1182.371, 383.513 1174.808 C 387.510 1165.252, 387.500 1165.375, 384.333 1164.224 C 382.775 1163.658, 379.794 1162.462, 377.709 1161.567 L 373.917 1159.939 371.421 1165.391 M 427 1293.906 L 368.500 1319.654 368.852 1329.577 C 369.045 1335.035, 369.270 1339.544, 369.352 1339.599 C 370.287 1340.221, 495.380 1370.953, 495.695 1370.638 C 495.932 1370.401, 495.760 1366.476, 495.313 1361.915 L 494.500 1353.622 475.077 1349.041 C 464.394 1346.521, 455.524 1344.018, 455.366 1343.480 C 454.913 1341.930, 451.999 1308.254, 452.011 1304.702 C 452.022 1301.504, 452.047 1301.489, 470.481 1293.545 L 488.940 1285.591 488.386 1278.045 C 487.767 1269.618, 487.418 1267.964, 486.281 1268.079 C 485.852 1268.122, 459.175 1279.744, 427 1293.906 M 421 1314.224 C 412.475 1318.093, 401 1322.963, 395.500 1325.047 C 390 1327.131, 386.175 1329.069, 387 1329.353 C 387.825 1329.638, 391.650 1330.372, 395.500 1330.986 C 399.350 1331.599, 411.163 1334.276, 421.750 1336.935 L 441 1341.770 441.010 1339.135 C 441.043 1330.547, 438.522 1307.012, 437.579 1307.095 C 436.985 1307.148, 429.525 1310.356, 421 1314.224 M 2015.011 1313.250 C 2005.184 1330.279, 2003.582 1355.079, 2011.443 1368.493 C 2015.045 1374.639, 2023.165 1381.549, 2029.280 1383.671 C 2037.065 1386.374, 2049.063 1386.065, 2055.412 1382.999 C 2061.512 1380.054, 2069.417 1372.093, 2073.914 1364.366 C 2086.234 1343.197, 2089.939 1338.984, 2097.480 1337.570 C 2101.809 1336.758, 2107.858 1338.314, 2111.495 1341.175 C 2119.803 1347.710, 2120.201 1366.209, 2112.326 1379.829 C 2110.950 1382.209, 2110.048 1384.382, 2110.323 1384.657 C 2110.598 1384.931, 2113.565 1386.453, 2116.917 1388.038 L 2123.011 1390.920 2126.020 1384.960 C 2130.532 1376.023, 2132.252 1367.246, 2131.796 1355.500 C 2131.319 1343.192, 2128.189 1335.273, 2121.290 1328.913 C 2114.594 1322.741, 2109.021 1320.605, 2099.500 1320.562 C 2092.727 1320.531, 2090.722 1320.934, 2086.424 1323.191 C 2079.959 1326.587, 2071.133 1336.101, 2066.413 1344.760 C 2057.294 1361.493, 2051.958 1367.111, 2043.972 1368.389 C 2038.818 1369.213, 2032.492 1367.566, 2028.131 1364.266 C 2018.228 1356.772, 2018.388 1336.358, 2028.481 1319.600 C 2030.435 1316.356, 2031.914 1313.649, 2031.767 1313.587 C 2031.620 1313.524, 2028.903 1312.241, 2025.728 1310.736 C 2022.553 1309.231, 2019.525 1308, 2018.998 1308 C 2018.471 1308, 2016.677 1310.362, 2015.011 1313.250 M 647.500 1415.055 C 643.100 1415.469, 628.813 1416.148, 615.750 1416.563 C 602.688 1416.978, 592 1417.464, 592 1417.642 C 592 1418.907, 601.969 1454.109, 602.522 1454.797 C 602.701 1455.020, 658.753 1416.202, 660.917 1414.356 C 661.446 1413.904, 657.597 1414.104, 647.500 1415.055 M 2022.276 1427.442 C 2012.551 1429.664, 2002.935 1435.264, 1995.758 1442.885 C 1984.074 1455.295, 1978.167 1470.854, 1977.267 1491.596 L 1976.742 1503.693 1981.510 1504.346 C 1991.463 1505.710, 1990.998 1506.082, 1991.017 1496.750 C 1991.067 1473.200, 2001.969 1453.561, 2018.715 1446.852 C 2027.062 1443.509, 2044.428 1443.507, 2054.500 1446.848 C 2070.086 1452.018, 2081.399 1461.097, 2086.738 1472.719 C 2092.928 1486.195, 2090.155 1507.652, 2080.338 1522.241 L 2076.830 1527.453 2079.370 1529.477 C 2080.767 1530.589, 2083.546 1532.380, 2085.545 1533.456 L 2089.181 1535.412 2091.111 1532.956 C 2094.367 1528.816, 2099.764 1516.900, 2101.963 1509 C 2112.242 1472.068, 2093.892 1439.448, 2056.973 1429.020 C 2047.204 1426.260, 2030.727 1425.511, 2022.276 1427.442 M 443.500 1492.389 C 433.109 1496.928, 427.051 1509.047, 429.894 1519.606 C 432.411 1528.955, 442.085 1536.932, 451 1537.012 L 454.500 1537.043 459.392 1550.271 C 470.467 1580.218, 489.870 1622.532, 506.727 1653.500 C 535.810 1706.927, 570.724 1757.134, 612.426 1805.500 C 627.491 1822.973, 673.129 1868.948, 690.500 1884.151 C 816.471 1994.405, 966.626 2063.416, 1130.539 2086.392 C 1173.012 2092.346, 1203.139 2094.376, 1249 2094.376 C 1305.406 2094.376, 1349.300 2090.428, 1402.500 2080.568 L 1420.500 2077.231 1424.357 2081.650 C 1429.521 2087.566, 1434.911 2090.204, 1441.919 2090.246 C 1455.479 2090.328, 1465.340 2080.752, 1465.340 2067.500 C 1465.340 2060.240, 1462.891 2054.941, 1457.129 2049.736 C 1443.976 2037.853, 1421.753 2046.307, 1419.394 2064.090 L 1418.766 2068.823 1405.133 2071.387 C 1308.253 2089.604, 1212.807 2090.785, 1114.500 2074.983 C 886.850 2038.390, 684.058 1908.263, 555.056 1716 C 520.223 1664.085, 491.154 1608.140, 468.868 1550.125 C 463.329 1535.708, 463.071 1534.665, 464.730 1533.406 C 465.704 1532.668, 466.799 1532.049, 467.163 1532.032 C 468.960 1531.946, 474.043 1523.109, 475.029 1518.360 C 477.137 1508.208, 471.833 1497.492, 462.540 1493.124 C 457.329 1490.674, 448.229 1490.323, 443.500 1492.389 M 1957.215 1544.519 C 1955.447 1548.104, 1954.002 1551.592, 1954.005 1552.269 C 1954.008 1552.946, 1965.483 1558.867, 1979.505 1565.427 C 1993.527 1571.987, 2005 1577.459, 2005 1577.587 C 2005 1577.891, 1980.844 1629.418, 1980.539 1629.763 C 1980.412 1629.908, 1969.401 1624.864, 1956.071 1618.554 C 1942.742 1612.245, 1931.069 1606.839, 1930.132 1606.542 C 1928.824 1606.127, 1927.682 1607.516, 1925.214 1612.520 C 1923.446 1616.105, 1922.007 1619.592, 1922.015 1620.269 C 1922.028 1621.311, 2030.111 1673.025, 2032.237 1673.007 C 2033.494 1672.995, 2040.200 1658.796, 2039.325 1657.997 C 2038.871 1657.583, 2028.600 1652.641, 2016.500 1647.016 C 2004.400 1641.391, 1994.382 1636.681, 1994.238 1636.549 C 1994.016 1636.346, 2017.804 1585.077, 2018.531 1584.191 C 2018.671 1584.021, 2028.810 1588.633, 2041.064 1594.441 C 2053.317 1600.248, 2063.828 1604.982, 2064.421 1604.960 C 2065.857 1604.907, 2072.281 1590.859, 2071.281 1589.959 C 2070.428 1589.192, 1961.684 1538, 1960.906 1538 C 1960.644 1538, 1958.983 1540.934, 1957.215 1544.519 M 1900.263 1676.514 C 1891.224 1678.478, 1882.463 1683.522, 1874.960 1691.082 C 1853.473 1712.733, 1852.306 1743.566, 1872.061 1767.689 C 1883.005 1781.052, 1902.051 1792.647, 1918 1795.656 C 1944.120 1800.584, 1968.736 1786.012, 1979.077 1759.500 C 1981.065 1754.403, 1981.418 1751.695, 1981.424 1741.500 C 1981.430 1731.579, 1981.049 1728.472, 1979.227 1723.568 C 1972.793 1706.249, 1958.207 1690.980, 1939.500 1681.981 C 1926.180 1675.573, 1913.028 1673.741, 1900.263 1676.514 M 1899.734 1693.088 C 1882.032 1697.259, 1869.911 1716.592, 1873.996 1734.144 C 1876.142 1743.366, 1880.760 1750.859, 1889.951 1760.034 C 1903.507 1773.566, 1917.918 1779.646, 1934.552 1778.849 C 1944.053 1778.394, 1950.354 1775.698, 1956.663 1769.390 C 1963.273 1762.780, 1966.267 1755.983, 1966.745 1746.500 C 1967.430 1732.933, 1962.030 1721.770, 1948.906 1709.619 C 1934.386 1696.176, 1914.708 1689.560, 1899.734 1693.088 M 1804.500 1791.090 C 1787.645 1793.162, 1770.447 1806.030, 1762.522 1822.500 C 1752.587 1843.148, 1756.198 1865.276, 1772.939 1886.343 C 1798.980 1919.113, 1836.120 1924.006, 1862.114 1898.091 C 1870.555 1889.676, 1875.109 1881.880, 1877.494 1871.760 C 1882.527 1850.415, 1873.489 1826.384, 1853.682 1808.446 C 1838.856 1795.019, 1821.724 1788.974, 1804.500 1791.090 M 1795.257 1809.119 C 1788.186 1811.837, 1779.782 1819.691, 1776.328 1826.810 C 1772.577 1834.540, 1772.424 1847.390, 1775.973 1856.500 C 1781.967 1871.886, 1794.711 1885.787, 1809.574 1893.152 C 1818.177 1897.415, 1818.547 1897.500, 1828.425 1897.499 C 1837.512 1897.499, 1839.018 1897.226, 1843.784 1894.715 C 1850.968 1890.931, 1856.586 1885.054, 1860.080 1877.669 C 1867.650 1861.668, 1860.553 1838.911, 1842.895 1822.563 C 1828.085 1808.852, 1809.557 1803.623, 1795.257 1809.119 M 1675.307 1887.839 C 1660.351 1898.103, 1647.831 1906.795, 1647.485 1907.156 C 1646.892 1907.774, 1653.765 1919, 1654.736 1919 C 1654.985 1919, 1664.799 1912.476, 1676.546 1904.503 L 1697.904 1890.007 1702.296 1896.253 C 1704.712 1899.689, 1718.292 1919.600, 1732.473 1940.500 C 1746.654 1961.400, 1758.587 1978.866, 1758.991 1979.313 C 1759.991 1980.420, 1773.236 1971.048, 1772.675 1969.630 C 1771.423 1966.462, 1704.716 1869.477, 1703.695 1869.339 C 1703.038 1869.251, 1690.263 1877.576, 1675.307 1887.839 M 1606.651 1929.073 C 1590.190 1933.118, 1575.143 1943.900, 1569.270 1955.860 C 1566.879 1960.729, 1566.509 1962.662, 1566.563 1970 C 1566.614 1976.898, 1567.105 1979.547, 1569.171 1984.054 C 1573.733 1994.008, 1581.016 2000.349, 1591 2003.058 C 1593.763 2003.807, 1603.247 2004.321, 1615.572 2004.389 C 1635.547 2004.499, 1635.663 2004.513, 1639.666 2007.161 C 1647.581 2012.398, 1649.819 2023.141, 1644.629 2030.985 C 1639.686 2038.454, 1625.758 2045, 1614.807 2045 L 1609.824 2045 1610.478 2049.250 C 1612.179 2060.303, 1612.056 2060.001, 1614.861 2059.983 C 1620.391 2059.946, 1631.415 2056.940, 1638.481 2053.541 C 1648.421 2048.760, 1656.101 2041.573, 1660.226 2033.190 C 1666.539 2020.361, 1663.934 2005.724, 1653.648 1996.244 C 1651.277 1994.058, 1646.674 1991.215, 1643.419 1989.925 C 1637.848 1987.717, 1636.367 1987.592, 1618.223 1987.792 C 1602.714 1987.963, 1598.221 1987.701, 1595.236 1986.454 C 1586.100 1982.637, 1580.800 1972.652, 1583.087 1963.568 C 1586.036 1951.859, 1603.318 1942, 1620.894 1942 C 1627.740 1942, 1627.484 1942.443, 1625.897 1933.332 L 1624.795 1927 1619.647 1927.072 C 1616.816 1927.112, 1610.968 1928.013, 1606.651 1929.073" stroke="none" fill="#35b5e4" fill-rule="evenodd"/><path d="M 1245.750 576.743 C 1249.737 576.932, 1256.263 576.932, 1260.250 576.743 C 1264.237 576.553, 1260.975 576.397, 1253 576.397 C 1245.025 576.397, 1241.763 576.553, 1245.750 576.743 M 775.989 773.750 L 758.500 791.500 776.250 774.011 C 786.013 764.392, 794 756.404, 794 756.261 C 794 755.548, 792.238 757.259, 775.989 773.750 M 1729 774.500 C 1737.512 783.025, 1744.701 790, 1744.976 790 C 1745.251 790, 1738.512 783.025, 1730 774.500 C 1721.488 765.975, 1714.299 759, 1714.024 759 C 1713.749 759, 1720.488 765.975, 1729 774.500 M 765.486 801.250 L 752.500 814.500 765.750 801.514 C 778.058 789.452, 779.453 788, 778.736 788 C 778.590 788, 772.628 793.962, 765.486 801.250 M 1106.488 1184.500 C 1106.488 1270.850, 1106.606 1306.027, 1106.750 1262.671 C 1106.894 1219.316, 1106.894 1148.666, 1106.750 1105.671 C 1106.606 1062.677, 1106.488 1098.150, 1106.488 1184.500 M 963 1200.200 C 962.725 1274.285, 962.839 1334.561, 963.254 1334.146 C 963.668 1333.732, 963.893 1273.117, 963.754 1199.446 L 963.500 1065.500 963 1200.200 M 1248.467 1186 C 1248.467 1216.525, 1248.594 1229.013, 1248.749 1213.750 C 1248.905 1198.487, 1248.905 1173.513, 1248.749 1158.250 C 1248.594 1142.987, 1248.467 1155.475, 1248.467 1186" stroke="none" fill="#fbfbfb" fill-rule="evenodd"/><path d="" stroke="none" fill="#4485b8" fill-rule="evenodd"/></svg>