<svg xmlns="http://www.w3.org/2000/svg" width="1000" height="460" viewBox="0 0 1000 460" version="1.1"><path d="M 342 116 L 342 133 349.550 133 C 357.426 133, 362.242 131.417, 363.379 128.455 C 364.811 124.723, 363.995 119.900, 361.549 117.633 C 359.145 115.405, 359.134 115.329, 361.021 113.714 C 365.391 109.972, 364.325 102.989, 358.970 100.279 C 357.611 99.592, 353.238 99.023, 349.250 99.015 L 342 99 342 116 M 379 112.429 C 379 122.836, 379.327 126.184, 380.452 127.310 C 381.251 128.108, 381.659 129.007, 381.359 129.307 C 380.364 130.303, 386.847 133, 390.200 132.985 C 399.358 132.944, 401.996 128.084, 401.998 111.250 C 401.999 104.435, 401.591 99, 401.077 99 C 400.570 99, 400.008 105.040, 399.827 112.423 C 399.524 124.866, 399.330 126.026, 397.171 128.321 C 395.890 129.683, 393.640 131.027, 392.171 131.308 C 388.779 131.956, 383.485 129.775, 382.080 127.150 C 381.465 126, 381 119.513, 381 112.066 C 381 104.022, 380.616 99, 380 99 C 379.383 99, 379 104.143, 379 112.429 M 418.455 101.285 C 416.099 103.312, 415.545 104.589, 415.545 108.001 C 415.545 113.190, 417.962 115.467, 424.512 116.450 C 432.004 117.573, 434.457 119.058, 434.820 122.687 C 435.270 127.201, 433.553 129.753, 429.270 130.936 C 425.401 132.004, 418.663 130.882, 417.483 128.973 C 416.682 127.676, 415 127.729, 415 129.051 C 415 131.079, 422.251 133.230, 427.413 132.734 C 435.775 131.931, 439.701 124.704, 435.013 118.744 C 433.516 116.840, 431.485 115.950, 426.763 115.128 C 420.078 113.964, 417 111.595, 417 107.612 C 417 101.660, 423.697 98.593, 430.492 101.432 C 434.695 103.188, 435.909 103, 433.464 100.970 C 432.592 100.246, 429.513 99.458, 426.622 99.219 C 422.098 98.843, 420.958 99.132, 418.455 101.285 M 451 116 C 451 125.350, 451.337 133, 451.750 133.001 C 452.163 133.001, 452.500 125.352, 452.500 116.002 C 452.500 106.652, 452.163 99.002, 451.750 99.001 C 451.337 99.001, 451 106.650, 451 116 M 469 116 C 469 127.723, 469.342 133, 470.103 133 C 470.876 133, 471.100 128.052, 470.853 116.428 C 470.555 102.417, 470.694 100.331, 471.753 102.928 C 472.442 104.618, 473.454 106, 474.003 106 C 474.551 106, 474.887 106.345, 474.750 106.767 C 474.381 107.899, 481.047 118, 482.163 118 C 482.688 118, 482.838 118.453, 482.496 119.007 C 482.153 119.561, 482.574 120.283, 483.431 120.612 C 484.288 120.941, 484.738 121.616, 484.431 122.112 C 484.124 122.608, 484.574 123.283, 485.431 123.612 C 486.288 123.941, 486.801 124.512, 486.572 124.883 C 486.344 125.253, 486.997 126.668, 488.024 128.028 C 489.502 129.984, 489.837 130.118, 489.626 128.670 C 489.479 127.664, 488.716 126.433, 487.930 125.935 C 487.143 125.438, 486.950 125.009, 487.500 124.984 C 488.050 124.958, 487.626 124.276, 486.559 123.468 C 485.491 122.661, 484.935 122, 485.323 122 C 485.711 122, 484.837 120.200, 483.381 118 C 481.925 115.800, 480.317 114, 479.808 114 C 479.299 114, 479.125 113.607, 479.422 113.126 C 479.719 112.645, 478.867 111.070, 477.529 109.626 C 476.191 108.182, 475.305 107, 475.562 107 C 475.818 107, 474.837 105.200, 473.381 103 C 471.925 100.800, 470.344 99, 469.867 99 C 469.390 99, 469 106.650, 469 116 M 491.147 115.405 C 491.354 125.030, 491.126 131.579, 490.595 131.250 C 490.098 130.943, 490.012 131.211, 490.405 131.845 C 492.444 135.146, 493 131.755, 493 116 C 493 104.277, 492.658 99, 491.897 99 C 491.124 99, 490.900 103.902, 491.147 115.405 M 509 116 L 509 133 519.500 133 C 526.269 133, 530 132.621, 530 131.934 C 530 131.230, 526.686 130.975, 520.250 131.184 L 510.500 131.500 510.500 116 L 510.500 100.500 520.250 100.816 C 526.686 101.025, 530 100.770, 530 100.066 C 530 99.379, 526.269 99, 519.500 99 L 509 99 509 116 M 543.923 101.923 C 537.871 107.975, 541.399 115.321, 550.966 116.590 C 557.926 117.513, 560.479 119.722, 560.578 124.906 C 560.621 127.152, 560.433 128.766, 560.159 128.493 C 559.886 128.219, 558.832 128.747, 557.818 129.664 C 555.407 131.846, 547.943 131.848, 544.614 129.667 C 541.685 127.747, 541 127.616, 541 128.974 C 541 131.162, 547.306 133.222, 552.648 132.779 C 558.592 132.286, 561.565 130.259, 562.485 126.070 C 563.869 119.765, 559.454 115.632, 550.500 114.849 C 546.011 114.457, 543 111.633, 543 107.815 C 543 101.665, 549.589 98.548, 556.492 101.432 C 561.148 103.378, 562.353 102.751, 558.143 100.574 C 553.097 97.965, 547.335 98.511, 543.923 101.923 M 577.043 101.803 C 570.896 107.950, 574.224 115.155, 583.820 116.475 C 593.276 117.776, 596.998 123.835, 591.508 128.992 C 588.467 131.849, 581.463 132.189, 577.614 129.667 C 574.685 127.747, 574 127.616, 574 128.974 C 574 131.162, 580.306 133.222, 585.648 132.779 C 591.592 132.286, 594.565 130.259, 595.485 126.070 C 596.869 119.765, 592.454 115.632, 583.500 114.849 C 579.011 114.457, 576 111.633, 576 107.815 C 576 101.665, 582.589 98.548, 589.492 101.432 C 593.695 103.188, 594.909 103, 592.464 100.970 C 591.592 100.246, 588.451 99.453, 585.483 99.207 C 580.520 98.795, 579.842 99.004, 577.043 101.803 M 627 116 L 627 133 637 133 C 643.428 133, 647 132.618, 647 131.931 C 647 131.226, 643.795 130.971, 637.579 131.181 L 628.158 131.500 628.190 116 L 628.222 100.500 637.611 100.819 C 643.804 101.029, 647 100.774, 647 100.069 C 647 99.382, 643.428 99, 637 99 L 627 99 627 116 M 657.938 100.884 C 658.561 102.048, 659.505 103, 660.035 103 C 660.566 103, 660.888 103.395, 660.750 103.878 C 660.612 104.362, 661.826 107.233, 663.446 110.260 L 666.393 115.763 661.242 124.382 C 658.409 129.122, 656.633 132.994, 657.296 132.988 C 657.958 132.981, 660.453 129.604, 662.840 125.484 C 665.226 121.364, 667.552 118.223, 668.008 118.505 C 668.465 118.787, 670.460 121.919, 672.443 125.465 C 675.987 131.801, 677.626 133.708, 678.650 132.683 C 678.934 132.399, 678.267 131.267, 677.167 130.167 C 676.067 129.067, 675.429 127.904, 675.750 127.583 C 676.071 127.262, 675.808 127, 675.167 127 C 674.525 127, 674.093 126.662, 674.206 126.250 C 674.525 125.086, 671.056 119, 670.074 119 C 668.091 119, 669.900 113.074, 673.819 106.732 C 678.283 99.507, 678.498 99, 677.095 99 C 676.129 99, 671.316 106.716, 670.806 109.083 C 670.638 109.862, 669.729 111.076, 668.787 111.781 C 667.398 112.819, 667.268 113.578, 668.099 115.781 C 668.767 117.550, 668.775 118.151, 668.123 117.500 C 667.571 116.950, 666.902 115.287, 666.636 113.804 C 666.014 110.339, 659.866 99.789, 658.132 99.211 C 657.080 98.860, 657.040 99.206, 657.938 100.884 M 692.525 102.275 L 689 105.800 689 116 L 689 126.200 692.400 129.600 C 695.141 132.341, 696.580 133, 699.829 133 C 702.158 133, 704.520 132.337, 705.429 131.429 C 706.293 130.564, 707.015 130.227, 707.033 130.679 C 707.052 131.130, 707.952 130.438, 709.033 129.139 C 711.185 126.557, 711.624 124, 709.917 124 C 709.321 124, 709.016 124.547, 709.238 125.215 C 709.710 126.631, 705.479 130.420, 702.323 131.407 C 699.525 132.283, 693.483 129.772, 692.080 127.150 C 691.486 126.040, 691.003 120.939, 691.007 115.816 C 691.015 103.398, 692.815 100.560, 700.642 100.618 C 704.103 100.643, 709.899 104.802, 709.238 106.785 C 709.016 107.453, 709.321 108, 709.917 108 C 711.732 108, 711.130 105.263, 708.691 102.427 C 706.902 100.347, 705.219 99.631, 701.216 99.247 C 696.350 98.779, 695.845 98.955, 692.525 102.275 M 726 116 L 726 133 736 133 C 742.428 133, 746 132.618, 746 131.931 C 746 131.227, 742.845 130.971, 736.750 131.181 L 727.500 131.500 727.500 116 L 727.500 100.500 736.750 100.819 C 742.845 101.029, 746 100.773, 746 100.069 C 746 99.382, 742.428 99, 736 99 L 726 99 726 116 M 760 116 L 760 133 770 133 C 776.428 133, 780 132.618, 780 131.931 C 780 131.227, 776.845 130.971, 770.750 131.181 L 761.500 131.500 761.797 115.250 C 761.995 104.412, 761.745 99, 761.047 99 C 760.359 99, 760 104.828, 760 116 M 792.500 116 L 792.500 133 802.750 133 C 808.917 133, 813 132.602, 813 132 C 813 131.404, 809.167 131, 803.500 131 L 794 131 794 115 C 794 106.200, 793.663 99, 793.250 99 C 792.837 99, 792.500 106.650, 792.500 116 M 825 116 L 825 133 835 133 C 841 133, 845 132.600, 845 132 C 845 131.407, 841.333 131, 836 131 L 827 131 826.927 123.750 C 826.886 119.763, 826.774 112.900, 826.677 108.500 L 826.500 100.500 835.750 100.819 C 841.845 101.029, 845 100.773, 845 100.069 C 845 99.382, 841.428 99, 835 99 L 825 99 825 116 M 859 116 C 859 127.568, 859.347 133, 860.086 133 C 860.838 133, 861.069 127.941, 860.836 116.594 C 860.651 107.571, 860.837 100.398, 861.250 100.653 C 861.663 100.909, 862 101.771, 862 102.569 C 862 104.356, 872.972 121, 874.150 121 C 874.618 121, 874.887 121.345, 874.750 121.767 C 874.387 122.879, 881.038 133, 882.131 133 C 882.663 133, 883.010 125.794, 882.950 116 C 882.883 105.116, 882.477 99, 881.820 99 C 881.146 99, 880.916 104.639, 881.147 115.430 C 881.380 126.270, 881.173 131.289, 880.539 130.180 C 880.010 129.256, 879.498 128.007, 879.400 127.405 C 879.090 125.493, 860.955 99, 859.956 99 C 859.385 99, 859 105.853, 859 116 M 901.818 101.872 C 898.697 104.660, 898.593 105.016, 898.243 114.122 C 897.717 127.838, 900.949 132.948, 910.173 132.985 C 914.240 133.002, 919.387 129.453, 920.287 126.012 C 921.073 123.004, 919.265 123.586, 917.556 126.892 C 914.656 132.500, 906.838 132.974, 902.489 127.805 C 900.245 125.137, 900 123.971, 900 115.939 C 900 107.585, 900.175 106.836, 902.814 103.882 C 904.772 101.691, 906.523 100.736, 908.564 100.746 C 914.412 100.774, 915.824 101.407, 917.397 104.706 C 919.116 108.312, 921.128 109.204, 920.287 105.988 C 919.997 104.882, 918.430 102.857, 916.804 101.488 C 912.493 97.861, 906.123 98.024, 901.818 101.872 M 935.991 107.248 L 936.482 115.500 936.785 108.250 L 937.088 101 946.544 101 C 952.181 101, 956 100.596, 956 100 C 956 99.399, 951.915 98.999, 945.750 98.998 L 935.500 98.995 935.991 107.248 M 343.500 116 L 343.500 131.500 351.500 130.790 C 355.900 130.399, 359.986 129.987, 360.579 129.873 C 361.172 129.760, 361.753 127.578, 361.870 125.025 C 362.165 118.554, 360.027 116.816, 350.713 115.958 L 343.500 115.293 350.115 115.147 C 357.956 114.973, 362 112.582, 362 108.119 C 362 102.923, 359.942 101.550, 351.331 101 L 343.500 100.500 343.500 116 M 511.500 116 C 511.840 116.550, 515.466 117, 519.559 117 C 523.853 117, 527 116.577, 527 116 C 527 115.416, 523.647 115, 518.941 115 C 513.823 115, 511.108 115.365, 511.500 116 M 629 116 C 629 116.578, 632.167 117, 636.500 117 C 640.833 117, 644 116.578, 644 116 C 644 115.422, 640.833 115, 636.500 115 C 632.167 115, 629 115.422, 629 116 M 728 116 C 728 116.583, 731.333 117, 736 117 C 740.667 117, 744 116.583, 744 116 C 744 115.417, 740.667 115, 736 115 C 731.333 115, 728 115.417, 728 116 M 827 116 C 827 116.583, 830.333 117, 835 117 C 839.667 117, 843 116.583, 843 116 C 843 115.417, 839.667 115, 835 115 C 830.333 115, 827 115.417, 827 116 M 937.075 116.410 C 936.347 117.287, 936.037 120.405, 936.256 124.660 L 936.608 131.500 936.804 124.250 L 937 117 945 117 C 949.667 117, 953 116.583, 953 116 C 953 114.369, 938.458 114.744, 937.075 116.410 M 936.500 132 C 935.209 132.555, 938.313 132.884, 945.250 132.930 C 951.797 132.973, 956 132.609, 956 132 C 956 130.773, 939.355 130.773, 936.500 132 M 912.224 159.469 C 902.195 162.601, 895.328 169.375, 893.428 178.012 C 890.529 191.185, 895.537 202.742, 906.347 207.823 C 910.391 209.724, 913.400 210.408, 929.500 213.084 C 938.777 214.625, 943.490 217.315, 946 222.500 C 949.415 229.554, 948.380 236.850, 943.186 242.339 C 939.604 246.125, 936.566 247.609, 929.857 248.849 C 919.891 250.692, 904.513 246.938, 900.065 241.578 C 898.126 239.241, 895.708 239.651, 892.660 242.833 L 889.946 245.665 893.223 248.414 C 901.022 254.957, 910.422 257.976, 923 257.977 C 935.229 257.979, 944.592 254.789, 950.302 248.676 C 962.004 236.150, 959.051 215.214, 944.533 207.771 C 942.350 206.653, 934.512 204.676, 927.113 203.379 C 919.714 202.081, 912.049 200.188, 910.080 199.172 C 903.147 195.592, 900.103 185.784, 903.444 177.787 C 904.756 174.649, 910.467 167.550, 911.197 168.151 C 911.364 168.288, 913.648 167.798, 916.274 167.063 C 924.979 164.626, 938.669 167.522, 944.546 173.044 C 946.608 174.980, 946.633 174.974, 949.833 171.672 C 953.470 167.920, 953.328 167.624, 945.725 163.068 C 937.644 158.226, 921.692 156.513, 912.224 159.469 M 378.531 160.250 C 378.308 160.938, 376.536 165.830, 374.594 171.122 C 372.652 176.414, 370.343 182.939, 369.463 185.622 C 368.583 188.305, 367.039 192.311, 366.033 194.524 C 365.026 196.737, 364.044 199.662, 363.851 201.024 C 363.658 202.386, 363.227 203.725, 362.893 204 C 362.559 204.275, 360.825 208.550, 359.041 213.500 C 350.188 238.053, 347.762 244.663, 346.925 246.500 C 346.424 247.600, 345.356 250.412, 344.551 252.750 L 343.089 257 348.343 257 C 353.374 257, 353.646 256.861, 354.725 253.750 C 355.345 251.963, 357.069 247.012, 358.556 242.750 L 361.259 235 383.460 235 L 405.660 235 408.975 244.926 C 410.799 250.385, 412.605 255.361, 412.990 255.984 C 413.404 256.654, 415.717 256.990, 418.660 256.808 L 423.631 256.500 419.931 246.500 C 417.897 241, 414.418 231.550, 412.201 225.500 C 409.984 219.450, 404.699 205.050, 400.457 193.500 C 389.480 163.609, 388 159.540, 388 159.254 C 388 159.114, 385.961 159, 383.469 159 C 380.727 159, 378.777 159.494, 378.531 160.250 M 442 159.895 C 442 160.898, 453.683 207.194, 460.700 234 C 463.220 243.625, 465.494 252.738, 465.754 254.250 C 466.194 256.806, 466.568 257, 471.071 257 L 475.915 257 477.963 249.750 C 479.089 245.762, 480.403 241.150, 480.884 239.500 C 481.364 237.850, 484.093 227.950, 486.948 217.500 C 489.804 207.050, 492.587 196.925, 493.134 195 C 493.681 193.075, 494.256 190.825, 494.413 190 C 494.570 189.175, 494.957 187.825, 495.273 187 C 495.589 186.175, 496.402 183.707, 497.079 181.514 C 498.562 176.715, 498.510 176.610, 503.019 193.500 C 504.781 200.100, 507.071 208.425, 508.108 212 C 510.918 221.689, 517.546 245.756, 519.056 251.750 L 520.378 257 525.052 257 L 529.726 257 531.329 251.750 C 532.698 247.270, 536.488 232.530, 551.451 173.500 C 555.606 157.111, 555.858 159, 549.519 159 C 545.259 159, 544 159.345, 544 160.513 C 544 161.759, 540.413 177.218, 534.954 199.500 C 534.415 201.700, 533.855 204.400, 533.708 205.500 C 533.562 206.600, 533.189 207.950, 532.879 208.500 C 532.569 209.050, 530.797 215.912, 528.941 223.750 C 527.085 231.588, 525.312 238, 525.001 238 C 524.690 238, 520.057 221.912, 514.706 202.250 C 509.355 182.588, 504.504 164.789, 503.927 162.698 C 502.886 158.929, 502.836 158.898, 498.267 159.198 C 494.330 159.456, 493.551 159.865, 492.936 162 C 492.540 163.375, 490.759 169.900, 488.980 176.500 C 487.200 183.100, 484.509 193, 483 198.500 C 481.491 204, 478.803 213.900, 477.026 220.500 C 473.502 233.592, 471.947 238.280, 471.332 237.666 C 471.113 237.446, 470.284 234.619, 469.491 231.384 C 467.680 224.002, 459.439 189.685, 457.391 181 C 456.548 177.425, 455.598 173.825, 455.279 173 C 454.960 172.175, 454.548 170.600, 454.363 169.500 C 454.177 168.400, 453.511 165.588, 452.883 163.250 L 451.740 159 446.870 159 C 444.192 159, 442 159.403, 442 159.895 M 608.372 160.750 C 608.062 161.713, 606.529 165.875, 604.966 170 C 600.290 182.345, 595.166 196.429, 593.463 201.622 C 592.583 204.305, 590.994 208.408, 589.931 210.739 C 588.869 213.071, 588 215.265, 588 215.616 C 588 216.313, 581.316 234.651, 577.290 245 C 575.899 248.575, 574.396 252.738, 573.950 254.250 L 573.140 257 578.353 257 L 583.567 257 587.192 246.250 L 590.816 235.500 612.926 235.231 L 635.035 234.962 636.146 237.731 C 636.757 239.254, 638.515 244.100, 640.052 248.500 L 642.846 256.500 648.374 256.798 L 653.902 257.097 651.035 249.798 C 649.457 245.784, 646.300 237.325, 644.019 231 C 641.738 224.675, 639 217.137, 637.936 214.250 C 636.871 211.363, 635.145 206.637, 634.099 203.750 C 633.054 200.863, 630.840 194.900, 629.180 190.500 C 627.520 186.100, 624.232 177.213, 621.874 170.750 L 617.587 159 613.262 159 C 610.025 159, 608.795 159.440, 608.372 160.750 M 685 207.921 L 685 257 689.480 257 L 693.961 257 694.230 235.250 L 694.500 213.500 706.728 213.219 L 718.955 212.939 725.595 226.219 C 729.247 233.524, 732.632 239.650, 733.118 239.833 C 733.603 240.017, 733.995 240.692, 733.989 241.333 C 733.983 241.975, 735.670 245.762, 737.739 249.748 L 741.500 256.996 747.326 256.998 L 753.153 257 745.370 242.068 C 741.090 233.856, 737.161 227.401, 736.639 227.723 C 736.118 228.045, 736.002 227.806, 736.383 227.190 C 736.763 226.575, 735.440 223.098, 733.443 219.463 C 731.446 215.829, 729.967 212.742, 730.156 212.605 C 730.345 212.467, 732.687 211.544, 735.360 210.553 C 755.916 202.930, 757.194 171.710, 737.352 161.923 C 732.720 159.638, 731.422 159.514, 708.750 159.185 L 685 158.841 685 207.921 M 790 208 L 790 257.164 812.750 256.832 C 834.250 256.518, 835.762 256.371, 840.270 254.151 C 844.824 251.909, 853.510 244.176, 852.551 243.218 C 852.300 242.967, 852.732 242.125, 853.510 241.347 C 856.504 238.353, 857.352 232.296, 857.762 211 C 858.194 188.557, 857.491 181.907, 853.944 174.913 C 851.411 169.916, 845.819 164.582, 840.229 161.829 C 835.772 159.634, 834.193 159.481, 812.750 159.168 L 790 158.836 790 208 M 694.493 168.158 C 694.195 168.935, 694.074 177.429, 694.225 187.035 L 694.500 204.500 710.500 204.500 C 719.300 204.500, 727.729 204.156, 729.232 203.736 C 732.670 202.773, 738.512 197.700, 740.235 194.180 C 744.499 185.471, 740.475 173.981, 731.500 169.235 C 727.231 166.978, 695.302 166.048, 694.493 168.158 M 801.238 167.752 C 800.251 168.441, 800.034 177.316, 800.238 208.566 L 800.500 248.500 812.500 248.499 C 825.999 248.499, 833.024 247.945, 834.500 246.765 C 835.050 246.325, 837.075 244.960, 839 243.731 C 844.708 240.088, 847.250 233.598, 848.378 219.790 C 849.721 203.348, 848.260 186.127, 844.957 179.461 C 843.497 176.514, 841.081 173.597, 839 172.269 C 837.075 171.040, 835.032 169.689, 834.461 169.267 C 832.744 167.999, 831.088 167.821, 816.500 167.336 C 808.800 167.081, 801.932 167.267, 801.238 167.752 M 382.200 176.674 C 379.421 184.162, 372.710 202.781, 371.990 205 C 371.544 206.375, 369.788 211.282, 368.089 215.904 C 366.390 220.526, 365 224.689, 365 225.154 C 365 225.619, 373.377 226, 383.617 226 C 400.878 226, 402.195 225.873, 401.713 224.250 C 401.271 222.766, 390.354 191.475, 388.716 187 C 388.414 186.175, 387.380 183.250, 386.418 180.500 C 384.109 173.898, 383.451 173.302, 382.200 176.674 M 611.963 176.500 C 611.316 178.150, 610.429 180.625, 609.992 182 C 609.556 183.375, 607.331 189.675, 605.048 196 C 602.765 202.325, 599.748 210.875, 598.344 215 C 596.941 219.125, 595.373 223.287, 594.861 224.250 C 593.989 225.888, 595.148 226, 612.965 226 C 623.434 226, 632 225.811, 632 225.580 C 632 225.349, 630.618 221.244, 628.929 216.458 C 627.239 211.672, 625.794 206.911, 625.716 205.878 C 625.638 204.845, 625.273 204, 624.904 204 C 624.535 204, 624.002 202.988, 623.719 201.750 C 623.023 198.700, 615.241 177.252, 614.074 175.168 C 613.279 173.747, 612.966 173.945, 611.963 176.500 M 203 231.070 C 197.775 231.507, 187.200 232.372, 179.500 232.993 C 157.266 234.785, 137.160 237.204, 120 240.150 C 93.026 244.782, 58.206 252.159, 55.411 253.834 C 52.771 255.415, 62.635 279.142, 71.210 291.838 C 77.527 301.191, 79.086 303.086, 86.998 311.023 C 94.823 318.874, 98.372 321.782, 107.312 327.667 C 129.024 341.958, 154.756 348.954, 180.894 347.670 C 214.121 346.038, 240.939 334.031, 264.700 310.147 C 270.365 304.453, 275 299.422, 275 298.968 C 275 298.514, 275.577 297.548, 276.283 296.821 C 283.617 289.267, 294.226 265.830, 297.782 249.327 L 299.759 240.154 292.129 238.108 C 268.743 231.836, 230.211 228.793, 203 231.070 M 340 290 C 340 290.665, 443.667 291, 649 291 C 854.333 291, 958 290.665, 958 290 C 958 289.335, 854.333 289, 649 289 C 443.667 289, 340 289.335, 340 290 M 378.270 320.777 C 373.881 321.479, 372 325.499, 372 334.180 C 372 341.246, 372.262 342.353, 374.455 344.545 C 377.076 347.167, 382.516 347.865, 385.961 346.021 C 389.867 343.930, 391.350 332.166, 388.551 325.468 C 387.754 323.561, 386.964 322, 386.794 322 C 386.625 322, 385.140 321.645, 383.493 321.210 C 381.847 320.776, 379.496 320.581, 378.270 320.777 M 585.273 321.209 C 580.867 322.351, 579.691 325.099, 579.696 334.248 C 579.699 341.035, 580.002 342.373, 582.024 344.526 C 585.392 348.111, 592.046 348.028, 594.927 344.365 C 596.067 342.916, 596.995 341.228, 596.989 340.615 C 596.983 340.002, 595.825 340.962, 594.416 342.750 C 592.418 345.286, 591.102 346, 588.428 346 C 582.629 346, 581 343.368, 581 334 C 581 324.632, 582.629 322, 588.428 322 C 591.102 322, 592.418 322.714, 594.416 325.250 C 595.825 327.038, 596.983 327.998, 596.989 327.385 C 597.009 325.387, 593.101 321.252, 590.772 320.807 C 589.523 320.568, 587.048 320.749, 585.273 321.209 M 766.295 321.180 C 761.338 322.500, 760 325.283, 760 334.268 C 760 341.240, 760.267 342.358, 762.455 344.545 C 764.896 346.987, 769.758 347.797, 773.455 346.379 C 775.375 345.642, 778.533 340, 777.026 340 C 776.462 340, 776 340.649, 776 341.443 C 776 343.586, 771.990 346, 768.432 346 C 763.187 346, 761.500 343.080, 761.500 334 C 761.500 327.743, 761.875 325.796, 763.405 324.105 C 766.923 320.218, 776 322.181, 776 326.829 C 776 327.473, 776.462 328, 777.026 328 C 777.618 328, 777.420 326.779, 776.556 325.108 C 774.733 321.583, 770.651 320.020, 766.295 321.180 M 341.201 334.250 L 341.402 347.500 341.951 335.500 L 342.500 323.500 350.404 335.250 C 354.752 341.712, 358.689 347, 359.154 347 C 359.619 347, 359.908 341.038, 359.796 333.750 L 359.592 320.500 359 333.500 C 358.675 340.650, 358.316 345.988, 358.204 345.363 C 357.860 343.444, 342.824 321, 341.883 321 C 341.397 321, 341.091 326.962, 341.201 334.250 M 402.193 334.250 C 402.299 341.538, 402.546 344.663, 402.742 341.195 L 403.098 334.890 407.225 335.195 C 411.124 335.483, 411.521 335.816, 414.426 341.235 C 416.117 344.388, 417.862 346.976, 418.305 346.985 C 418.748 346.993, 417.623 344.188, 415.805 340.750 C 412.521 334.539, 412.470 334.498, 407.750 334.195 L 403 333.890 403 327.945 L 403 322 408.943 322 C 413.951 322, 415.132 322.350, 416.443 324.223 C 418.675 327.409, 418.374 329.561, 415.365 331.927 C 413.700 333.237, 413.275 334, 414.210 334 C 416.470 334, 419 330.657, 419 327.671 C 419 322.984, 415.877 321, 408.500 321 L 402 321 402.193 334.250 M 430.721 321.758 L 434.941 322.112 435.253 334.806 L 435.565 347.500 435.783 334.805 L 436 322.110 440.750 321.755 C 443.363 321.560, 441.225 321.401, 436 321.403 C 430.775 321.404, 428.399 321.564, 430.721 321.758 M 454 334 C 454 342, 454.385 347, 455 347 C 455.564 347, 456 344.167, 456 340.500 L 456 334 463.454 334 L 470.909 334 471.258 340.750 C 471.451 344.462, 471.610 341.425, 471.611 334 C 471.613 326.575, 471.455 323.313, 471.260 326.750 L 470.905 333 463.452 333 L 456 333 456 327 C 456 323.667, 455.556 321, 455 321 C 454.385 321, 454 326, 454 334 M 498.596 331.750 C 500.474 337.663, 502.282 343.512, 502.614 344.750 C 502.945 345.988, 503.645 347, 504.167 347 C 504.690 347, 504.864 346.588, 504.553 346.085 C 504.242 345.582, 504.373 345.020, 504.844 344.835 C 505.917 344.416, 513.394 322.061, 512.696 321.362 C 512.414 321.081, 510.472 326.053, 508.379 332.412 C 506.286 338.771, 504.269 343.642, 503.896 343.237 C 503.524 342.832, 501.748 337.663, 499.951 331.750 C 498.153 325.837, 496.345 321, 495.932 321 C 495.519 321, 496.718 325.837, 498.596 331.750 M 527.592 321.851 C 527.244 322.415, 525.433 327.067, 523.569 332.188 C 521.704 337.310, 519.700 342.738, 519.114 344.250 C 518.529 345.762, 518.390 347, 518.806 347 C 519.221 347, 520.071 345.650, 520.694 344 C 521.795 341.082, 522.007 341, 528.465 341 C 534.943 341, 535.129 341.073, 536.150 344 C 536.725 345.650, 537.590 347, 538.073 347 C 538.556 347, 538.471 345.762, 537.886 344.250 C 537.300 342.738, 535.266 337.227, 533.365 332.004 C 529.755 322.086, 528.649 320.141, 527.592 321.851 M 548 334 C 548 342.654, 548.362 347, 549.082 347 C 549.817 347, 550.057 343.011, 549.832 334.540 L 549.500 322.080 557.500 334.498 C 561.900 341.328, 566.063 346.935, 566.750 346.958 C 567.688 346.990, 568 343.756, 568 334 C 568 325.519, 567.632 321, 566.941 321 C 566.238 321, 565.986 325.029, 566.191 333.002 C 566.361 339.603, 566.396 345.003, 566.270 345.002 C 566.143 345.001, 562.422 339.600, 558 333 C 553.578 326.400, 549.519 321, 548.980 321 C 548.390 321, 548 326.175, 548 334 M 610.039 323.189 C 608.313 325.041, 608 326.704, 608 334.014 C 608 341.750, 608.242 342.878, 610.314 344.826 C 613.561 347.876, 619.895 347.805, 622.826 344.686 C 624.707 342.684, 625 341.222, 625 333.860 C 625 326.256, 624.753 325.117, 622.686 323.174 C 619.489 320.171, 612.843 320.179, 610.039 323.189 M 637.183 331.295 C 637.009 341.544, 637.124 342.215, 639.455 344.545 C 641.261 346.352, 642.990 347, 646 347 C 649.010 347, 650.739 346.352, 652.545 344.545 C 654.874 342.217, 654.991 341.536, 654.830 331.295 L 654.659 320.500 654.080 331.146 C 653.401 343.616, 652.104 346, 646 346 C 639.889 346, 638.597 343.622, 637.933 331.150 L 637.366 320.500 637.183 331.295 M 664.191 322.086 C 664.484 322.864, 666.458 328.788, 668.579 335.250 C 670.700 341.712, 672.750 347, 673.135 347 C 674.096 347, 682.350 322.017, 681.627 321.294 C 681.308 320.975, 680.843 321.341, 680.593 322.107 C 680.343 322.873, 678.662 328.113, 676.857 333.750 C 675.052 339.387, 673.333 343.993, 673.037 343.984 C 672.742 343.976, 670.951 338.999, 669.059 332.925 C 667.166 326.851, 665.177 321.609, 664.639 321.277 C 664.100 320.944, 663.899 321.308, 664.191 322.086 M 692 334 L 692 347 700.250 346.799 L 708.500 346.598 700.750 346.257 L 693 345.916 693 340.004 L 693 334.091 699.750 333.742 L 706.500 333.392 699.750 333.196 L 693 333 693 327.542 L 693 322.084 700.750 321.743 L 708.500 321.402 700.250 321.201 L 692 321 692 334 M 718 334 C 718 342, 718.385 347, 719 347 C 719.556 347, 720 344.333, 720 341 L 720 335 723.986 335 C 727.854 335, 728.061 335.177, 731 341 C 732.666 344.300, 734.515 347, 735.110 347 C 735.704 347, 734.798 344.532, 733.095 341.515 C 729.641 335.393, 729.334 334, 731.443 334 C 733.368 334, 736 330.116, 736 327.277 C 736 322.873, 732.717 321, 725 321 L 718 321 718 334 M 789.518 326.251 C 789.549 329.140, 789.922 332.065, 790.346 332.751 C 790.771 333.438, 790.712 334, 790.217 334 C 789.721 334, 789.221 336.925, 789.105 340.500 C 788.975 344.517, 789.296 347, 789.947 347 C 790.576 347, 791 344.384, 791 340.500 L 791 334 798.454 334 L 805.909 334 806.258 340.750 C 806.451 344.462, 806.610 341.425, 806.611 334 C 806.613 326.575, 806.455 323.313, 806.260 326.750 L 805.905 333 798.452 333 L 791 333 791 327 C 791 323.700, 790.654 321, 790.231 321 C 789.808 321, 789.487 323.363, 789.518 326.251 M 821.554 333.620 C 818.998 340.561, 817.150 346.484, 817.449 346.782 C 817.747 347.080, 818.487 345.901, 819.093 344.162 C 820.185 341.030, 820.261 341, 827 341 C 833.739 341, 833.815 341.030, 834.907 344.162 C 835.513 345.901, 836.242 347.091, 836.527 346.806 C 837.244 346.089, 827.975 321, 826.994 321 C 826.558 321, 824.110 326.679, 821.554 333.620 M 847.199 334.250 L 847.399 347.500 847.949 336 L 848.500 324.500 850.861 329.500 C 852.159 332.250, 854.104 336.439, 855.183 338.809 C 856.263 341.179, 857.648 342.951, 858.263 342.746 C 858.877 342.541, 861.303 337.902, 863.654 332.437 L 867.929 322.500 868.248 335 L 868.568 347.500 868.784 334.250 C 868.903 326.962, 868.618 321, 868.152 321 C 867.685 321, 865.262 325.808, 862.767 331.683 L 858.230 342.367 854.687 334.699 C 852.739 330.482, 850.855 326.118, 850.500 325.002 C 850.146 323.885, 849.444 323.226, 848.939 323.537 C 848.435 323.849, 848.291 323.406, 848.618 322.552 C 848.946 321.698, 848.716 321, 848.107 321 C 847.343 321, 847.062 325.109, 847.199 334.250 M 882 334 L 882 347 888.750 346.985 C 892.462 346.976, 895.995 346.639, 896.600 346.235 C 900.295 343.768, 900.483 336.864, 896.908 334.951 C 895.104 333.985, 895.107 333.893, 897.023 331.977 C 899.501 329.499, 899.576 324.831, 897.171 322.655 C 895.854 321.463, 893.476 321, 888.671 321 L 882 321 882 334 M 912.074 333.029 C 912.079 339.644, 911.812 345.494, 911.482 346.029 C 911.109 346.633, 914.021 346.925, 919.191 346.801 L 927.500 346.603 920.250 346.257 L 913 345.912 913 340.004 L 913 334.095 919.250 333.740 L 925.500 333.385 919.250 333.193 L 913 333 913 327.544 L 913 322.088 920.250 321.743 L 927.500 321.397 919.783 321.199 L 912.065 321 912.074 333.029 M 938 334 C 938 342, 938.385 347, 939 347 C 939.556 347, 940 344.333, 940 341 L 940 335 943.986 335 C 947.861 335, 948.056 335.169, 951.051 341.101 C 952.745 344.457, 954.348 346.985, 954.613 346.720 C 954.878 346.455, 953.847 343.693, 952.321 340.581 C 949.375 334.575, 947.474 333.410, 941.944 334.221 C 939.630 334.561, 939.042 334.332, 939.457 333.251 C 939.756 332.473, 940 329.623, 940 326.918 L 940 322 945.309 322 C 952.124 322, 954.261 323.510, 953.829 328.021 C 953.592 330.492, 952.799 331.807, 951 332.712 C 948.677 333.881, 948.651 333.972, 950.628 333.985 C 953.581 334.006, 955.400 331.454, 955.400 327.289 C 955.400 322.362, 953.106 321, 944.809 321 L 938 321 938 334 M 375.073 324.635 C 373.442 326.708, 373 328.705, 373 334 C 373 342.423, 375.257 346, 380.573 346 C 386.371 346, 388 343.368, 388 334 C 388 327.333, 387.667 325.667, 386 324 C 383.022 321.022, 377.670 321.333, 375.073 324.635 M 611 324 C 609.341 325.659, 609 327.333, 609 333.826 C 609 340.713, 609.278 341.912, 611.314 343.826 C 614.389 346.714, 619.039 346.652, 621.826 343.686 C 623.659 341.734, 624 340.195, 624 333.874 C 624 327.712, 623.637 325.988, 621.961 324.189 C 619.313 321.346, 613.750 321.250, 611 324 M 720 328 L 720 334 725.045 334 C 733.210 334, 737.060 328.631, 732.755 323.250 C 732.159 322.505, 729.380 322, 725.878 322 L 720 322 720 328 M 883 334 L 883 346 888.845 346 C 895.391 346, 898 344.231, 898 339.794 C 898 336.206, 895.566 334.594, 889.096 333.897 L 883.500 333.294 889.095 333.147 C 895.121 332.989, 898 331.107, 898 327.326 C 898 323.794, 894.858 322, 888.671 322 L 883 322 883 334 M 528 323.142 C 528 323.403, 526.655 327.303, 525.011 331.809 L 522.021 340 528.500 340 L 534.979 340 532.004 331.848 C 529.373 324.639, 528 321.654, 528 323.142 M 823.958 330.250 C 822.619 334.238, 821.372 338.063, 821.188 338.750 C 820.947 339.651, 822.577 340, 827.034 340 C 831.564 340, 833.087 339.666, 832.740 338.750 C 832.479 338.063, 831.217 334.238, 829.936 330.250 C 828.655 326.262, 827.333 323, 827 323 C 826.667 323, 825.298 326.262, 823.958 330.250" stroke="none" fill="#006495" fill-rule="evenodd"/><path d="M 150.491 100.009 C 140.004 102.339, 128.423 106.264, 120.707 110.102 C 113.626 113.624, 100.032 122.184, 100.013 123.133 C 100.006 123.482, 100.787 124.008, 101.750 124.303 C 102.713 124.598, 106.650 125.812, 110.500 127.002 C 126.929 132.078, 137.435 134.734, 155.500 138.377 C 172.615 141.827, 175.751 142.273, 202.170 145.001 C 216.582 146.490, 242.096 146.209, 252 144.453 C 256.675 143.624, 262.423 142.673, 264.773 142.340 C 267.123 142.007, 269.253 141.399, 269.507 140.989 C 270.357 139.613, 254.782 124.760, 248.750 121.194 C 247.238 120.300, 246 119.216, 246 118.784 C 246 118.353, 245.519 118, 244.930 118 C 244.342 118, 241.979 116.745, 239.680 115.211 C 228.790 107.945, 212.190 101.850, 195.566 99.013 C 185.944 97.370, 159.759 97.949, 150.491 100.009" stroke="none" fill="#fec223" fill-rule="evenodd"/><path d="M 56.732 182.602 C 56.329 183.004, 56 184.357, 56 185.608 C 56 186.859, 55.550 188.160, 55 188.500 C 54.450 188.840, 54 190.471, 54 192.125 C 54 193.778, 53.601 195.889, 53.113 196.816 C 51.836 199.241, 50.895 207.701, 50.327 221.872 L 49.832 234.244 56.166 233.617 C 64.987 232.745, 77.993 231.272, 87.750 230.041 C 92.287 229.468, 99.713 228.537, 104.250 227.971 C 111.940 227.012, 116.512 226.413, 134.500 224.008 C 141.895 223.019, 155.048 221.698, 176.500 219.788 C 198.434 217.835, 235.319 218.713, 252.386 221.595 C 257.472 222.453, 256.446 220.776, 250.800 219.003 C 248.435 218.260, 246.073 217.280, 245.550 216.826 C 245.028 216.372, 243.592 216, 242.359 216 C 241.126 216, 239.840 215.550, 239.500 215 C 239.160 214.450, 237.810 214, 236.500 214 C 235.190 214, 233.840 213.550, 233.500 213 C 233.160 212.450, 231.810 212, 230.500 212 C 229.190 212, 227.840 211.550, 227.500 211 C 227.160 210.450, 226.002 210, 224.927 210 C 223.852 210, 222.191 209.602, 221.236 209.115 C 218.283 207.610, 206.343 204, 204.319 204 C 203.263 204, 201.965 203.565, 201.434 203.034 C 200.902 202.502, 199.012 201.957, 197.234 201.821 C 195.455 201.685, 194 201.270, 194 200.897 C 194 200.524, 192.537 199.977, 190.750 199.682 C 188.963 199.386, 185.475 198.634, 183 198.010 C 176.522 196.376, 162.281 193.532, 152.500 191.919 C 135.803 189.166, 107.305 185.618, 93 184.512 C 88.875 184.193, 83.025 183.681, 80 183.375 C 69.127 182.272, 57.449 181.884, 56.732 182.602" stroke="none" fill="#00c1f0" fill-rule="evenodd"/><path d="M 341.411 116 C 341.411 125.625, 341.561 129.563, 341.745 124.750 C 341.928 119.937, 341.928 112.062, 341.745 107.250 C 341.561 102.438, 341.411 106.375, 341.411 116 M 493.411 116 C 493.411 125.625, 493.561 129.563, 493.745 124.750 C 493.928 119.937, 493.928 112.062, 493.745 107.250 C 493.561 102.438, 493.411 106.375, 493.411 116 M 759.411 116 C 759.411 125.625, 759.561 129.563, 759.745 124.750 C 759.928 119.937, 759.928 112.062, 759.745 107.250 C 759.561 102.438, 759.411 106.375, 759.411 116 M 858.411 116 C 858.411 125.625, 858.561 129.563, 858.745 124.750 C 858.928 119.937, 858.928 112.062, 858.745 107.250 C 858.561 102.438, 858.411 106.375, 858.411 116 M 399.378 111 C 399.378 117.325, 399.541 119.912, 399.739 116.750 C 399.937 113.587, 399.937 108.412, 399.739 105.250 C 399.541 102.087, 399.378 104.675, 399.378 111 M 468.407 116 C 468.407 125.075, 468.559 128.787, 468.744 124.250 C 468.929 119.713, 468.929 112.287, 468.744 107.750 C 468.559 103.213, 468.407 106.925, 468.407 116 M 728.336 108 C 728.336 112.125, 728.513 113.813, 728.728 111.750 C 728.944 109.688, 728.944 106.313, 728.728 104.250 C 728.513 102.188, 728.336 103.875, 728.336 108 M 688.343 115.500 C 688.346 119.900, 688.522 121.576, 688.733 119.224 C 688.945 116.872, 688.942 113.272, 688.727 111.224 C 688.512 109.176, 688.339 111.100, 688.343 115.500 M 900.336 116 C 900.336 120.125, 900.513 121.813, 900.728 119.750 C 900.944 117.688, 900.944 114.313, 900.728 112.250 C 900.513 110.188, 900.336 111.875, 900.336 116 M 346.768 114.725 C 348.565 114.947, 351.265 114.943, 352.768 114.715 C 354.271 114.486, 352.800 114.304, 349.500 114.310 C 346.200 114.315, 344.971 114.502, 346.768 114.725 M 515.776 114.733 C 518.128 114.945, 521.728 114.942, 523.776 114.727 C 525.824 114.512, 523.900 114.339, 519.500 114.343 C 515.100 114.346, 513.424 114.522, 515.776 114.733 M 636.472 114.722 C 640.330 114.932, 643.826 115.637, 644.298 116.301 C 644.900 117.146, 645.032 117.057, 644.746 116 C 644.434 114.847, 642.621 114.482, 636.920 114.421 L 629.500 114.343 636.472 114.722 M 733.250 114.728 C 735.313 114.944, 738.688 114.944, 740.750 114.728 C 742.813 114.513, 741.125 114.336, 737 114.336 C 732.875 114.336, 731.188 114.513, 733.250 114.728 M 833.750 114.723 C 835.538 114.945, 838.462 114.945, 840.250 114.723 C 842.038 114.502, 840.575 114.320, 837 114.320 C 833.425 114.320, 831.962 114.502, 833.750 114.723 M 945.472 114.722 C 949.330 114.932, 952.826 115.637, 953.298 116.301 C 953.900 117.146, 954.032 117.057, 953.746 116 C 953.434 114.847, 951.621 114.482, 945.920 114.421 L 938.500 114.343 945.472 114.722 M 728.336 124 C 728.336 128.125, 728.513 129.813, 728.728 127.750 C 728.944 125.688, 728.944 122.313, 728.728 120.250 C 728.513 118.188, 728.336 119.875, 728.336 124 M 87.181 134.096 C 76.468 144.744, 65.995 159.508, 61.531 170.250 L 59.973 174 64.025 174 C 73.851 174, 103.886 176.227, 119 178.077 C 170.853 184.422, 225.318 198.944, 265 217.006 C 274.408 221.289, 296.797 229, 299.822 229 C 302.490 229, 300.752 206.169, 296.953 191.314 C 293.436 177.564, 284.896 159.433, 277.050 149.059 L 275.203 146.618 263.352 149.307 C 241.431 154.280, 222.282 155.689, 199.180 154.030 C 163.409 151.462, 134.276 143.979, 95.443 127.386 C 94.861 127.137, 91.143 130.157, 87.181 134.096 M 800.456 208 C 800.456 230.275, 800.588 239.388, 800.749 228.250 C 800.910 217.113, 800.910 198.888, 800.749 187.750 C 800.588 176.613, 800.456 185.725, 800.456 208 M 200.250 218.742 C 203.963 218.934, 210.037 218.934, 213.750 218.742 C 217.463 218.549, 214.425 218.392, 207 218.392 C 199.575 218.392, 196.537 218.549, 200.250 218.742 M 920.768 258.725 C 922.565 258.947, 925.265 258.943, 926.768 258.715 C 928.271 258.486, 926.800 258.304, 923.500 258.310 C 920.200 258.315, 918.971 258.502, 920.768 258.725 M 648.442 288.749 C 894.013 288.951, 957.565 289.259, 958.268 290.252 C 958.922 291.175, 959.046 291.109, 958.743 290 C 958.380 288.671, 923.104 288.500, 648.917 288.498 L 339.500 288.495 648.442 288.749 M 340.392 333 C 340.392 340.425, 340.549 343.462, 340.742 339.750 C 340.934 336.038, 340.934 329.962, 340.742 326.250 C 340.549 322.538, 340.392 325.575, 340.392 333 M 472.217 333.167 C 472.061 342.995, 471.649 346.975, 470.750 347.338 C 469.771 347.733, 469.778 347.859, 470.781 347.921 C 472.837 348.048, 473.081 346.135, 472.749 332.447 L 472.435 319.500 472.217 333.167 M 846.453 333.418 C 846.492 344.914, 846.761 347.407, 848 347.744 C 849.079 348.038, 849.157 347.909, 848.280 347.286 C 847.454 346.699, 846.955 342.077, 846.734 332.960 L 846.407 319.500 846.453 333.418 M 869.395 333.500 C 869.396 341.200, 869.553 344.218, 869.743 340.206 C 869.934 336.195, 869.932 329.895, 869.741 326.206 C 869.549 322.518, 869.393 325.800, 869.395 333.500 M 636.365 330.500 C 636.368 336, 636.536 338.122, 636.738 335.216 C 636.941 332.311, 636.939 327.811, 636.734 325.216 C 636.528 322.622, 636.363 325, 636.365 330.500 M 807.392 334 C 807.392 341.425, 807.549 344.462, 807.742 340.750 C 807.934 337.038, 807.934 330.962, 807.742 327.250 C 807.549 323.538, 807.392 326.575, 807.392 334 M 881.455 334.249 L 881.500 347.500 888 347.584 L 894.500 347.669 888.279 347.287 L 882.057 346.906 881.733 333.952 L 881.409 320.997 881.455 334.249 M 693.310 327.500 C 693.315 330.800, 693.502 332.029, 693.725 330.232 C 693.947 328.435, 693.943 325.735, 693.715 324.232 C 693.486 322.729, 693.304 324.200, 693.310 327.500 M 342 335.500 C 342 342.008, 342.198 347.135, 342.440 346.893 C 343.143 346.190, 343.317 324.983, 342.625 324.292 C 342.281 323.948, 342 328.992, 342 335.500 M 848.370 336 C 848.370 341.775, 848.535 344.137, 848.737 341.250 C 848.939 338.363, 848.939 333.637, 848.737 330.750 C 848.535 327.863, 848.370 330.225, 848.370 336 M 371.320 334 C 371.320 337.575, 371.502 339.038, 371.723 337.250 C 371.945 335.462, 371.945 332.538, 371.723 330.750 C 371.502 328.962, 371.320 330.425, 371.320 334 M 691.199 340.250 L 691 348 699.750 347.796 L 708.500 347.593 700.293 347.257 L 692.086 346.921 691.742 339.710 L 691.397 332.500 691.199 340.250 M 403.320 341 C 403.320 344.575, 403.502 346.038, 403.723 344.250 C 403.945 342.462, 403.945 339.538, 403.723 337.750 C 403.502 335.962, 403.320 337.425, 403.320 341 M 693.310 340.500 C 693.315 343.800, 693.502 345.029, 693.725 343.232 C 693.947 341.435, 693.943 338.735, 693.715 337.232 C 693.486 335.729, 693.304 337.200, 693.310 340.500 M 915.280 347.736 C 917.909 347.943, 921.959 347.940, 924.280 347.731 C 926.601 347.521, 924.450 347.352, 919.500 347.355 C 914.550 347.358, 912.651 347.530, 915.280 347.736" stroke="none" fill="#6cb23e" fill-rule="evenodd"/><path d="M 378.385 111 C 378.385 117.875, 378.545 120.688, 378.740 117.250 C 378.936 113.813, 378.936 108.188, 378.740 104.750 C 378.545 101.313, 378.385 104.125, 378.385 111 M 450.411 116 C 450.411 125.625, 450.561 129.563, 450.745 124.750 C 450.928 119.937, 450.928 112.062, 450.745 107.250 C 450.561 102.438, 450.411 106.375, 450.411 116 M 626.411 116 C 626.411 125.625, 626.561 129.563, 626.745 124.750 C 626.928 119.937, 626.928 112.062, 626.745 107.250 C 626.561 102.438, 626.411 106.375, 626.411 116 M 794.407 115 C 794.407 124.075, 794.559 127.787, 794.744 123.250 C 794.929 118.713, 794.929 111.287, 794.744 106.750 C 794.559 102.213, 794.407 105.925, 794.407 115 M 882.867 101.250 C 882.665 102.487, 882.743 110.250, 883.041 118.500 L 883.582 133.500 883.791 116.250 C 883.987 100.072, 883.732 95.937, 882.867 101.250 M 452.402 115 C 452.402 123.525, 452.556 127.013, 452.743 122.750 C 452.931 118.487, 452.931 111.513, 452.743 107.250 C 452.556 102.987, 452.402 106.475, 452.402 115 M 510.500 116 C 510.500 124.695, 510.825 131.608, 511.223 131.362 C 512.163 130.781, 512.157 101.215, 511.217 100.634 C 510.823 100.390, 510.500 107.305, 510.500 116 M 792.407 116 C 792.407 125.075, 792.559 128.787, 792.744 124.250 C 792.929 119.713, 792.929 112.287, 792.744 107.750 C 792.559 103.213, 792.407 106.925, 792.407 116 M 935.183 115.750 C 935.027 129.609, 935.221 132, 936.500 132 C 937.720 132, 937.966 130.552, 937.820 124.250 L 937.640 116.500 937 124 L 936.360 131.500 936.180 124.309 C 936.081 120.354, 936.450 116.840, 937 116.500 C 937.556 116.156, 937.912 112.468, 937.801 108.191 L 937.603 100.500 937.093 108 L 936.584 115.500 935.976 107.500 C 935.487 101.079, 935.331 102.707, 935.183 115.750 M 343.900 116.304 C 344.345 116.747, 347.362 116.966, 350.604 116.792 L 356.500 116.475 349.796 115.987 C 346.108 115.719, 343.455 115.862, 343.900 116.304 M 628.343 122.500 C 628.346 126.900, 628.522 128.576, 628.733 126.224 C 628.945 123.872, 628.942 120.272, 628.727 118.224 C 628.512 116.176, 628.339 118.100, 628.343 122.500 M 441 158.776 C 441 159.203, 442.913 159.405, 445.250 159.224 C 452.255 158.681, 452.853 158.239, 446.750 158.116 C 443.587 158.052, 441 158.349, 441 158.776 M 684.458 159.250 C 684.195 159.938, 684.096 182.325, 684.240 209 L 684.500 257.500 689.750 257.802 L 695 258.105 694.771 235.802 L 694.541 213.500 694.251 235.250 L 693.961 257 689.480 257 L 685 257 685 208.020 L 685 159.041 705.750 158.749 L 726.500 158.457 705.719 158.229 C 689.844 158.054, 684.824 158.295, 684.458 159.250 M 799.250 158.746 C 804.612 158.925, 813.388 158.925, 818.750 158.746 C 824.112 158.566, 819.725 158.419, 809 158.419 C 798.275 158.419, 793.888 158.566, 799.250 158.746 M 694.444 168.285 C 694.173 168.992, 694.074 177.429, 694.225 187.035 L 694.500 204.500 709 204.540 L 723.500 204.580 709.250 204.263 L 695 203.947 695 186.001 L 695 168.055 709.250 167.748 L 723.500 167.441 709.219 167.220 C 698.345 167.053, 694.820 167.307, 694.444 168.285 M 807.250 167.739 C 810.413 167.937, 815.587 167.937, 818.750 167.739 C 821.913 167.541, 819.325 167.378, 813 167.378 C 806.675 167.378, 804.087 167.541, 807.250 167.739 M 858.407 208 C 858.407 217.075, 858.559 220.787, 858.744 216.250 C 858.929 211.713, 858.929 204.287, 858.744 199.750 C 858.559 195.213, 858.407 198.925, 858.407 208 M 848.378 208 C 848.378 214.325, 848.541 216.912, 848.739 213.750 C 848.937 210.588, 848.937 205.412, 848.739 202.250 C 848.541 199.088, 848.378 201.675, 848.378 208 M 806.789 248.741 C 810.248 248.937, 815.648 248.936, 818.789 248.738 C 821.930 248.540, 819.100 248.380, 812.500 248.382 C 805.900 248.384, 803.330 248.546, 806.789 248.741 M 530 255.279 C 530 256.482, 528.797 256.985, 525.250 257.265 L 520.500 257.640 525.281 257.820 C 528.788 257.952, 530.221 257.589, 530.655 256.457 C 530.981 255.608, 530.966 254.633, 530.624 254.290 C 530.281 253.947, 530 254.392, 530 255.279 M 345.768 257.725 C 347.565 257.947, 350.265 257.943, 351.768 257.715 C 353.271 257.486, 351.800 257.304, 348.500 257.310 C 345.200 257.315, 343.971 257.502, 345.768 257.725 M 415.768 257.725 C 417.565 257.947, 420.265 257.943, 421.768 257.715 C 423.271 257.486, 421.800 257.304, 418.500 257.310 C 415.200 257.315, 413.971 257.502, 415.768 257.725 M 645.768 257.725 C 647.565 257.947, 650.265 257.943, 651.768 257.715 C 653.271 257.486, 651.800 257.304, 648.500 257.310 C 645.200 257.315, 643.971 257.502, 645.768 257.725 M 744.750 257.723 C 746.538 257.945, 749.462 257.945, 751.250 257.723 C 753.038 257.502, 751.575 257.320, 748 257.320 C 744.425 257.320, 742.962 257.502, 744.750 257.723 M 799.250 257.746 C 804.612 257.925, 813.388 257.925, 818.750 257.746 C 824.112 257.566, 819.725 257.419, 809 257.419 C 798.275 257.419, 793.888 257.566, 799.250 257.746 M 494.250 291.750 C 579.363 291.891, 718.638 291.891, 803.750 291.750 C 888.863 291.609, 819.225 291.494, 649 291.494 C 478.775 291.494, 409.138 291.609, 494.250 291.750 M 358 331.300 C 358 338.955, 357.597 343.034, 356.750 343.947 C 355.947 344.812, 355.916 345.060, 356.665 344.640 C 357.305 344.281, 358.043 344.553, 358.305 345.244 C 358.566 345.935, 358.942 340.537, 359.140 333.248 C 359.338 325.960, 359.163 319.997, 358.750 319.998 C 358.337 319.999, 358 325.085, 358 331.300 M 401.667 320.667 C 400.744 321.589, 400.823 346.772, 401.750 347.348 C 402.163 347.604, 402.363 341.804, 402.197 334.458 L 401.893 321.103 407.697 320.741 L 413.500 320.378 407.917 320.189 C 404.846 320.085, 402.033 320.300, 401.667 320.667 M 431 320.900 L 435.500 321.500 435.500 334.702 C 435.500 341.963, 435.864 347.539, 436.309 347.093 C 436.754 346.647, 436.979 340.612, 436.809 333.684 L 436.500 321.085 441 320.723 C 443.475 320.524, 441.225 320.347, 436 320.330 C 429.674 320.310, 428.004 320.501, 431 320.900 M 470.412 321.369 C 470.123 322.122, 470.032 325.160, 470.210 328.119 L 470.533 333.500 471.017 326.748 C 471.503 319.952, 471.379 318.848, 470.412 321.369 M 637.994 330.796 L 638.488 341.500 638.782 331.588 C 638.944 326.137, 638.722 321.320, 638.288 320.884 C 637.855 320.448, 637.722 324.908, 637.994 330.796 M 653.427 321.329 C 653.147 322.060, 653.052 326.673, 653.217 331.579 L 653.517 340.500 654.008 330.248 C 654.496 320.079, 654.411 318.767, 653.427 321.329 M 691.652 320.750 C 691.395 321.163, 693.956 321.374, 697.343 321.220 C 707.695 320.750, 708.921 320.307, 700.309 320.150 C 695.804 320.067, 691.908 320.337, 691.652 320.750 M 720.750 320.723 C 722.538 320.945, 725.462 320.945, 727.250 320.723 C 729.038 320.502, 727.575 320.320, 724 320.320 C 720.425 320.320, 718.962 320.502, 720.750 320.723 M 805.412 321.369 C 805.123 322.122, 805.032 325.160, 805.210 328.119 L 805.533 333.500 806.017 326.748 C 806.503 319.952, 806.379 318.848, 805.412 321.369 M 884.768 320.725 C 886.565 320.947, 889.265 320.943, 890.768 320.715 C 892.271 320.486, 890.800 320.304, 887.500 320.310 C 884.200 320.315, 882.971 320.502, 884.768 320.725 M 911.193 333.250 C 911.299 340.538, 911.541 343.800, 911.732 340.500 L 912.078 334.500 918.789 334.625 L 925.500 334.751 919 334.125 L 912.500 333.500 912.200 327.172 L 911.901 320.845 919.858 321.172 C 924.235 321.353, 927.606 321.163, 927.349 320.750 C 927.092 320.337, 923.309 320, 918.941 320 L 911 320 911.193 333.250 M 940.768 320.725 C 942.565 320.947, 945.265 320.943, 946.768 320.715 C 948.271 320.486, 946.800 320.304, 943.500 320.310 C 940.200 320.315, 938.971 320.502, 940.768 320.725 M 883.385 334 C 883.385 340.875, 883.545 343.688, 883.740 340.250 C 883.936 336.813, 883.936 331.188, 883.740 327.750 C 883.545 324.313, 883.385 327.125, 883.385 334 M 607.320 334 C 607.320 337.575, 607.502 339.038, 607.723 337.250 C 607.945 335.462, 607.945 332.538, 607.723 330.750 C 607.502 328.962, 607.320 330.425, 607.320 334 M 625.320 334 C 625.320 337.575, 625.502 339.038, 625.723 337.250 C 625.945 335.462, 625.945 332.538, 625.723 330.750 C 625.502 328.962, 625.320 330.425, 625.320 334 M 761.320 334 C 761.320 337.575, 761.502 339.038, 761.723 337.250 C 761.945 335.462, 761.945 332.538, 761.723 330.750 C 761.502 328.962, 761.320 330.425, 761.320 334 M 867.160 337.191 C 867.072 342.521, 867.337 347.092, 867.750 347.349 C 868.163 347.606, 868.377 344.595, 868.226 340.658 C 867.760 328.474, 867.327 327.066, 867.160 337.191 M 789 332.693 C 789 334.379, 791.580 335, 798.582 335 L 805 335 805 340.941 C 805 344.209, 805.337 347.092, 805.750 347.349 C 806.163 347.606, 806.351 344.707, 806.168 340.908 L 805.836 334 798.618 334 C 794.337 334, 790.912 333.512, 790.200 332.800 C 789.397 331.997, 789 331.962, 789 332.693 M 403.083 333.362 C 403.313 333.561, 406.191 333.989, 409.481 334.313 C 413.366 334.697, 414.943 334.575, 413.981 333.967 C 412.627 333.111, 402.123 332.528, 403.083 333.362 M 720.500 333.500 C 722.902 334.321, 732.062 334.655, 730.835 333.877 C 730.101 333.411, 727.250 333.059, 724.500 333.094 C 721.750 333.129, 719.950 333.312, 720.500 333.500 M 939.006 333.750 C 939.009 334.163, 941.712 334.528, 945.012 334.563 C 948.356 334.598, 950.456 334.273, 949.756 333.828 C 948.160 332.815, 938.998 332.748, 939.006 333.750 M 462.703 334.742 L 469.907 335.086 470.261 341.293 L 470.615 347.500 470.807 340.750 L 471 334 463.250 334.199 L 455.500 334.397 462.703 334.742 M 695.728 334.722 C 697.503 334.943, 700.653 334.946, 702.728 334.730 C 704.802 334.513, 703.350 334.333, 699.500 334.328 C 695.650 334.324, 693.952 334.501, 695.728 334.722 M 524.728 339.722 C 526.503 339.943, 529.653 339.946, 531.728 339.730 C 533.802 339.513, 532.350 339.333, 528.500 339.328 C 524.650 339.324, 522.952 339.501, 524.728 339.722 M 823.750 339.723 C 825.538 339.945, 828.462 339.945, 830.250 339.723 C 832.038 339.502, 830.575 339.320, 827 339.320 C 823.425 339.320, 821.962 339.502, 823.750 339.723" stroke="none" fill="#1f7280" fill-rule="evenodd"/><path d="M 0 230.001 L 0 460.002 500.250 459.751 L 1000.500 459.500 1000.752 229.750 L 1001.004 -0 500.502 -0 L 0 0 0 230.001 M 0.491 230.500 C 0.492 357, 0.608 408.601, 0.750 345.170 C 0.892 281.738, 0.892 178.238, 0.750 115.170 C 0.608 52.101, 0.491 104, 0.491 230.500 M 150.491 100.009 C 140.004 102.339, 128.423 106.264, 120.707 110.102 C 113.626 113.624, 100.032 122.184, 100.013 123.133 C 100.006 123.482, 100.787 124.008, 101.750 124.303 C 102.713 124.598, 106.650 125.812, 110.500 127.002 C 126.929 132.078, 137.435 134.734, 155.500 138.377 C 172.615 141.827, 175.751 142.273, 202.170 145.001 C 216.582 146.490, 242.096 146.209, 252 144.453 C 256.675 143.624, 262.423 142.673, 264.773 142.340 C 267.123 142.007, 269.253 141.399, 269.507 140.989 C 270.357 139.613, 254.782 124.760, 248.750 121.194 C 247.238 120.300, 246 119.216, 246 118.784 C 246 118.353, 245.519 118, 244.930 118 C 244.342 118, 241.979 116.745, 239.680 115.211 C 228.790 107.945, 212.190 101.850, 195.566 99.013 C 185.944 97.370, 159.759 97.949, 150.491 100.009 M 420.329 99.458 C 416.550 101.102, 415 103.661, 415 108.260 C 415 112.830, 418.189 115.637, 425.024 117.082 C 433.136 118.796, 434 119.463, 434 124.012 C 434 127.121, 433.468 128.303, 431.480 129.605 C 428.322 131.674, 420.793 131.028, 417.936 128.442 C 416.419 127.069, 415.677 126.923, 414.780 127.820 C 412.113 130.487, 422.356 134.587, 428.708 133.395 C 435.376 132.144, 438.824 125.918, 436.379 119.545 C 435.584 117.474, 431.595 115.461, 426.500 114.560 C 420.345 113.471, 418 111.533, 418 107.534 C 418 105.133, 418.662 103.649, 420.223 102.557 C 423.024 100.595, 428.908 100.547, 431.646 102.465 C 433.669 103.881, 435 103.610, 435 101.782 C 435 100.584, 428.612 97.991, 425.782 98.039 C 424.527 98.061, 422.073 98.699, 420.329 99.458 M 547.021 99.116 C 542.693 100.843, 541 103.080, 541 107.073 C 541 109.143, 541.280 111.565, 541.621 112.455 C 542.475 114.680, 546.589 116.608, 552.238 117.430 C 557.780 118.236, 560 120.081, 560 123.880 C 560 128.161, 557.901 130.144, 552.756 130.724 C 549.141 131.131, 547.372 130.775, 544.646 129.090 C 542.288 127.633, 540.938 127.291, 540.479 128.034 C 538.826 130.709, 548.706 134.521, 554.484 133.437 C 562.724 131.891, 565.974 122.681, 560.042 117.688 C 558.214 116.150, 555.186 114.938, 552.119 114.516 C 549.389 114.141, 546.370 113.260, 545.411 112.558 C 543.117 110.881, 543.160 105.586, 545.488 103.013 C 547.713 100.554, 554.519 100.275, 557.712 102.511 C 559.272 103.603, 560.064 103.705, 560.575 102.879 C 561.289 101.723, 559.176 100.045, 555.500 98.850 C 552.594 97.905, 549.840 97.991, 547.021 99.116 M 579.329 99.458 C 575.511 101.118, 574 103.664, 574 108.434 C 574 113.337, 576.661 115.636, 584.010 117.082 C 590.993 118.456, 593 119.973, 593 123.880 C 593 128.161, 590.901 130.144, 585.756 130.724 C 582.141 131.131, 580.372 130.775, 577.646 129.090 C 575.110 127.523, 573.959 127.258, 573.426 128.119 C 571.750 130.831, 581.569 134.547, 587.482 133.437 C 592.688 132.461, 596.007 128.887, 595.968 124.298 C 595.917 118.230, 593.072 115.733, 584.795 114.492 C 582.207 114.104, 579.320 113.223, 578.378 112.535 C 575.827 110.669, 576.152 105.105, 578.944 102.844 C 581.711 100.604, 587.745 100.433, 590.712 102.511 C 592.272 103.603, 593.064 103.705, 593.575 102.879 C 594.627 101.176, 589.077 98.277, 584.500 98.139 C 583.400 98.106, 581.073 98.699, 579.329 99.458 M 695 99.752 C 690.058 102.220, 687.991 106.911, 688.058 115.500 C 688.158 128.224, 691.961 133.591, 700.742 133.400 C 704.686 133.314, 705.808 132.786, 708.668 129.665 C 712.073 125.950, 712.992 123, 710.744 123 C 710.053 123, 708.921 124.281, 708.228 125.847 C 705.861 131.195, 698.926 132.560, 694.306 128.587 C 691.573 126.238, 691.500 125.909, 691.500 116.003 C 691.500 106.098, 691.574 105.768, 694.306 103.415 C 698.137 100.117, 702.933 100.205, 706.364 103.636 C 707.814 105.086, 709 106.886, 709 107.636 C 709 108.386, 709.675 109, 710.500 109 C 714.012 109, 710.111 101.755, 705.393 99.516 C 701.276 97.563, 699.292 97.607, 695 99.752 M 904.315 99.416 C 899.438 101.610, 897.999 105.435, 898.004 116.200 C 898.007 123.657, 898.394 126.134, 899.958 128.699 C 902.448 132.783, 908.437 134.671, 913.548 132.984 C 917.075 131.820, 921 127.402, 921 124.596 C 921 122.034, 919.179 122.752, 917.515 125.970 C 914.626 131.558, 907.730 132.821, 903.455 128.545 C 901.173 126.264, 901 125.380, 901 116 C 901 106.620, 901.173 105.736, 903.455 103.455 C 908.075 98.834, 914.566 100.590, 918.633 107.559 C 920.201 110.247, 921.580 108.545, 920.436 105.333 C 918.425 99.686, 910.324 96.713, 904.315 99.416 M 341 116 L 341 133 350.077 133 C 358.776 133, 359.276 132.878, 362.077 130.077 C 365.758 126.395, 365.915 122.241, 362.524 118.210 C 360.065 115.288, 360.061 115.255, 362.024 113.479 C 364.943 110.837, 364.695 104.604, 361.545 101.455 C 359.301 99.210, 358.316 99, 350.045 99 L 341 99 341 116 M 378.015 111.750 C 378.024 119.877, 378.477 125.372, 379.265 126.904 C 383.499 135.143, 396.512 135.711, 400.585 127.835 C 402.690 123.765, 402.617 99, 400.500 99 C 399.241 99, 399 101.154, 399 112.389 C 399 127.986, 398.255 129.754, 391.288 130.688 C 387.575 131.186, 386.749 130.903, 384.048 128.202 L 381 125.154 381 112.077 C 381 101.120, 380.757 99, 379.500 99 C 378.244 99, 378.002 101.077, 378.015 111.750 M 450 116 C 450 130.444, 450.225 133, 451.500 133 C 452.775 133, 453 130.444, 453 116 C 453 101.556, 452.775 99, 451.500 99 C 450.225 99, 450 101.556, 450 116 M 468 116 C 468 130.444, 468.225 133, 469.500 133 C 470.765 133, 471.001 130.693, 471.004 118.250 L 471.008 103.500 480.754 118.227 C 487.073 127.775, 491.115 132.961, 492.250 132.977 C 493.849 132.998, 494 131.533, 494 116 C 494 101.556, 493.775 99, 492.500 99 C 491.235 99, 490.999 101.307, 490.996 113.750 L 490.992 128.500 481.246 113.773 C 474.927 104.225, 470.885 99.039, 469.750 99.023 C 468.151 99.002, 468 100.467, 468 116 M 509 116 L 509 133 519.500 133 C 525.833 133, 530 132.603, 530 132 C 530 131.407, 526.333 131, 521 131 L 512 131 512 124 L 512 117 519.500 117 C 525.500 117, 527 116.700, 527 115.500 C 527 114.300, 525.500 114, 519.500 114 L 512 114 512 107.500 L 512 101 521 101 C 526.333 101, 530 100.593, 530 100 C 530 99.397, 525.833 99, 519.500 99 L 509 99 509 116 M 626 116 L 626 133 636.500 133 C 642.833 133, 647 132.603, 647 132 C 647 131.407, 643.333 131, 638 131 L 629 131 629 124 L 629 117 637.083 117 C 643.108 117, 645.060 116.682, 644.746 115.750 C 644.459 114.895, 641.902 114.500, 636.661 114.500 L 628.997 114.500 628.998 107.750 L 629 101 638 101 C 643.333 101, 647 100.593, 647 100 C 647 99.397, 642.833 99, 636.500 99 L 626 99 626 116 M 657.277 100.250 C 657.547 100.938, 659.600 104.646, 661.838 108.491 L 665.907 115.483 663.454 119.741 C 662.104 122.084, 659.832 126.025, 658.405 128.500 C 656.308 132.136, 656.109 133, 657.371 133 C 658.261 133, 660.803 129.771, 663.283 125.492 L 667.635 117.985 671.930 125.492 C 674.293 129.622, 676.850 133, 677.613 133 C 679.639 133, 679.455 132.499, 674.349 124.127 C 671.791 119.932, 669.703 116.050, 669.711 115.500 C 669.718 114.950, 671.804 111.013, 674.345 106.750 C 678.065 100.511, 678.628 99, 677.233 99.002 C 676.130 99.004, 674.067 101.552, 671.560 106.010 L 667.620 113.014 663.734 106.007 C 661.553 102.076, 659.175 99, 658.317 99 C 657.475 99, 657.007 99.563, 657.277 100.250 M 726 116 L 726 133 736.500 133 C 742.833 133, 747 132.603, 747 132 C 747 131.407, 743.333 131, 738 131 L 729 131 729 124 L 729 117 736.500 117 C 742.667 117, 744 116.719, 744 115.421 C 744 114.093, 742.805 113.894, 736.498 114.171 L 728.995 114.500 728.998 107.750 L 729 101 738 101 C 743.333 101, 747 100.593, 747 100 C 747 99.397, 742.833 99, 736.500 99 L 726 99 726 116 M 759 116 L 759 133 770 133 C 776.667 133, 781 132.606, 781 132 C 781 131.404, 777.167 131, 771.500 131 L 762 131 762 115 C 762 101.444, 761.771 99, 760.500 99 C 759.225 99, 759 101.556, 759 116 M 792 116 L 792 133 802.500 133 C 808.833 133, 813 132.603, 813 132 C 813 131.407, 809.333 131, 804 131 L 795 131 795 115 C 795 101.444, 794.771 99, 793.500 99 C 792.225 99, 792 101.556, 792 116 M 824.796 115.999 L 825.091 133 835.546 133 C 848.560 133, 849.548 131.185, 836.750 130.788 L 827.500 130.500 827.204 123.750 L 826.909 117 834.954 117 C 841.596 117, 843 116.726, 843 115.431 C 843 114.157, 841.824 113.890, 836.750 114.010 C 826.192 114.259, 827 114.799, 827 107.500 L 827 101 836.500 101 C 842.167 101, 846 100.596, 846 100 C 846 99.395, 841.749 98.999, 835.250 98.999 L 824.500 98.997 824.796 115.999 M 858 116 C 858 130.444, 858.225 133, 859.500 133 C 860.765 133, 861.001 130.693, 861.004 118.250 L 861.008 103.500 870.754 118.227 C 877.073 127.775, 881.115 132.961, 882.250 132.977 C 883.849 132.998, 884 131.533, 884 116 C 884 101.556, 883.775 99, 882.500 99 C 881.235 99, 880.999 101.307, 880.996 113.750 L 880.992 128.500 871.246 113.773 C 864.927 104.225, 860.885 99.039, 859.750 99.023 C 858.151 99.002, 858 100.467, 858 116 M 935 116 L 935 133 945.500 133 C 951.833 133, 956 132.603, 956 132 C 956 131.407, 952.333 131, 947 131 L 938 131 938 124 L 938 117 946.083 117 C 952.108 117, 954.060 116.682, 953.746 115.750 C 953.459 114.895, 950.902 114.500, 945.661 114.500 L 937.997 114.500 937.998 107.750 L 938 101 947 101 C 952.333 101, 956 100.593, 956 100 C 956 99.397, 951.833 99, 945.500 99 L 935 99 935 116 M 344 107.500 L 344 114 350.929 114 C 359.239 114, 361.261 112.597, 360.803 107.149 C 360.420 102.591, 357.616 101.035, 349.750 101.015 L 344 101 344 107.500 M 344 124.113 L 344 131.226 351.120 130.823 C 357.086 130.486, 358.546 130.044, 360.120 128.100 C 362.558 125.090, 362.510 121.510, 360 119 C 358.381 117.381, 356.667 117, 351 117 L 344 117 344 124.113 M 87.181 134.096 C 76.468 144.744, 65.995 159.508, 61.531 170.250 L 59.973 174 64.025 174 C 73.851 174, 103.886 176.227, 119 178.077 C 170.853 184.422, 225.318 198.944, 265 217.006 C 274.408 221.289, 296.797 229, 299.822 229 C 302.490 229, 300.752 206.169, 296.953 191.314 C 293.436 177.564, 284.896 159.433, 277.050 149.059 L 275.203 146.618 263.352 149.307 C 241.431 154.280, 222.282 155.689, 199.180 154.030 C 163.409 151.462, 134.276 143.979, 95.443 127.386 C 94.861 127.137, 91.143 130.157, 87.181 134.096 M 915 158.332 C 911.975 159.037, 907.631 160.587, 905.347 161.778 C 889.962 169.795, 887.325 193.837, 900.621 204.857 C 905.154 208.613, 913.853 211.392, 926.247 213.041 C 942.150 215.158, 947.436 219.976, 946.763 231.739 C 946.326 239.387, 944.252 242.562, 937.448 246 C 933.262 248.115, 931.114 248.500, 923.500 248.500 C 913.206 248.500, 907.422 246.732, 900.546 241.483 L 896.218 238.180 893.109 241.387 C 891.399 243.152, 890.014 245.024, 890.031 245.548 C 890.077 246.981, 898.025 252.681, 903.119 254.935 C 909.265 257.653, 921.153 259.354, 928.331 258.542 C 945.594 256.589, 956.455 247.102, 957.748 232.846 C 958.482 224.745, 956.586 218.868, 951.363 213.059 C 946.015 207.111, 941.737 205.315, 927.230 202.929 C 908.195 199.799, 903.839 196.836, 903.186 186.573 C 902.430 174.713, 908.508 167.945, 920.603 167.174 C 929.926 166.581, 935.051 167.659, 941.572 171.586 L 947.382 175.084 950.801 171.666 L 954.220 168.247 949.454 164.968 C 946.833 163.165, 942.567 160.883, 939.974 159.898 C 933.595 157.474, 921.847 156.738, 915 158.332 M 378.125 160.195 C 377.648 161.463, 369.811 182.750, 360.709 207.500 C 351.607 232.250, 343.686 253.738, 343.105 255.250 L 342.050 258 347.896 258 L 353.743 258 357.738 246.750 L 361.734 235.500 383.259 235.231 L 404.783 234.962 407.396 242.231 C 408.832 246.229, 410.612 251.300, 411.350 253.500 C 412.690 257.491, 412.705 257.501, 418.468 257.804 C 424.062 258.098, 424.225 258.035, 423.649 255.804 C 423.321 254.537, 415.208 232.125, 405.618 206 L 388.183 158.500 383.587 158.195 C 379.566 157.928, 378.884 158.178, 378.125 160.195 M 441 158.639 C 441 159.046, 446.625 181.311, 453.500 208.119 C 460.375 234.926, 466 257.139, 466 257.482 C 466 257.824, 468.345 257.969, 471.212 257.802 L 476.424 257.500 487.013 219.500 C 492.837 198.600, 497.804 180.952, 498.051 180.283 C 498.298 179.613, 503.412 196.846, 509.414 218.579 L 520.329 258.093 525.414 257.797 L 530.500 257.500 542.691 210 C 549.396 183.875, 555.142 161.488, 555.460 160.250 C 556.010 158.108, 555.759 158, 550.201 158 L 544.364 158 534.932 196.998 C 529.744 218.447, 525.268 235.997, 524.983 235.998 C 524.699 235.999, 519.703 218.563, 513.880 197.250 L 503.293 158.500 498.397 158.211 L 493.500 157.921 483.089 196.211 C 477.363 217.270, 472.390 235.071, 472.039 235.769 C 471.687 236.466, 467.138 219.366, 461.930 197.769 L 452.460 158.500 446.730 158.200 C 443.578 158.035, 441 158.233, 441 158.639 M 607.884 160.750 C 605.894 165.881, 575.799 247.468, 573.948 252.750 L 572.108 258 577.852 258 L 583.596 258 587.607 246.750 L 591.619 235.500 613.174 235.231 L 634.729 234.962 638.728 246.231 L 642.726 257.500 648.494 257.804 C 653.642 258.075, 654.209 257.914, 653.773 256.304 C 653.387 254.878, 621.140 166.708, 618.460 159.750 C 617.959 158.449, 616.652 158, 613.368 158 C 609.474 158, 608.824 158.326, 607.884 160.750 M 684 207.921 L 684 258 689.500 258 L 695 258 695 236 L 695 214 706.921 214 L 718.843 214 730.158 236 L 741.474 258 747.787 258 L 754.101 258 743.885 238.250 C 738.266 227.387, 733.068 217.612, 732.334 216.527 C 730.559 213.904, 730.646 212, 732.540 212 C 737.248 212, 746.022 204.812, 749.629 198 C 752.278 192.997, 752.237 179.011, 749.558 173.597 C 746.938 168.301, 741.624 163.183, 736.089 160.623 C 731.897 158.683, 729.447 158.472, 707.750 158.171 L 684 157.841 684 207.921 M 790 208 L 790 258.169 811.750 257.762 C 829.678 257.427, 834.367 257.033, 838.432 255.521 C 845.435 252.918, 853.127 245.073, 856.103 237.500 C 858.343 231.800, 858.461 230.325, 858.461 208 C 858.461 185.675, 858.343 184.200, 856.103 178.500 C 853.127 170.927, 845.435 163.082, 838.432 160.479 C 834.367 158.967, 829.678 158.573, 811.750 158.238 L 790 157.831 790 208 M 695 186 L 695 204.165 712.250 203.829 C 726.272 203.556, 730.093 203.169, 732.671 201.762 C 743.302 195.957, 743.921 177.950, 733.723 171.196 C 729.757 168.569, 729.208 168.491, 712.326 168.167 L 695 167.835 695 186 M 801 207.910 L 801 248 814.057 248 C 830.487 248, 835.028 246.902, 840.546 241.595 C 846.796 235.585, 847.500 232.183, 847.500 208 C 847.500 185.759, 846.776 181.265, 842.348 176.002 C 837.084 169.746, 833.171 168.573, 816.250 168.177 L 801 167.821 801 207.910 M 374.381 199.768 L 365.261 225.500 374.682 225.787 C 379.864 225.945, 388.079 225.945, 392.936 225.787 L 401.769 225.500 392.913 200.500 C 388.043 186.750, 383.932 175.171, 383.779 174.768 C 383.626 174.366, 379.396 185.616, 374.381 199.768 M 604.299 199.695 C 599.249 213.861, 595.251 225.585, 595.415 225.749 C 595.579 225.912, 603.792 225.923, 613.666 225.773 L 631.619 225.500 622.936 200.879 C 618.160 187.338, 614.079 175.736, 613.866 175.099 C 613.654 174.461, 609.348 185.529, 604.299 199.695 M 55.898 184.750 C 53.182 191.845, 50.832 206.531, 50.299 219.750 L 49.724 234 53.821 234 C 56.075 234, 61.199 233.552, 65.209 233.003 C 69.219 232.455, 83.750 230.636, 97.500 228.960 C 111.250 227.284, 127 225.274, 132.500 224.493 C 173.658 218.646, 214.214 217.651, 252 221.560 C 258.843 222.268, 257.462 221.226, 245.915 216.969 C 217.556 206.512, 181.565 196.707, 154 191.926 C 129.828 187.734, 77.431 182, 63.302 182 C 57.295 182, 56.893 182.149, 55.898 184.750 M 183 232.091 C 152.211 234.772, 130.575 237.585, 106 242.105 C 84.332 246.090, 55.161 252.506, 54.161 253.506 C 53.864 253.803, 54.657 257.298, 55.923 261.273 C 67.678 298.168, 96.727 328.054, 133.766 341.359 C 159.418 350.573, 191.462 350.578, 217.234 341.373 C 252.837 328.657, 281.374 300.179, 293.765 265 C 297.569 254.202, 300.505 241.098, 299.369 239.991 C 298.891 239.526, 294.900 238.243, 290.500 237.139 C 262.456 230.105, 225.659 228.377, 183 232.091 M 340 290 C 340 292, 340.419 292.003, 649.250 291.752 C 923.360 291.529, 958.500 291.330, 958.500 290 C 958.500 288.670, 923.360 288.471, 649.250 288.248 C 340.419 287.997, 340 288, 340 290 M 340 334.083 C 340 344.904, 340.290 348.071, 341.250 347.753 C 342.105 347.470, 342.658 343.908, 343 336.489 L 343.500 325.639 350.887 336.819 C 354.949 342.969, 358.662 348, 359.137 348 C 359.611 348, 360 341.700, 360 334 C 360 325.333, 359.619 320, 359 320 C 358.390 320, 357.998 324.587, 357.995 331.750 L 357.989 343.500 350.245 331.772 C 345.985 325.321, 341.938 320.034, 341.250 320.022 C 340.308 320.005, 340 323.472, 340 334.083 M 375.656 321.133 C 371.533 323.530, 369.617 334.734, 372.108 341.881 C 374.298 348.163, 382.285 349.869, 387.077 345.077 C 389.830 342.324, 390 341.679, 390 334 C 390 326.321, 389.830 325.676, 387.077 322.923 C 383.962 319.808, 379.215 319.064, 375.656 321.133 M 401 334.083 C 401 344.903, 401.290 348.071, 402.250 347.754 C 403.024 347.498, 403.613 344.991, 403.798 341.171 L 404.095 335 407.350 335 C 410.334 335, 410.890 335.539, 414.052 341.492 C 418.546 349.953, 421.183 350.287, 416.928 341.857 L 413.827 335.713 416.327 333.607 C 419.689 330.774, 420.423 327.719, 418.592 324.177 C 416.840 320.791, 414.684 320.032, 406.750 320.014 L 401 320 401 334.083 M 426.536 320.941 C 426.216 321.459, 427.877 322.022, 430.227 322.191 L 434.500 322.500 434.780 335.250 C 435.154 352.305, 437 352.098, 437 335 L 437 322 441 322 C 443.200 322, 445 321.550, 445 321 C 445 319.716, 427.328 319.660, 426.536 320.941 M 454 334 C 454 342.667, 454.381 348, 455 348 C 455.564 348, 456 345.167, 456 341.500 L 456 335 463 335 L 470 335 470 341.583 C 470 346.405, 470.335 348.056, 471.250 347.751 C 472.150 347.452, 472.578 343.509, 472.778 333.668 C 473.017 321.952, 472.838 320, 471.528 320 C 470.314 320, 470 321.336, 470 326.500 L 470 333 463 333 L 456 333 456 326.500 C 456 322.833, 455.564 320, 455 320 C 454.381 320, 454 325.333, 454 334 M 498.818 334.007 C 501.371 341.710, 503.889 347.870, 504.412 347.696 C 505.264 347.412, 514 322.812, 514 320.696 C 514 320.222, 513.440 320.020, 512.755 320.248 C 512.071 320.476, 509.894 325.801, 507.919 332.082 L 504.327 343.500 500.446 331.750 C 498.311 325.288, 496.027 320, 495.370 320 C 494.607 320, 495.854 325.067, 498.818 334.007 M 522.670 333.250 C 517.654 347.342, 517.487 348, 518.922 348 C 519.430 348, 520.365 346.425, 521 344.500 L 522.155 341 528.500 341 L 534.845 341 536 344.500 C 537.015 347.575, 538.949 349.331, 539.029 347.250 C 539.111 345.123, 529.357 320, 528.449 320 C 527.865 320, 525.264 325.962, 522.670 333.250 M 548 334 C 548 351.190, 549.813 353.112, 550.218 336.351 L 550.500 324.702 558.255 336.351 C 562.520 342.758, 566.457 348, 567.005 348 C 567.618 348, 568 342.622, 568 334 C 568 316.810, 566.187 314.888, 565.782 331.649 L 565.500 343.298 557.745 331.649 C 553.480 325.242, 549.543 320, 548.995 320 C 548.382 320, 548 325.378, 548 334 M 581.923 322.923 C 579.170 325.676, 579 326.321, 579 334 C 579 341.679, 579.170 342.324, 581.923 345.077 C 584.974 348.128, 588.025 348.701, 592.387 347.043 C 595.330 345.924, 598.946 340, 596.686 340 C 595.935 340, 594.828 341.083, 594.225 342.406 C 592.005 347.279, 583.939 346.600, 581.952 341.374 C 580.715 338.120, 580.731 329.839, 581.980 326.553 C 583.971 321.317, 591.970 320.645, 594.195 325.528 C 595.563 328.532, 598.046 328.892, 597.283 325.976 C 595.688 319.876, 586.747 318.099, 581.923 322.923 M 609.923 322.923 C 607.170 325.676, 607 326.321, 607 334 C 607 341.679, 607.170 342.324, 609.923 345.077 C 613.685 348.839, 618.682 349.038, 622.694 345.587 C 625.294 343.350, 625.526 342.546, 625.852 334.611 C 626.196 326.214, 626.145 325.991, 623.179 323.025 C 619.039 318.885, 613.999 318.847, 609.923 322.923 M 636.667 320.667 C 635.567 321.766, 635.915 338.457, 637.108 341.881 C 638.261 345.189, 642.347 348, 646 348 C 648.874 348, 653.623 345.424, 654.379 343.455 C 655.403 340.786, 655.096 320, 654.033 320 C 653.485 320, 652.943 324.828, 652.783 331.145 C 652.510 341.902, 652.407 342.358, 649.837 344.275 C 648.023 345.628, 646.372 346.059, 644.657 345.629 C 639.629 344.367, 639 342.732, 639 330.929 C 639 320.925, 638.520 318.813, 636.667 320.667 M 663.488 321.250 C 663.722 321.938, 665.766 328.264, 668.029 335.309 C 670.418 342.747, 672.607 347.964, 673.247 347.751 C 674.419 347.360, 683.210 320.877, 682.428 320.095 C 681.406 319.073, 680.044 322.002, 676.714 332.384 L 673.223 343.268 669.394 331.634 C 667.220 325.028, 665.024 320, 664.314 320 C 663.626 320, 663.254 320.563, 663.488 321.250 M 691 334 L 691 348 699.500 348 C 704.500 348, 708 347.588, 708 347 C 708 346.429, 705 346, 701 346 L 694 346 694 340.500 L 694 335 700 335 C 703.333 335, 706 334.556, 706 334 C 706 333.444, 703.333 333, 700 333 L 694 333 694 327.500 L 694 322 701 322 C 705 322, 708 321.571, 708 321 C 708 320.412, 704.500 320, 699.500 320 L 691 320 691 334 M 718 334 C 718 342.667, 718.381 348, 719 348 C 719.564 348, 720 345.167, 720 341.500 L 720 335 723.785 335 C 727.449 335, 727.674 335.209, 730.776 341.500 C 732.539 345.075, 734.436 348, 734.991 348 C 736.686 348, 736.119 345.735, 733.117 340.513 L 730.250 335.526 733.125 333.778 C 735.479 332.346, 735.997 331.348, 735.985 328.265 C 735.959 321.887, 733.238 320, 724.066 320 L 718 320 718 334 M 763.795 321.549 C 759.489 323.886, 757.759 332.991, 760.052 341.248 C 761.174 345.288, 764.918 348, 769.374 348 C 772.175 348, 778 343.551, 778 341.411 C 778 339.316, 777.111 339.669, 774 343 C 770.704 346.528, 768.250 346.771, 764.635 343.927 C 762.193 342.007, 762 341.286, 762 334.102 C 762 327.290, 762.281 326.084, 764.314 324.174 C 767.539 321.145, 770.687 321.454, 774.128 325.137 C 777.377 328.615, 779.042 328.315, 777.058 324.609 C 774.697 320.196, 768.795 318.834, 763.795 321.549 M 789 334 C 789 342.667, 789.381 348, 790 348 C 790.564 348, 791 345.167, 791 341.500 L 791 335 798 335 L 805 335 805 341.583 C 805 346.406, 805.334 348.055, 806.250 347.750 C 807.167 347.444, 807.500 343.778, 807.500 334 C 807.500 324.222, 807.167 320.556, 806.250 320.250 C 805.334 319.945, 805 321.594, 805 326.417 L 805 333 798 333 L 791 333 791 326.500 C 791 322.833, 790.564 320, 790 320 C 789.381 320, 789 325.333, 789 334 M 825.501 321.250 C 825.261 321.938, 823.025 328.034, 820.532 334.797 C 815.468 348.536, 815.610 348, 817.051 348 C 817.629 348, 818.760 346.425, 819.564 344.500 C 821.004 341.054, 821.119 341, 827 341 C 832.881 341, 832.996 341.054, 834.436 344.500 C 835.240 346.425, 836.371 348, 836.949 348 C 837.527 348, 838 347.796, 838 347.547 C 838 347.159, 830.515 326.876, 828.481 321.750 C 827.671 319.711, 826.128 319.452, 825.501 321.250 M 846.222 333.668 C 846.422 343.509, 846.850 347.452, 847.750 347.751 C 848.698 348.066, 849.006 345.546, 849.026 337.333 L 849.051 326.500 852.854 335 C 854.945 339.675, 857.261 343.500, 858 343.500 C 858.739 343.500, 861.055 339.675, 863.146 335 L 866.949 326.500 866.974 337.333 C 866.994 345.546, 867.302 348.066, 868.250 347.751 C 869.150 347.452, 869.578 343.509, 869.778 333.668 C 870.128 316.475, 869.038 315.894, 862.901 330 C 860.508 335.500, 858.314 339.992, 858.025 339.982 C 857.736 339.972, 855.517 335.472, 853.093 329.982 C 846.921 315.999, 845.874 316.561, 846.222 333.668 M 881.436 321.305 C 881.161 322.023, 881.062 328.211, 881.218 335.055 L 881.500 347.500 888.646 347.500 C 894.271 347.500, 896.241 347.094, 897.896 345.595 C 900.605 343.142, 900.685 337.930, 898.051 335.546 C 896.120 333.799, 896.121 333.755, 898.167 330.989 C 900.694 327.570, 899.681 323.183, 895.921 321.265 C 892.609 319.575, 882.089 319.605, 881.436 321.305 M 911 334 L 911 348 919.500 348 C 929.874 348, 930.891 346.205, 920.750 345.794 L 913.500 345.500 913.198 340.250 L 912.895 335 919.448 335 C 923.149 335, 926 334.565, 926 334 C 926 333.436, 923.167 333, 919.500 333 L 913 333 913 327.500 L 913 322 920.500 322 C 924.833 322, 928 321.578, 928 321 C 928 320.412, 924.500 320, 919.500 320 L 911 320 911 334 M 938 334 C 938 342.667, 938.381 348, 939 348 C 939.565 348, 940 345.147, 940 341.440 L 940 334.879 943.750 335.190 C 947.208 335.476, 947.747 335.964, 950.672 341.474 C 952.417 344.760, 954.329 347.610, 954.922 347.807 C 956.524 348.341, 956.292 347.521, 952.986 340.971 C 951.328 337.687, 950.428 335, 950.986 335 C 953.231 335, 956 330.899, 956 327.573 C 956 322.343, 952.400 320, 944.365 320 L 938 320 938 334 M 376 324 C 374.341 325.659, 374.003 327.321, 374.015 333.750 C 374.032 342.114, 374.358 343.099, 377.684 344.850 C 380.955 346.572, 382.830 346.261, 385.545 343.545 C 387.690 341.401, 388 340.195, 388 334 C 388 327.805, 387.690 326.599, 385.545 324.455 C 382.572 321.482, 378.703 321.297, 376 324 M 403.843 327.501 L 403.500 333.003 408.316 333.001 C 414.684 333, 417 331.671, 417 328.022 C 417 324.235, 413.796 322, 408.370 322 L 404.185 322 403.843 327.501 M 611.861 323.912 C 609.728 325.639, 609.500 326.613, 609.500 334 C 609.500 341.387, 609.728 342.361, 611.861 344.088 C 618.917 349.802, 625.050 342.556, 623.520 330.312 C 622.544 322.501, 617.216 319.576, 611.861 323.912 M 720 327.500 L 720 333 725.429 333 C 731.467 333, 734 331.370, 734 327.485 C 734 324.137, 730.408 322, 724.777 322 L 720 322 720 327.500 M 884 327.500 L 884 333 888.277 333 C 893.827 333, 897 330.788, 897 326.919 C 897 323.467, 894.296 322, 887.935 322 L 884 322 884 327.500 M 940 327.500 L 940 333 945.345 333 C 949.253 333, 951.135 332.508, 952.345 331.171 C 956.362 326.733, 952.572 322, 945 322 L 940 322 940 327.500 M 525.678 331.443 L 523.137 339 528.509 339 L 533.881 339 531.445 331.838 C 530.105 327.898, 528.831 324.498, 528.614 324.281 C 528.397 324.063, 527.076 327.286, 525.678 331.443 M 824.241 331.250 C 823.008 334.688, 822 337.837, 822 338.250 C 822 338.663, 824.250 339, 827 339 C 829.750 339, 832 338.663, 832 338.250 C 832.001 336.864, 827.524 325, 827 325 C 826.715 325, 825.474 327.813, 824.241 331.250 M 884 340.500 L 884 346 887.935 346 C 893.588 346, 896.841 344.483, 897.591 341.495 C 898.646 337.291, 895.737 335, 889.345 335 L 884 335 884 340.500" stroke="none" fill="#fafaf8" fill-rule="evenodd"/></svg>