<svg xmlns="http://www.w3.org/2000/svg" width="1000" height="1000" viewBox="0 0 1000 1000" version="1.1"><path d="M 388.269 179.887 C 385.941 180.295, 383.814 180.852, 383.542 181.124 C 383.270 181.397, 383.987 184.067, 385.134 187.060 C 387.769 193.930, 387.989 203.261, 385.623 207.794 C 383.545 211.774, 379.255 214.544, 373.821 215.413 C 368.100 216.327, 364.128 218.641, 363.418 221.472 C 363.081 222.812, 362.973 230.117, 363.176 237.704 C 363.601 253.530, 364.928 257.711, 371.934 265.312 C 377.850 271.731, 384.514 274.408, 394.500 274.378 C 407.352 274.339, 416.579 268.699, 421.953 257.598 C 426.747 247.693, 426.942 207.440, 422.247 196.826 C 416.588 184.032, 403.062 177.289, 388.269 179.887 M 597.095 179.872 C 593.045 181.006, 592.387 183.215, 594.297 189.272 C 596.499 196.260, 596.460 202.649, 594.186 207.016 C 592.789 209.698, 590.546 211.420, 584.436 214.500 C 574.296 219.611, 573.957 220.487, 574.950 239 C 575.771 254.314, 577.574 259.362, 584.664 266.201 C 590.765 272.086, 597.063 274.436, 606.500 274.349 C 619.677 274.227, 628.410 268.764, 633.793 257.276 L 636.500 251.500 636.500 226.500 C 636.500 203.189, 636.358 201.192, 634.394 196.949 C 631.231 190.113, 626.204 185.012, 619.509 181.844 C 614.576 179.511, 612.246 179.019, 606.500 179.100 C 602.650 179.155, 598.418 179.502, 597.095 179.872" stroke="none" fill="#4d4d4d" fill-rule="evenodd"/><path d="M 494 253.164 C 482.492 254.371, 472.796 259.158, 465.228 267.368 C 458.397 274.779, 453.287 285.177, 454.538 289.120 C 455.197 291.197, 459.565 293.063, 464.350 293.311 C 466.352 293.415, 467.993 293.742, 467.996 294.037 C 468 294.578, 470.591 295.054, 474.750 295.279 C 475.988 295.345, 477 295.694, 477 296.054 C 477 296.413, 478.575 296.629, 480.500 296.533 C 482.425 296.437, 484 296.615, 484 296.929 C 484 297.243, 486.138 297.550, 488.750 297.611 C 491.363 297.672, 496.200 297.781, 499.500 297.854 C 506.503 298.009, 515.237 297.412, 519.500 296.488 C 521.150 296.130, 523.626 295.745, 525.002 295.631 C 526.379 295.517, 527.954 295.162, 528.502 294.842 C 529.051 294.521, 530.288 294.386, 531.250 294.541 C 532.212 294.696, 533 294.386, 533 293.852 C 533 293.319, 533.459 293.166, 534.020 293.512 C 535.342 294.329, 541.996 292.187, 544.250 290.219 C 545.212 289.378, 546 287.932, 546 287.005 C 546 284.656, 540.060 273, 538.863 273 C 538.323 273, 538.105 272.640, 538.377 272.199 C 539.075 271.070, 530.784 262.513, 526.271 259.705 C 517.226 254.079, 506.331 251.870, 494 253.164" stroke="none" fill="#fcc500" fill-rule="evenodd"/><path d="M 466.415 294.361 C 465.339 297.164, 469.653 311.636, 473.025 316.537 C 480.315 327.132, 492.786 332.287, 505.690 330.040 C 519.624 327.614, 528.316 320.625, 532.481 308.500 C 534.507 302.602, 535.322 294.317, 533.960 293.475 C 533.432 293.149, 533 293.319, 533 293.852 C 533 294.386, 532.212 294.696, 531.250 294.541 C 530.288 294.386, 529.051 294.521, 528.502 294.842 C 527.954 295.162, 526.379 295.517, 525.002 295.631 C 523.626 295.745, 521.150 296.130, 519.500 296.488 C 515.237 297.412, 506.503 298.009, 499.500 297.854 C 496.200 297.781, 491.363 297.672, 488.750 297.611 C 486.138 297.550, 484 297.243, 484 296.929 C 484 296.615, 482.425 296.437, 480.500 296.533 C 478.575 296.629, 477 296.431, 477 296.093 C 477 295.755, 475.762 295.419, 474.250 295.346 C 470.397 295.159, 468.612 294.656, 467.804 293.528 C 467.410 292.978, 466.807 293.340, 466.415 294.361 M 386.126 572.474 C 379.998 581.007, 377.739 587.369, 378.164 594.893 C 378.681 604.047, 383.360 613.656, 389.632 618.446 C 398.318 625.077, 400.988 625.501, 434 625.489 C 462.137 625.479, 463.754 625.376, 469 623.259 C 472.025 622.039, 476.167 619.665, 478.205 617.985 C 482.188 614.699, 487.499 604.869, 488.552 598.834 L 489.191 595.168 483.346 594.501 C 450.666 590.772, 416.889 581.592, 394.952 570.476 C 392.265 569.114, 389.903 568, 389.703 568 C 389.503 568, 387.893 570.013, 386.126 572.474 M 607.687 569.605 C 602.159 572.602, 582.302 580.194, 571 583.632 C 555.895 588.226, 540.225 591.575, 525.020 593.457 C 518.234 594.298, 512.499 595.168, 512.275 595.392 C 511.563 596.103, 514.120 604.304, 516.512 608.983 C 521.074 617.906, 529.270 623.324, 540.706 624.978 C 549.904 626.308, 589.199 626.263, 596.566 624.913 C 612.415 622.011, 623.313 609.474, 623.438 594 C 623.481 588.662, 622.923 586.338, 620.313 581 C 617.737 575.730, 611.940 567.862, 610.764 568.040 C 610.619 568.062, 609.234 568.766, 607.687 569.605" stroke="none" fill="#f39204" fill-rule="evenodd"/><path d="M 375.535 65.374 C 371.527 69.382, 367.628 78.214, 366.429 86 C 365.924 89.281, 364.834 97.573, 364.753 98.750 C 364.705 99.438, 364.133 100, 363.481 100 C 361.949 100, 346 86.213, 346 84.888 C 346 84.335, 345.588 84.136, 345.085 84.447 C 344.582 84.758, 344.005 84.515, 343.802 83.906 C 343.599 83.298, 341.658 82.800, 339.489 82.800 C 336.146 82.800, 335.047 83.387, 332.276 86.650 C 327.704 92.034, 324.966 99.951, 324.392 109.450 C 323.506 124.101, 323.766 123.536, 313.397 133.353 C 298.179 147.762, 292.036 158.977, 286.481 182.490 C 282.692 198.527, 281.690 210.132, 282.266 231.290 C 282.864 253.289, 285.434 270.586, 290.096 284 C 291.721 288.675, 293.152 292.950, 293.275 293.500 C 293.399 294.050, 293.725 294.726, 294 295.003 C 294.275 295.279, 295.583 297.529, 296.906 300.003 C 303.086 311.557, 316.648 325.462, 328.787 332.689 C 335.739 336.828, 350 343.370, 350 342.420 C 350 342.150, 350.838 342.378, 351.862 342.926 C 354.309 344.236, 362.313 345.828, 370 346.534 C 380.062 347.459, 384 347.603, 384 347.046 C 384 346.723, 386.137 346.379, 388.750 346.281 C 393.311 346.110, 399.500 345.387, 399.500 345.025 C 399.500 344.929, 400.625 344.654, 402 344.412 C 416.828 341.806, 435.811 331.241, 448.576 318.490 C 455.686 311.388, 466 297.752, 466 295.454 C 466 294.777, 464.313 293.914, 462.250 293.537 C 456.915 292.562, 454 290.411, 454 287.448 C 454 283.354, 459.541 273.610, 465.574 267.094 C 471.629 260.554, 481.981 254.603, 489.500 253.340 C 501.348 251.351, 514.293 253.048, 523.639 257.816 C 536.011 264.127, 550.222 286.313, 544.750 290.774 C 544.063 291.335, 541.611 292.354, 539.302 293.039 C 534.391 294.497, 533.331 296.294, 535.941 298.743 C 536.971 299.709, 539.912 303.357, 542.478 306.850 C 551.453 319.067, 559.990 326.913, 572.069 334.046 C 578.780 338.008, 591.737 343.280, 592.940 342.537 C 593.429 342.235, 593.980 342.410, 594.165 342.926 C 594.349 343.443, 596.525 344.153, 599 344.506 C 601.475 344.858, 605.075 345.389, 607 345.687 C 610.766 346.269, 632.753 346.329, 637.202 345.769 C 638.688 345.582, 640.195 345.139, 640.550 344.783 C 640.905 344.428, 641.781 344.362, 642.497 344.637 C 643.212 344.912, 644.099 344.648, 644.468 344.052 C 644.837 343.455, 645.513 343.199, 645.972 343.483 C 647.564 344.467, 664.498 336.579, 672.974 330.905 C 682.527 324.511, 692.502 315.241, 698.696 307 C 702.268 302.248, 710.949 286.500, 709.997 286.500 C 709.813 286.500, 710.220 285.458, 710.901 284.185 C 712.271 281.625, 712.436 280.984, 714.677 269.500 C 716.617 259.559, 716.856 193.237, 714.989 182.942 C 712.609 169.813, 707.078 158.182, 697.339 145.821 C 693.577 141.047, 688.973 134.522, 687.106 131.321 C 685.240 128.119, 682.816 124.198, 681.721 122.607 C 680.574 120.941, 680.317 120.068, 681.115 120.549 C 682.242 121.229, 682.271 121.101, 681.270 119.863 C 679.268 117.389, 675.288 105.976, 672.942 95.980 C 670.476 85.477, 668.086 82.046, 663.583 82.540 C 659.643 82.973, 654.138 87.105, 647.036 94.960 C 643.634 98.723, 640.199 101.705, 639.401 101.588 C 638.109 101.399, 634.186 96.878, 634.768 96.250 C 634.896 96.112, 634.957 95.888, 634.905 95.750 C 634.853 95.612, 634.632 93.025, 634.416 90 C 633.822 81.714, 633.801 81.593, 632.741 80.250 C 632.199 79.563, 632.090 79, 632.500 79 C 632.910 79, 632.685 78.325, 632 77.500 C 631.315 76.675, 631.044 76, 631.398 76 C 632.335 76, 628.135 68.061, 625.968 65.735 C 623.523 63.111, 618.528 62.608, 615.381 64.670 C 614.001 65.574, 603.810 76.706, 592.734 89.407 C 565.562 120.566, 545.538 140.611, 536.744 145.457 C 533.028 147.504, 529.428 149.296, 528.744 149.438 C 528.060 149.581, 526.748 150.026, 525.828 150.426 C 524.909 150.826, 523.334 151.310, 522.328 151.501 C 521.323 151.691, 520.500 151.916, 520.500 152 C 520.500 152.155, 518.898 152.543, 513.500 153.692 C 509.388 154.567, 486.196 154.461, 482.500 153.549 C 480.850 153.143, 479.050 152.727, 478.500 152.627 C 477.950 152.526, 476.938 152.092, 476.250 151.663 C 475.563 151.233, 475 151.149, 475 151.476 C 475 151.803, 473.988 151.508, 472.750 150.821 C 471.512 150.133, 470.275 149.553, 470 149.531 C 466.855 149.281, 455.292 139.544, 440.430 124.632 C 424.638 108.785, 416.255 99.855, 399.500 81.026 C 389.904 70.242, 382.087 63, 380.044 63 C 378.870 63, 376.841 64.068, 375.535 65.374 M 367.216 142.959 C 349.190 147.830, 332.796 161.109, 325.189 177 C 318.760 190.430, 317.503 198.446, 317.501 226 C 317.500 251.350, 318.465 259.759, 322.666 271 C 335.703 305.885, 377.126 322.765, 410.906 306.957 C 428.621 298.667, 441.812 283.412, 447.665 264.448 C 449.278 259.220, 449.500 254.746, 449.500 227.500 C 449.500 197.793, 449.402 196.187, 447.158 189 C 440.141 166.528, 425.895 151.735, 404.096 144.287 C 393.604 140.702, 377.688 140.129, 367.216 142.959 M 601 142.514 C 574.531 149.715, 554.417 172.465, 551.060 199 C 549.502 211.314, 550.414 255.346, 552.375 262.500 C 555.585 274.211, 561.613 284.684, 569.879 292.913 C 578.438 301.434, 585.405 305.906, 596.165 309.787 C 602.705 312.145, 604.910 312.428, 616.500 312.399 C 627.926 312.370, 630.388 312.049, 636.835 309.753 C 647.678 305.892, 654.563 301.437, 663.500 292.500 C 672.108 283.892, 677.289 275.073, 680.538 263.500 C 682.699 255.802, 683.784 212.370, 682.124 200.030 C 679.911 183.589, 673.928 171.193, 662.868 160.132 C 655.348 152.613, 648.039 147.890, 638.242 144.221 C 629.652 141.004, 609.882 140.098, 601 142.514 M 416.644 424.871 C 415.623 425.272, 414.174 427.058, 413.425 428.840 C 412.676 430.621, 412.499 431.810, 413.032 431.480 C 413.564 431.151, 414 431.792, 414 432.904 C 414 434.017, 416.747 437.863, 420.104 441.452 C 427.597 449.462, 436.405 454.199, 444.368 454.499 C 451.126 454.754, 456.137 454.030, 455.438 452.899 C 455.140 452.417, 455.554 452.275, 456.358 452.584 C 457.990 453.210, 462.893 450.966, 467.627 447.425 C 469.346 446.139, 471.146 445.405, 471.627 445.793 C 472.107 446.182, 472.239 446.164, 471.919 445.752 C 471.600 445.341, 473.300 442.957, 475.698 440.454 C 478.096 437.952, 479.818 435.514, 479.523 435.037 C 479.229 434.561, 479.386 434.020, 479.872 433.835 C 480.359 433.651, 481.060 432.093, 481.431 430.374 C 482.790 424.065, 482.408 423.992, 448.679 424.070 C 432.080 424.109, 417.665 424.469, 416.644 424.871 M 520.948 426.052 C 518.642 428.358, 518.770 431.721, 521.352 436.714 C 523.228 440.341, 531.865 448.201, 533.122 447.425 C 533.605 447.126, 534 447.297, 534 447.804 C 534 448.312, 536.813 450.015, 540.250 451.588 C 548.852 455.527, 557.910 455.491, 566.500 451.485 C 569.800 449.947, 572.837 448.758, 573.250 448.844 C 573.663 448.930, 574 448.325, 574 447.500 C 574 446.675, 574.337 446.053, 574.750 446.118 C 576.743 446.433, 578.056 445.899, 577.500 445 C 577.160 444.450, 577.610 444, 578.500 444 C 579.390 444, 579.840 443.550, 579.500 443 C 579.160 442.450, 579.610 442, 580.500 442 C 581.390 442, 581.840 441.550, 581.500 441 C 581.160 440.450, 581.659 440, 582.608 440 C 583.557 440, 584.047 439.713, 583.696 439.363 C 583.346 439.012, 583.932 437.499, 585 436 C 586.068 434.501, 586.654 432.988, 586.304 432.637 C 585.953 432.287, 586.128 432, 586.691 432 C 588.252 432, 587.703 426.665, 586 425.282 C 584.895 424.385, 576.394 424.055, 553.750 424.032 C 524.052 424.001, 522.930 424.070, 520.948 426.052 M 468.265 477.815 C 467.586 478.246, 466.769 479.927, 466.450 481.550 C 465.179 488.011, 478.744 501.883, 487.697 503.277 C 488.689 503.432, 489.950 503.812, 490.500 504.122 C 491.763 504.835, 507.704 504.487, 510.859 503.678 C 521.814 500.868, 533.839 489.773, 534.512 481.854 C 534.715 479.478, 534.263 478.670, 532.318 477.931 C 529.364 476.808, 470.020 476.700, 468.265 477.815" stroke="none" fill="#8edf01" fill-rule="evenodd"/><path d="M 328 22.026 C 319.310 23.231, 305.854 27.500, 299.588 31.041 C 283.780 39.975, 269.355 57.413, 263.912 74.170 C 258.383 91.189, 258.667 84.903, 258.062 203.500 C 257.637 286.611, 257.203 314.166, 256.285 316.223 C 255.617 317.721, 253.088 322.446, 250.665 326.723 C 248.242 331, 244.333 338.100, 241.978 342.500 C 239.623 346.900, 235.105 355, 231.938 360.500 C 226.527 369.899, 212.458 395.256, 199.479 419 C 196.322 424.775, 189.563 436.925, 184.459 446 C 168.119 475.050, 165 482.538, 165 492.714 C 165 505.713, 173.212 514.818, 188.877 519.186 C 197.952 521.716, 208.980 522.522, 232.500 522.374 C 259.052 522.206, 274.158 519.701, 298.445 511.436 C 303.975 509.555, 309.533 508.012, 310.795 508.007 C 312.433 508.002, 316.911 511.932, 326.454 521.750 C 338.908 534.563, 342.910 538.026, 360 550.781 C 369.230 557.669, 386.549 568.125, 389.232 568.429 C 390.479 568.570, 393.363 569.640, 395.640 570.807 C 412.698 579.548, 444.433 588.971, 468.500 592.440 C 474.550 593.312, 482.656 594.516, 486.514 595.114 C 503.331 597.723, 538.640 593.091, 568.456 584.364 C 580.286 580.901, 600.003 573.529, 607.247 569.860 L 610.994 567.962 613.747 570.779 C 615.261 572.329, 615.612 572.538, 614.526 571.246 C 613.180 569.642, 612.907 568.673, 613.668 568.197 C 614.282 567.814, 618.995 564.887, 624.142 561.694 C 644.434 549.106, 668.222 529.179, 682.859 512.507 C 687.353 507.389, 689.591 506.823, 696.059 509.165 C 725.653 519.884, 740.521 522.387, 774 522.290 C 790.536 522.242, 799.937 521.770, 805.723 520.697 C 825.943 516.947, 835.966 507.516, 835.990 492.218 C 836.007 481.643, 833.985 476.835, 815.507 443.500 C 800.779 416.930, 782.581 384.218, 775.452 371.500 C 757.385 339.268, 744.536 315.110, 743.333 311.110 C 742.261 307.550, 741.994 286.771, 741.969 205.091 C 741.951 145.466, 741.537 100.402, 740.968 96 C 738.103 73.851, 731.870 60.074, 718.359 46.026 C 708.195 35.457, 701.582 30.981, 690.160 26.939 C 674.144 21.271, 655.314 20.590, 638 25.052 C 633.325 26.256, 617.350 32.083, 602.500 37.999 C 577.971 47.772, 546.546 58.617, 531.750 62.415 C 514.671 66.799, 489.227 67.069, 473.045 63.038 C 457.278 59.111, 422.597 47.307, 399.500 38.007 C 386.850 32.913, 373.800 27.891, 370.500 26.847 C 355.602 22.132, 340.006 20.363, 328 22.026 M 375.535 65.374 C 371.527 69.382, 367.628 78.214, 366.429 86 C 365.924 89.281, 364.834 97.573, 364.753 98.750 C 364.705 99.438, 364.133 100, 363.481 100 C 361.949 100, 346 86.213, 346 84.888 C 346 84.335, 345.588 84.136, 345.085 84.447 C 344.582 84.758, 344.005 84.515, 343.802 83.906 C 343.599 83.298, 341.658 82.800, 339.489 82.800 C 336.146 82.800, 335.047 83.387, 332.276 86.650 C 327.704 92.034, 324.966 99.951, 324.392 109.450 C 323.506 124.101, 323.766 123.536, 313.397 133.353 C 298.179 147.762, 292.036 158.977, 286.481 182.490 C 282.692 198.527, 281.690 210.132, 282.266 231.290 C 282.864 253.289, 285.434 270.586, 290.096 284 C 291.721 288.675, 293.152 292.950, 293.275 293.500 C 293.399 294.050, 293.725 294.726, 294 295.003 C 294.275 295.279, 295.583 297.529, 296.906 300.003 C 303.086 311.557, 316.648 325.462, 328.787 332.689 C 335.739 336.828, 350 343.370, 350 342.420 C 350 342.150, 350.838 342.378, 351.862 342.926 C 354.309 344.236, 362.313 345.828, 370 346.534 C 380.062 347.459, 384 347.603, 384 347.046 C 384 346.723, 386.137 346.379, 388.750 346.281 C 393.311 346.110, 399.500 345.387, 399.500 345.025 C 399.500 344.929, 400.625 344.654, 402 344.412 C 406.606 343.602, 417.277 339.893, 422.414 337.316 C 437.197 329.898, 451.158 317.820, 460.767 304.138 L 465.883 296.853 467.012 301.176 C 469.581 311.013, 470.425 313.028, 473.914 317.654 C 481.226 327.347, 493.568 332.151, 505.722 330.035 C 516.086 328.230, 523.632 323.780, 528.709 316.480 C 530.712 313.599, 533.828 305.377, 534.404 301.452 C 534.922 297.926, 536.789 298.950, 541.253 305.206 C 550.445 318.086, 559.681 326.731, 572.069 334.046 C 578.780 338.008, 591.737 343.280, 592.940 342.537 C 593.429 342.235, 593.980 342.410, 594.165 342.926 C 594.349 343.443, 596.525 344.153, 599 344.506 C 601.475 344.858, 605.075 345.389, 607 345.687 C 610.766 346.269, 632.753 346.329, 637.202 345.769 C 638.688 345.582, 640.195 345.139, 640.550 344.783 C 640.905 344.428, 641.781 344.362, 642.497 344.637 C 643.212 344.912, 644.099 344.648, 644.468 344.052 C 644.837 343.455, 645.513 343.199, 645.972 343.483 C 647.564 344.467, 664.498 336.579, 672.974 330.905 C 682.527 324.511, 692.502 315.241, 698.696 307 C 702.268 302.248, 710.949 286.500, 709.997 286.500 C 709.813 286.500, 710.220 285.458, 710.901 284.185 C 712.271 281.625, 712.436 280.984, 714.677 269.500 C 716.617 259.559, 716.856 193.237, 714.989 182.942 C 712.609 169.813, 707.078 158.182, 697.339 145.821 C 693.577 141.047, 688.973 134.522, 687.106 131.321 C 685.240 128.119, 682.816 124.198, 681.721 122.607 C 680.574 120.941, 680.317 120.068, 681.115 120.549 C 682.242 121.229, 682.271 121.101, 681.270 119.863 C 679.268 117.389, 675.288 105.976, 672.942 95.980 C 670.476 85.477, 668.086 82.046, 663.583 82.540 C 659.643 82.973, 654.138 87.105, 647.036 94.960 C 643.634 98.723, 640.199 101.705, 639.401 101.588 C 638.109 101.399, 634.186 96.878, 634.768 96.250 C 634.896 96.112, 634.957 95.888, 634.905 95.750 C 634.853 95.612, 634.632 93.025, 634.416 90 C 633.822 81.714, 633.801 81.593, 632.741 80.250 C 632.199 79.563, 632.090 79, 632.500 79 C 632.910 79, 632.685 78.325, 632 77.500 C 631.315 76.675, 631.044 76, 631.398 76 C 632.335 76, 628.135 68.061, 625.968 65.735 C 623.523 63.111, 618.528 62.608, 615.381 64.670 C 614.001 65.574, 603.810 76.706, 592.734 89.407 C 565.562 120.566, 545.538 140.611, 536.744 145.457 C 533.028 147.504, 529.428 149.296, 528.744 149.438 C 528.060 149.581, 526.748 150.026, 525.828 150.426 C 524.909 150.826, 523.334 151.310, 522.328 151.501 C 521.323 151.691, 520.500 151.916, 520.500 152 C 520.500 152.155, 518.898 152.543, 513.500 153.692 C 509.388 154.567, 486.196 154.461, 482.500 153.549 C 480.850 153.143, 479.050 152.727, 478.500 152.627 C 477.950 152.526, 476.938 152.092, 476.250 151.663 C 475.563 151.233, 475 151.149, 475 151.476 C 475 151.803, 473.988 151.508, 472.750 150.821 C 471.512 150.133, 470.275 149.553, 470 149.531 C 466.855 149.281, 455.292 139.544, 440.430 124.632 C 424.638 108.785, 416.255 99.855, 399.500 81.026 C 389.904 70.242, 382.087 63, 380.044 63 C 378.870 63, 376.841 64.068, 375.535 65.374 M 574.336 237 C 574.336 241.125, 574.513 242.813, 574.728 240.750 C 574.944 238.688, 574.944 235.313, 574.728 233.250 C 574.513 231.188, 574.336 232.875, 574.336 237 M 416.644 424.871 C 415.623 425.272, 414.174 427.058, 413.425 428.840 C 412.676 430.621, 412.499 431.810, 413.032 431.480 C 413.564 431.151, 414 431.792, 414 432.904 C 414 434.017, 416.747 437.863, 420.104 441.452 C 427.597 449.462, 436.405 454.199, 444.368 454.499 C 451.126 454.754, 456.137 454.030, 455.438 452.899 C 455.140 452.417, 455.554 452.275, 456.358 452.584 C 457.990 453.210, 462.893 450.966, 467.627 447.425 C 469.346 446.139, 471.146 445.405, 471.627 445.793 C 472.107 446.182, 472.239 446.164, 471.919 445.752 C 471.600 445.341, 473.300 442.957, 475.698 440.454 C 478.096 437.952, 479.818 435.514, 479.523 435.037 C 479.229 434.561, 479.386 434.020, 479.872 433.835 C 480.359 433.651, 481.060 432.093, 481.431 430.374 C 482.790 424.065, 482.408 423.992, 448.679 424.070 C 432.080 424.109, 417.665 424.469, 416.644 424.871 M 520.948 426.052 C 518.642 428.358, 518.770 431.721, 521.352 436.714 C 523.228 440.341, 531.865 448.201, 533.122 447.425 C 533.605 447.126, 534 447.297, 534 447.804 C 534 448.312, 536.813 450.015, 540.250 451.588 C 548.852 455.527, 557.910 455.491, 566.500 451.485 C 569.800 449.947, 572.837 448.758, 573.250 448.844 C 573.663 448.930, 574 448.325, 574 447.500 C 574 446.675, 574.337 446.053, 574.750 446.118 C 576.743 446.433, 578.056 445.899, 577.500 445 C 577.160 444.450, 577.610 444, 578.500 444 C 579.390 444, 579.840 443.550, 579.500 443 C 579.160 442.450, 579.610 442, 580.500 442 C 581.390 442, 581.840 441.550, 581.500 441 C 581.160 440.450, 581.659 440, 582.608 440 C 583.557 440, 584.047 439.713, 583.696 439.363 C 583.346 439.012, 583.932 437.499, 585 436 C 586.068 434.501, 586.654 432.988, 586.304 432.637 C 585.953 432.287, 586.128 432, 586.691 432 C 588.252 432, 587.703 426.665, 586 425.282 C 584.895 424.385, 576.394 424.055, 553.750 424.032 C 524.052 424.001, 522.930 424.070, 520.948 426.052 M 468.265 477.815 C 467.586 478.246, 466.769 479.927, 466.450 481.550 C 465.179 488.011, 478.744 501.883, 487.697 503.277 C 488.689 503.432, 489.950 503.812, 490.500 504.122 C 491.763 504.835, 507.704 504.487, 510.859 503.678 C 521.814 500.868, 533.839 489.773, 534.512 481.854 C 534.715 479.478, 534.263 478.670, 532.318 477.931 C 529.364 476.808, 470.020 476.700, 468.265 477.815 M 478.286 756.109 C 473.721 757.429, 463.324 767.427, 460.283 773.424 C 455.215 783.414, 455.106 785.027, 455.036 851.147 C 454.997 888.714, 455.350 913.790, 455.941 915.345 C 457.795 920.221, 461.339 921.500, 473 921.500 C 484.639 921.500, 488.206 920.220, 490.045 915.383 C 491.352 911.944, 491.329 761.484, 490.021 759.039 C 489.483 758.033, 487.616 756.713, 485.872 756.105 C 482.294 754.858, 482.617 754.858, 478.286 756.109 M 530.358 755.954 C 516.771 759.194, 510.056 774.259, 517.446 784.923 C 521.672 791.021, 528.105 794.494, 534.992 794.396 C 541.295 794.307, 545.145 792.588, 549.689 787.835 C 554.840 782.447, 556.460 775.009, 553.940 768.315 C 552.139 763.530, 545.989 758.074, 540.586 756.470 C 535.190 754.867, 534.963 754.856, 530.358 755.954 M 136.500 757.844 C 132.226 760.461, 126.479 767.122, 123.609 772.785 C 120.037 779.834, 118.179 788.048, 117.395 800.250 C 117.016 806.163, 116.659 810.997, 116.603 810.993 C 116.546 810.989, 113.125 809.814, 109 808.382 C 81.848 798.954, 50.142 809.855, 35.778 833.556 C 29.794 843.430, 27.690 850.946, 27.394 863.500 C 26.933 883.067, 31.503 894.689, 44.915 908.056 C 58.130 921.227, 69.547 926, 87.839 926 C 97.724 926, 105.970 924.163, 113.415 920.303 C 116.212 918.853, 120.199 916.788, 122.277 915.715 L 126.053 913.765 129.777 916.433 C 131.824 917.900, 134.636 919.989, 136.023 921.076 C 141.463 925.336, 150.576 924.421, 152.870 919.385 C 153.679 917.610, 154 894.649, 154 838.526 L 154 760.145 151.365 758.073 C 147.975 755.406, 140.667 755.293, 136.500 757.844 M 823.021 805.733 C 812.391 810.176, 801.645 811.107, 789.642 808.625 C 748.592 800.135, 713.547 825.363, 718.997 859.479 C 720.225 867.171, 722.552 872.304, 728.114 879.592 C 730.251 882.393, 732 885.168, 732 885.758 C 732 886.348, 730.166 888.557, 727.924 890.666 C 721.346 896.853, 717.290 903.093, 714.559 911.230 C 711.414 920.598, 711.249 928.742, 713.985 939.443 C 716.563 949.520, 720.667 956.550, 727.861 963.211 C 739.629 974.106, 755.027 978.614, 777.471 977.736 C 798.905 976.897, 812.881 971.473, 823.164 960 C 834.855 946.958, 839.104 927.291, 833.889 910.355 C 831.225 901.701, 827.878 896.694, 821.324 891.557 C 818.478 889.326, 816.115 886.894, 816.074 886.153 C 816.033 885.413, 817.863 882.713, 820.140 880.153 C 822.417 877.594, 825.436 873.025, 826.848 870 C 829.156 865.057, 829.424 863.234, 829.495 852 C 829.583 838.226, 830.305 835.850, 836.034 830.500 C 840.540 826.292, 842 822.195, 842 813.755 C 842 800.867, 838.352 799.325, 823.021 805.733 M 367 804.988 C 342.581 808.300, 322.590 824.280, 314.703 846.794 C 311.810 855.055, 311.401 872.412, 313.895 881.133 C 317.137 892.468, 320.914 898.813, 329.599 907.506 C 342.680 920.599, 357.188 926.359, 375.959 925.909 C 390.475 925.561, 401.720 921.780, 413.116 913.415 C 431.801 899.698, 440.918 874.247, 435.451 851.055 C 433.150 841.291, 426.535 829.579, 419.214 822.306 C 406.563 809.738, 384.918 802.559, 367 804.988 M 633.825 805.543 C 630.704 806.300, 623.661 809.188, 618.176 811.960 C 612.690 814.732, 607.452 817, 606.535 817 C 604.056 817, 600.995 815.168, 596.272 810.858 C 590.718 805.789, 585.376 805.470, 580.906 809.940 L 577.965 812.881 578.058 862.190 C 578.123 897.080, 578.494 912.524, 579.325 915 C 581.238 920.700, 585.347 922.174, 598.243 921.789 C 608.433 921.485, 609.128 921.327, 611.743 918.713 L 614.500 915.957 615.121 887.626 C 615.829 855.304, 616.552 851.357, 622.764 845.902 C 635.257 834.934, 650.259 837.337, 657.487 851.466 L 660.500 857.354 661 885.927 C 661.549 917.285, 661.711 918.146, 667.548 920.585 C 672.552 922.675, 687.555 922.469, 692 920.248 C 697.854 917.324, 698.247 914.678, 697.684 882 C 697.131 849.978, 696.404 845.009, 690.424 832.407 C 680.377 811.235, 656.697 799.995, 633.825 805.543 M 901.721 805.115 C 893.967 806.124, 881.492 810.656, 874.957 814.838 C 864.779 821.351, 854.778 834.760, 850.809 847.216 C 842.055 874.684, 855.218 906.633, 880.403 919.046 C 899.617 928.515, 922.251 928.283, 941.012 918.424 C 950.259 913.565, 962.510 900.909, 966.929 891.648 C 973.084 878.753, 974.519 864.259, 971.003 850.511 C 963.319 820.470, 933.563 800.972, 901.721 805.115 M 184.500 809.850 C 181.243 810.909, 179.367 812.357, 178.080 814.807 C 176.491 817.833, 175.732 862.553, 177.084 873.500 C 179.269 891.184, 184.260 902.235, 194.935 913.025 C 200.220 918.367, 203.060 920.316, 209.500 923.025 C 216.826 926.105, 218.385 926.392, 228 926.433 C 240.298 926.484, 245.018 925.149, 256.092 918.489 C 260.167 916.038, 264.523 914.026, 265.772 914.017 C 267.029 914.007, 269.934 915.724, 272.272 917.858 C 274.598 919.980, 277.483 922.230, 278.684 922.858 C 283.711 925.486, 292.195 923.134, 293.359 918.790 C 293.697 917.531, 293.979 894.548, 293.986 867.718 C 294.002 813.168, 294 813.151, 287.568 810.464 C 283.117 808.604, 269.058 808.531, 264.718 810.345 C 258.484 812.951, 258.553 812.613, 257.939 843.901 C 257.408 870.962, 257.253 872.783, 255.063 877.757 C 251.999 884.713, 247.523 888.516, 240.563 890.073 C 228.858 892.693, 218.210 887.219, 215.087 876.976 C 214.125 873.821, 213.600 864.238, 213.306 844.500 C 213.048 827.178, 212.474 815.659, 211.800 814.295 C 209.934 810.519, 205.091 808.990, 195.349 809.100 C 190.482 809.155, 185.600 809.492, 184.500 809.850 M 523 810.752 C 515.969 814.264, 516.003 813.996, 516.003 865.500 C 516.003 917.004, 515.969 916.736, 523 920.248 C 527.426 922.459, 541.491 922.657, 546.466 920.579 C 553.066 917.821, 553 918.379, 553 865.500 C 553 812.847, 553.099 813.698, 546.643 810.635 C 541.779 808.327, 527.715 808.396, 523 810.752 M 769.589 837.121 C 763.584 838.525, 759.348 841.650, 757.071 846.353 C 751.387 858.094, 758.135 871.698, 770.567 873.562 C 783.969 875.572, 793.553 866.858, 792.774 853.370 C 792.494 848.509, 791.832 846.469, 789.578 843.514 C 785.290 837.891, 777.267 835.325, 769.589 837.121 M 85.723 838.134 C 72.504 840.093, 65 849.983, 65 865.448 C 65 874.986, 67.150 881, 72.189 885.552 C 77.858 890.674, 82.323 892.341, 90.500 892.391 C 107.123 892.492, 118.153 879.953, 116.755 862.543 C 115.434 846.075, 102.229 835.689, 85.723 838.134 M 370.147 838.171 C 354.409 840.918, 345.794 857.637, 350.940 875.445 C 351.904 878.779, 353.856 881.925, 356.934 885.105 C 369.983 898.583, 392.111 893.371, 398.556 875.302 C 402.946 862.996, 397.734 847.769, 386.646 840.504 C 383.374 838.360, 375.468 837.242, 370.147 838.171 M 898.882 840.793 C 892.907 843.914, 887.629 850.075, 886.046 855.775 C 884.539 861.201, 884.770 871.097, 886.520 876.056 C 888.730 882.321, 892.052 886.165, 898.130 889.488 C 902.643 891.955, 904.616 892.420, 910.500 892.401 C 925.900 892.352, 935.017 882.449, 935.005 865.785 C 934.996 853.311, 930.646 844.996, 921.832 840.603 C 914.426 836.913, 906.179 836.981, 898.882 840.793 M 767.326 905.119 C 761.396 906.186, 757.729 908.330, 753.615 913.137 C 749.618 917.806, 748.529 921.750, 749.228 929.026 C 751.132 948.831, 782.799 955.085, 795.679 938.199 C 801.823 930.143, 801.128 920.349, 793.852 912.455 C 787.847 905.940, 777.958 903.205, 767.326 905.119" stroke="none" fill="#7ac804" fill-rule="evenodd"/><path d="M 367.216 142.959 C 349.190 147.830, 332.796 161.109, 325.189 177 C 318.760 190.430, 317.503 198.446, 317.501 226 C 317.500 251.350, 318.465 259.759, 322.666 271 C 335.703 305.885, 377.126 322.765, 410.906 306.957 C 428.621 298.667, 441.812 283.412, 447.665 264.448 C 449.278 259.220, 449.500 254.746, 449.500 227.500 C 449.500 197.793, 449.402 196.187, 447.158 189 C 440.141 166.528, 425.895 151.735, 404.096 144.287 C 393.604 140.702, 377.688 140.129, 367.216 142.959 M 601 142.514 C 574.531 149.715, 554.417 172.465, 551.060 199 C 549.502 211.314, 550.414 255.346, 552.375 262.500 C 555.585 274.211, 561.613 284.684, 569.879 292.913 C 578.438 301.434, 585.405 305.906, 596.165 309.787 C 602.705 312.145, 604.910 312.428, 616.500 312.399 C 627.926 312.370, 630.388 312.049, 636.835 309.753 C 647.678 305.892, 654.563 301.437, 663.500 292.500 C 672.108 283.892, 677.289 275.073, 680.538 263.500 C 682.699 255.802, 683.784 212.370, 682.124 200.030 C 679.911 183.589, 673.928 171.193, 662.868 160.132 C 655.348 152.613, 648.039 147.890, 638.242 144.221 C 629.652 141.004, 609.882 140.098, 601 142.514 M 598.254 179.104 C 592.400 180.499, 591.485 182.620, 593.993 188.983 C 598.719 200.973, 594.823 210.905, 583.982 214.506 C 581.400 215.364, 578.210 217.215, 576.894 218.621 C 574.591 221.079, 574.504 221.716, 574.593 235.338 C 574.671 247.332, 575.017 250.354, 576.851 255.079 C 581.539 267.159, 591.068 274.045, 604.144 274.802 C 618.204 275.616, 628.908 269.282, 634.489 256.846 L 637.296 250.591 637.241 226.546 C 637.179 199.120, 636.706 196.976, 628.839 188.441 C 621.081 180.025, 609.378 176.453, 598.254 179.104 M 386.500 179.656 C 383.085 180.575, 382.916 181.444, 384.989 187.468 C 386.095 190.683, 387 195.732, 387 198.689 C 387 209.060, 382.756 214.111, 372.951 215.412 C 369.942 215.811, 366.964 216.988, 365.269 218.448 L 362.500 220.833 362.783 234.666 C 363.103 250.342, 364.490 256.616, 369.015 262.862 C 372.395 267.528, 379.491 272.486, 384.965 274.007 C 390.375 275.510, 400.091 275.188, 405.572 273.324 C 412.212 271.066, 420.997 262.308, 423.450 255.500 C 425.760 249.090, 426.818 217.279, 425.091 206.149 C 423.288 194.526, 418.616 187.286, 409.836 182.507 C 405.424 180.106, 403.169 179.574, 396.512 179.367 C 392.106 179.230, 387.600 179.360, 386.500 179.656" stroke="none" fill="#fafafa" fill-rule="evenodd"/></svg>