<svg xmlns="http://www.w3.org/2000/svg" width="1978" height="600" viewBox="0 0 1978 600" version="1.1"><path d="M 412.607 457.313 L 259.714 564.500 268.607 565.852 C 274.098 566.687, 286.873 567.234, 302 567.282 C 322.595 567.348, 328.788 567.007, 340.856 565.142 C 369.849 560.662, 395.448 552.597, 420.926 539.915 C 438.598 531.118, 446.806 526.093, 462.500 514.462 C 509.668 479.506, 545.380 427.525, 560.376 372 C 562.938 362.514, 565.966 349.944, 565.661 350.063 C 565.573 350.098, 496.698 398.360, 412.607 457.313" stroke="none" fill="#014587" fill-rule="evenodd"/><path d="M 509.779 289.459 C 479.132 310.931, 453.585 328.982, 453.007 329.572 C 452.270 330.324, 452.676 332.566, 454.364 337.072 C 459.067 349.625, 460.497 358.407, 460.457 374.500 C 460.427 386.859, 460.021 390.987, 458.152 397.946 C 449.823 428.971, 425.232 453.585, 391.164 464.999 C 377.142 469.696, 365.541 471.392, 348 471.306 C 325.941 471.199, 304.393 466.973, 280.796 458.125 L 273.092 455.236 220.296 492.181 C 191.258 512.500, 167.113 529.507, 166.640 529.973 C 165.086 531.504, 201.483 548.639, 217.500 553.918 C 230.042 558.052, 248.894 562.877, 257.611 564.183 C 259.083 564.404, 305.512 532.427, 411.057 458.500 C 494.292 400.200, 563.185 351.825, 564.154 351 C 568.896 346.961, 571.658 296.637, 568.571 270.500 C 567.662 262.800, 566.599 255.131, 566.209 253.459 L 565.500 250.417 509.779 289.459 M 351.291 400.320 C 325.928 418.035, 308.065 431.152, 308.041 432.079 C 307.976 434.602, 315.123 444.111, 319.721 447.618 C 328.590 454.383, 344.471 457.534, 357.500 455.114 C 365.690 453.593, 375.028 448.818, 379.504 443.864 C 389.506 432.793, 395.539 408.134, 394.806 381.320 L 394.500 370.139 351.291 400.320" stroke="none" fill="#055192" fill-rule="evenodd"/><path d="M 480.748 241.673 L 412.996 289.110 420.447 294.093 C 429.296 300.012, 441.154 312.440, 446.316 321.206 C 448.354 324.668, 450.398 328.091, 450.859 328.813 C 451.478 329.785, 465.720 320.320, 505.598 292.434 C 535.244 271.703, 560.920 253.684, 562.656 252.392 L 565.812 250.042 564.289 243.271 C 561.573 231.197, 556.276 213.726, 552.343 203.868 L 548.500 194.236 480.748 241.673 M 339.500 340.471 C 318.051 355.526, 300.071 368.526, 299.546 369.359 C 298.338 371.273, 300.490 406.073, 302.337 414.500 C 304.291 423.417, 307.228 432.239, 307.905 431.227 C 308.232 430.738, 328.021 416.674, 351.879 399.973 L 395.259 369.608 394.600 360.041 C 393.381 342.342, 388.732 325.103, 382.848 316.462 C 381.557 314.565, 380.050 313.033, 379.500 313.056 C 378.950 313.079, 360.950 325.416, 339.500 340.471 M 181.533 450.990 C 148.002 474.535, 120.422 494.233, 120.245 494.764 C 119.551 496.848, 141.144 514.570, 156.889 524.837 C 164.415 529.744, 165.496 530.174, 167.389 529.011 C 169.212 527.891, 271.861 456.262, 272.875 455.402 C 273.081 455.227, 271.281 454.300, 268.875 453.342 C 266.469 452.384, 259.178 448.985, 252.673 445.789 C 241.268 440.185, 240.867 439.880, 241.426 437.239 C 242.243 433.383, 243.962 416.242, 243.983 411.750 C 243.992 409.688, 243.662 408.041, 243.250 408.090 C 242.838 408.140, 215.065 427.444, 181.533 450.990" stroke="none" fill="#0972b1" fill-rule="evenodd"/><path d="M 415.610 140.003 L 354.720 182.692 344.110 198.661 C 331.922 217.006, 323.758 227.666, 311.015 241.875 L 302 251.927 302 274.047 C 302 286.213, 302.337 296.013, 302.750 295.825 C 303.163 295.637, 306.650 293.864, 310.500 291.884 C 324.277 284.799, 345.355 278, 353.542 278 C 356.267 278, 371.463 267.754, 442.664 217.909 C 489.874 184.859, 528.454 157.282, 528.398 156.628 C 528.246 154.870, 516.803 139.044, 508.137 128.607 C 500.727 119.682, 480.962 99.681, 478 98.109 C 476.927 97.540, 459.167 109.465, 415.610 140.003 M 217.250 279.023 L 190 298.113 190 314.947 L 190 331.782 177.250 337.034 C 155.674 345.922, 130.174 353.718, 108.568 358.033 C 103.305 359.084, 99.814 361.192, 77.568 376.755 C 63.781 386.401, 52.348 394.417, 52.162 394.569 C 51.506 395.101, 60.229 414.638, 66.197 426 C 71.501 436.099, 83.349 454.869, 88.874 461.925 L 90.773 464.350 168.386 410.028 L 246 355.706 245.869 330.603 C 245.797 316.796, 245.459 295.247, 245.119 282.717 L 244.500 259.933 217.250 279.023" stroke="none" fill="#1991cc" fill-rule="evenodd"/><path d="M 280.500 33.143 C 190.668 40.945, 109.676 94.780, 67.911 174.449 C 62.665 184.455, 55 201.275, 55 202.779 C 55 203.109, 58.262 196.875, 62.250 188.925 C 89.966 133.667, 137.397 88.982, 193.116 65.638 C 227.073 51.411, 258.766 44.992, 294.970 45.008 C 315.070 45.017, 325.489 45.902, 342.500 49.047 C 362.635 52.768, 397.005 63.702, 396.996 66.382 C 396.986 69.492, 389.681 98.111, 385.991 109.500 C 378.269 133.334, 365.904 161.657, 355.380 179.615 C 352.947 183.766, 357.041 181.081, 414.812 140.632 C 448.937 116.739, 477.212 97.485, 477.645 97.845 C 478.079 98.205, 477.797 97.671, 477.018 96.657 C 476.239 95.644, 470.404 90.903, 464.051 86.121 C 411.068 46.242, 345.982 27.457, 280.500 33.143 M 200.844 89.349 C 190.493 93.172, 182.633 100.280, 178.141 109.880 C 175.848 114.780, 175.512 116.782, 175.520 125.500 C 175.528 134.374, 175.851 136.201, 178.389 141.722 C 186 158.283, 205.021 167.185, 222.971 162.586 C 234.112 159.732, 242.331 153.006, 248.129 142 C 250.225 138.022, 250.500 136.167, 250.500 126 C 250.500 115.512, 250.261 114.013, 247.782 108.967 C 244.313 101.903, 237.097 94.687, 230.033 91.218 C 225.302 88.894, 223.051 88.464, 214.500 88.250 C 207.990 88.087, 203.224 88.471, 200.844 89.349 M 233.972 185.484 C 221.699 188.361, 202.881 190.704, 181.500 192.016 C 172.150 192.589, 161.238 193.309, 157.250 193.615 L 150 194.171 150 198.460 C 150 202.465, 150.208 202.792, 153.125 203.375 C 154.844 203.719, 157.972 204, 160.076 204 C 173.469 204, 184.940 210.150, 187.864 218.899 C 188.645 221.238, 189.070 239.493, 189.225 277.399 C 189.348 307.705, 189.584 324.756, 189.748 315.290 L 190.047 298.080 217.273 279.008 L 244.500 259.936 245.031 280.218 C 245.539 299.579, 245.573 299.065, 245.781 268.912 C 246.022 234.078, 245.014 182.929, 244.089 183.125 C 243.765 183.194, 239.213 184.256, 233.972 185.484 M 89.126 360.573 C 78.328 362.252, 57.831 364, 48.926 364 L 41.962 364 42.600 366.750 C 42.950 368.262, 45.096 375.255, 47.369 382.289 L 51.500 395.078 76 377.940 C 89.475 368.514, 100.927 360.397, 101.450 359.901 C 102.659 358.755, 99.817 358.909, 89.126 360.573 M 245.378 381 C 245.378 387.325, 245.541 389.913, 245.739 386.750 C 245.937 383.587, 245.937 378.413, 245.739 375.250 C 245.541 372.087, 245.378 374.675, 245.378 381" stroke="none" fill="#26b4e9" fill-rule="evenodd"/><path d="M 270.302 8.571 C 171.297 20.569, 85.211 81.459, 41.539 170.377 C 26.300 201.405, 18.277 227.747, 13.328 263 C 10.641 282.144, 10.877 320.615, 13.804 340.583 C 18.519 372.744, 27.104 400.321, 41.487 429.500 C 63.212 473.576, 93.487 509.512, 133 538.126 C 213.619 596.507, 318.583 609.840, 411.608 573.515 C 417.717 571.130, 425.014 568.013, 427.824 566.589 L 432.934 564 1153.542 564 L 1874.150 564 1873.531 554.750 C 1871.800 528.874, 1870.105 516.863, 1864.465 490.493 C 1857.737 459.036, 1844.284 417.121, 1830.644 385.112 L 1827.069 376.725 1839.177 360.612 C 1911.208 264.762, 1958.228 149.411, 1964.976 52 C 1965.528 44.025, 1965.985 37.163, 1965.990 36.750 C 1965.996 36.337, 1621.133 36, 1199.629 36 L 433.258 36 423.075 31.485 C 396.579 19.737, 367.767 11.999, 337.506 8.502 C 321.437 6.645, 285.898 6.682, 270.302 8.571 M 280.500 33.143 C 190.668 40.945, 109.676 94.780, 67.911 174.449 C 62.665 184.455, 55 201.275, 55 202.779 C 55 203.109, 58.262 196.875, 62.250 188.925 C 89.966 133.667, 137.397 88.982, 193.116 65.638 C 227.073 51.411, 258.766 44.992, 294.970 45.008 C 315.070 45.017, 325.489 45.902, 342.500 49.047 C 362.635 52.768, 397.005 63.702, 396.996 66.382 C 396.986 69.492, 389.681 98.111, 385.991 109.500 C 377.886 134.518, 366.224 160.936, 353.833 182.353 C 343.049 200.991, 324.490 226.366, 309.144 243.455 L 302 251.410 302 274.053 L 302 296.696 311.250 291.947 C 322.873 285.979, 335.418 281.550, 346.725 279.423 C 358.388 277.229, 379.218 277.906, 390.198 280.837 C 406.243 285.119, 421.824 294.107, 433.248 305.670 C 441.274 313.794, 445.822 320.342, 451.084 331.351 C 457.931 345.673, 459.361 352.893, 459.435 373.500 C 459.511 394.503, 458.007 401.615, 450.505 415.743 C 435.906 443.235, 410.804 461.048, 376 468.615 C 363.908 471.243, 334.472 471.247, 320.500 468.620 C 300.225 464.810, 276.735 456.810, 255.129 446.357 L 241.757 439.888 242.360 435.194 C 245.310 412.245, 245.500 403.777, 245.500 295.333 C 245.500 234.191, 245.275 183.951, 245 183.689 C 244.725 183.426, 240 184.225, 234.500 185.465 C 221.530 188.389, 202.732 190.713, 181.500 192.016 C 172.150 192.589, 161.238 193.309, 157.250 193.615 L 150 194.171 150 198.460 C 150 202.465, 150.208 202.792, 153.125 203.375 C 154.844 203.719, 157.972 204, 160.076 204 C 173.469 204, 184.940 210.150, 187.864 218.899 C 188.657 221.272, 189 238.836, 189 277.040 L 189 331.782 176.266 337.018 C 138.022 352.742, 97.265 361.792, 56.270 363.660 L 42.039 364.309 42.640 366.904 C 44.170 373.514, 51.635 395.330, 55.633 404.872 C 86.079 477.541, 150.951 535.459, 226.609 557.519 C 237.428 560.674, 254.374 564.343, 266.500 566.155 C 272.450 567.044, 284.988 567.488, 303.500 567.463 C 334.157 567.423, 344.394 566.261, 369 560.028 C 433.770 543.622, 490.064 503.233, 527.238 446.500 C 574.945 373.691, 584.056 281.511, 551.544 200.580 C 537.410 165.396, 519.457 138.344, 492.057 110.943 C 475.174 94.061, 459.559 81.680, 441.211 70.626 C 392.621 41.355, 336.546 28.276, 280.500 33.143 M 474.497 61.282 C 515.633 91.735, 545.058 126.386, 566.890 170.083 C 596.816 229.979, 605.121 298.589, 590.426 364.500 C 581.305 405.408, 561.722 446.525, 534.941 481 C 521.393 498.439, 496.673 522.492, 479 535.430 C 475.425 538.048, 472.312 540.371, 472.083 540.594 C 471.854 540.818, 780.816 541, 1158.665 541 L 1845.663 541 1844.417 530.750 C 1839.389 489.370, 1820.973 427.108, 1800.606 382.625 C 1798.623 378.294, 1797 374.105, 1797 373.316 C 1797 372.527, 1800.086 368.195, 1803.857 363.690 C 1812.850 352.948, 1825.519 335.791, 1837.249 318.470 C 1884.375 248.880, 1918.646 167.971, 1932.963 92.500 C 1935.503 79.110, 1937.950 60.775, 1937.333 59.750 C 1937.085 59.337, 1607.171 59.014, 1204.191 59.032 L 471.500 59.063 474.497 61.282 M 200.844 89.349 C 190.493 93.172, 182.633 100.280, 178.141 109.880 C 175.848 114.780, 175.512 116.782, 175.520 125.500 C 175.528 134.374, 175.851 136.201, 178.389 141.722 C 186 158.283, 205.021 167.185, 222.971 162.586 C 234.112 159.732, 242.331 153.006, 248.129 142 C 250.225 138.022, 250.500 136.167, 250.500 126 C 250.500 115.512, 250.261 114.013, 247.782 108.967 C 244.313 101.903, 237.097 94.687, 230.033 91.218 C 225.302 88.894, 223.051 88.464, 214.500 88.250 C 207.990 88.087, 203.224 88.471, 200.844 89.349 M 927 144.960 C 927 160.382, 926.761 173, 926.469 173 C 926.178 173, 924.494 171.355, 922.729 169.344 C 920.963 167.333, 916.899 164.449, 913.698 162.935 C 899.027 155.996, 881.264 159.406, 869.545 171.410 C 860.183 180.999, 855.947 192.865, 855.947 209.500 C 855.947 226.365, 860.748 238.913, 870.671 247.982 C 877.843 254.537, 885.133 257.304, 895.500 257.405 C 908.302 257.530, 918.428 252.914, 924.875 244.014 L 927.757 240.035 928.379 243.143 C 928.720 244.852, 929 248.444, 929 251.125 L 929 256 936.507 256 L 944.014 256 943.757 186.750 L 943.500 117.500 935.250 117.210 L 927 116.919 927 144.960 M 1036.667 117.667 C 1036.300 118.033, 1036 130.649, 1036 145.701 L 1036 173.070 1033.069 169.731 C 1026.262 161.979, 1012.712 157.882, 1000.915 160.009 C 979.008 163.959, 965.582 182.765, 965.582 209.500 C 965.582 226.141, 969.024 235.915, 978.358 245.785 C 985.716 253.565, 995.876 258, 1006.339 258 C 1016.463 258, 1029.756 251.358, 1034.737 243.810 L 1037.500 239.623 1038.350 247.811 L 1039.200 256 1046.753 256 L 1054.306 256 1053.657 244.750 C 1053.301 238.563, 1053.007 207.288, 1053.005 175.250 L 1053 117 1045.167 117 C 1040.858 117, 1037.033 117.300, 1036.667 117.667 M 1082 186.500 L 1082 256 1090.500 256 L 1099 256 1099 186.500 L 1099 117 1090.500 117 L 1082 117 1082 186.500 M 663.996 126.250 C 663.990 129.040, 656.313 239.969, 655.483 249.250 L 654.879 256 662.867 256 L 670.856 256 671.428 250.750 C 672.178 243.876, 675.873 180.258, 676.786 158.500 L 677.500 141.500 679.858 150.500 C 682.313 159.872, 700.592 216.023, 709.236 240.750 L 714.218 255 720.511 255 C 726.470 255, 726.857 254.854, 727.792 252.250 C 728.336 250.738, 734.294 234.425, 741.033 216 C 747.772 197.575, 756.301 173.337, 759.986 162.137 L 766.685 141.774 767.345 159.137 C 768.279 183.702, 772.054 253.253, 772.536 254.750 C 772.813 255.613, 775.424 256, 780.969 256 C 785.386 256, 789 255.887, 789 255.750 C 788.999 255.613, 787.200 226.925, 785 192 C 782.800 157.075, 781.001 127.487, 781 126.250 C 781 124.055, 780.734 124, 770.179 124 L 759.358 124 746.772 158.250 C 734.889 190.589, 727.238 212.937, 723.416 226.469 L 721.731 232.438 717.435 217.469 C 713.472 203.662, 708.630 189.266, 691.967 141.750 L 685.742 124 674.871 124 C 664.265 124, 664 124.055, 663.996 126.250 M 821.388 124.980 C 814.841 127.625, 812.955 136.679, 817.816 142.121 C 820.142 144.723, 821.376 145.273, 824.895 145.273 C 835.810 145.273, 840.024 132.302, 831.070 126.268 C 827.550 123.896, 824.933 123.548, 821.388 124.980 M 1246 124.373 C 1246 124.618, 1255.112 141.397, 1266.250 161.659 L 1286.500 198.500 1287 227 L 1287.500 255.500 1295.750 255.790 L 1304 256.081 1304 228.356 L 1304 200.632 1326 162.978 C 1338.100 142.268, 1348 125.026, 1348 124.662 C 1348 124.298, 1343.801 124, 1338.670 124 L 1329.339 124 1315.202 151.250 C 1307.427 166.238, 1300.263 180.408, 1299.282 182.740 C 1298.302 185.072, 1297.275 186.968, 1297 186.954 C 1296.725 186.940, 1289.470 172.882, 1280.877 155.714 L 1265.255 124.500 1255.627 124.214 C 1250.332 124.056, 1246 124.128, 1246 124.373 M 1155.389 160.432 C 1146.946 162.347, 1141.545 165.325, 1135.435 171.435 C 1126.546 180.324, 1122.115 191.327, 1121.315 206.500 C 1119.490 241.111, 1141.225 260.984, 1176.588 257.041 C 1181.608 256.481, 1188.653 255.115, 1192.244 254.006 L 1198.774 251.989 1197.244 245.915 C 1195.880 240.502, 1195.485 239.908, 1193.607 240.449 C 1182.071 243.775, 1179.062 244.187, 1169.068 243.803 C 1160.109 243.459, 1157.739 243.001, 1153.500 240.792 C 1144.969 236.346, 1139.958 229.322, 1138.017 219.090 C 1137.458 216.140, 1137 213.345, 1137 212.877 C 1137 212.409, 1151.963 211.908, 1170.250 211.763 L 1203.500 211.500 1203.429 202 C 1203.280 181.818, 1194.158 166.866, 1178.817 161.659 C 1171.943 159.325, 1162.458 158.828, 1155.389 160.432 M 1376 160.302 C 1359.462 164.077, 1347.345 176.772, 1342.881 195 C 1341.206 201.842, 1341.225 218.990, 1342.916 225 C 1347.107 239.903, 1357.134 250.718, 1370.830 255.106 C 1382.247 258.765, 1404.308 257.671, 1416.276 252.854 C 1418.114 252.114, 1418.894 251.190, 1418.585 250.118 C 1418.329 249.228, 1417.613 246.543, 1416.994 244.150 C 1416.004 240.322, 1415.608 239.882, 1413.685 240.482 C 1400.378 244.629, 1385.421 245.253, 1376.788 242.020 C 1366.189 238.052, 1359.497 229.220, 1358.300 217.617 L 1357.720 212 1390.860 212 L 1424 212 1424 203.710 C 1424 183.660, 1414.802 167.437, 1400.372 162.038 C 1393.428 159.440, 1383.022 158.699, 1376 160.302 M 1464.390 160.471 C 1460.480 161.181, 1454.508 163.006, 1451.119 164.527 C 1444.423 167.532, 1444.670 166.819, 1447.493 175 C 1448.158 176.925, 1448.988 178.374, 1449.338 178.220 C 1459.421 173.784, 1466.314 171.996, 1473.299 172.006 C 1484.484 172.020, 1491.933 177.542, 1493.963 187.323 C 1495.668 195.536, 1495.314 195.998, 1487.281 196.013 C 1477.898 196.031, 1463.589 199.169, 1456.446 202.775 C 1448.146 206.965, 1441.570 214.233, 1439.435 221.575 C 1436.390 232.048, 1438.942 242.789, 1446.200 250.046 C 1457.256 261.103, 1479.415 260.097, 1491.909 247.973 C 1496.125 243.881, 1497 244.230, 1497 250 C 1497 255.556, 1497.621 256, 1505.395 256 L 1512.575 256 1512.295 240.250 C 1511.368 188.168, 1511.346 187.757, 1509.156 180.958 C 1505.345 169.129, 1496.924 162.167, 1483.862 160.047 C 1476.030 158.777, 1473.411 158.834, 1464.390 160.471 M 1575.332 159.959 C 1567.460 161.834, 1560.316 168.052, 1556.292 176.532 L 1554.500 180.308 1554 170.904 L 1553.500 161.500 1546.240 161.206 L 1538.980 160.912 1539.240 208.206 L 1539.500 255.500 1547.750 255.790 L 1556 256.081 1556 229.677 C 1556 215.155, 1556.458 200.860, 1557.017 197.910 C 1559.693 183.798, 1568.063 175.800, 1580.156 175.800 L 1586 175.800 1586 168.007 C 1586 158.585, 1584.825 157.698, 1575.332 159.959 M 1624 159.947 C 1617.317 161.159, 1612.711 163.363, 1608.038 167.585 C 1601.771 173.246, 1599.586 178.129, 1599.539 186.574 C 1599.505 192.730, 1599.889 194.275, 1602.500 198.484 C 1606.224 204.488, 1612.210 208.667, 1624.197 213.636 C 1630.323 216.175, 1634.766 218.766, 1637.243 221.243 C 1640.669 224.669, 1641 225.481, 1641 230.465 C 1641 235.092, 1640.547 236.446, 1638.048 239.293 C 1631.802 246.406, 1617.205 246.736, 1604.118 240.060 L 1600.297 238.111 1598.649 244.040 C 1597.742 247.302, 1597 250.394, 1597 250.913 C 1597 252.430, 1607.596 255.964, 1615.400 257.049 C 1628.601 258.885, 1641.603 255.799, 1649.360 248.989 C 1655.460 243.633, 1657.465 238.812, 1657.465 229.500 C 1657.465 214.750, 1651.617 208.362, 1630.112 199.624 C 1617.237 194.392, 1612.834 188.102, 1616.621 180.348 C 1619.444 174.566, 1625.625 171.688, 1633.721 172.384 C 1637.142 172.679, 1642.218 173.899, 1645.001 175.096 C 1647.784 176.293, 1650.211 177.099, 1650.395 176.886 C 1651.765 175.302, 1654.761 164.971, 1653.989 164.494 C 1648.131 160.873, 1632.207 158.459, 1624 159.947 M 817 208.500 L 817 256 825.500 256 L 834 256 834 208.500 L 834 161 825.500 161 L 817 161 817 208.500 M 1153.230 174.115 C 1147.712 176.846, 1142.536 182.951, 1140.008 189.708 C 1136.260 199.726, 1134.501 199, 1162.500 199 L 1187 199 1187 195.126 C 1187 186.507, 1181.691 177.481, 1174.604 174.050 C 1168.767 171.225, 1159.010 171.254, 1153.230 174.115 M 1373.252 174.104 C 1366.548 177.423, 1360.087 186.690, 1358.471 195.305 L 1357.777 199 1383.002 199 L 1408.227 199 1407.518 194.250 C 1406.071 184.550, 1401.227 176.915, 1394.616 173.913 C 1388.799 171.271, 1378.794 171.361, 1373.252 174.104 M 892.403 174.079 C 890.700 174.573, 887.192 176.840, 884.606 179.115 C 876.137 186.570, 872.343 197.625, 873.274 212.128 C 873.570 216.733, 874.316 222.155, 874.933 224.177 C 876.773 230.214, 882.145 237.223, 887.421 240.471 C 891.763 243.144, 893.233 243.500, 899.921 243.500 C 911.516 243.500, 918.982 238.822, 924.087 228.358 C 926.232 223.962, 926.459 222.170, 926.478 209.500 C 926.506 191.486, 925.344 187.226, 918.555 180.466 C 915.382 177.306, 911.968 174.980, 909.384 174.216 C 904.676 172.825, 896.939 172.763, 892.403 174.079 M 999.110 175.633 C 988.872 180.734, 983 192.869, 983 208.924 C 983 223.167, 987.020 233.104, 995.170 239.008 C 1008.505 248.668, 1026.945 243.430, 1033.921 228 C 1035.664 224.146, 1035.958 221.418, 1035.972 209 C 1035.991 192.544, 1035.240 188.804, 1030.703 182.775 C 1023.590 173.322, 1009.940 170.236, 999.110 175.633 M 1475.500 209.026 C 1465.807 210.982, 1459.711 215.137, 1456.766 221.795 C 1453.197 229.863, 1456.095 239.442, 1463.210 243.095 C 1470.339 246.755, 1480.064 245.205, 1486.951 239.310 C 1493.308 233.868, 1494.952 229.454, 1494.978 217.750 L 1495 208 1487.250 208.110 C 1482.987 208.170, 1477.700 208.582, 1475.500 209.026 M 337.638 300.043 C 310.850 304.217, 299 328.126, 299 378 C 299 421.536, 308.079 445.242, 327.798 453.191 C 332.799 455.207, 335.222 455.490, 347.500 455.495 C 361.136 455.500, 361.673 455.418, 368.151 452.349 C 385.101 444.318, 392.688 427.774, 395.187 393.390 C 397.766 357.899, 392.350 327.435, 380.866 312.852 C 372.920 302.761, 354.748 297.376, 337.638 300.043 M 675.500 310.439 C 674.950 310.666, 671.013 311.149, 666.750 311.511 L 659 312.171 659 377.085 L 659 442 667.500 442 L 676 442 676 416.065 L 676 390.130 684.750 390.642 C 708.332 392.023, 728.385 382.588, 735.564 366.734 C 737.814 361.767, 738.472 358.650, 738.807 351.394 C 739.508 336.155, 734.989 325.680, 724.638 318.550 C 715.993 312.597, 708.818 310.832, 691.500 310.400 C 683.250 310.194, 676.050 310.211, 675.500 310.439 M 682 323.869 L 676.500 324.500 676.233 350.202 L 675.966 375.903 679.587 376.582 C 681.579 376.956, 687.414 377.042, 692.554 376.773 C 700.026 376.382, 703.007 375.742, 707.424 373.581 C 714.090 370.320, 719.321 364.496, 721.013 358.454 C 722.886 351.763, 721.867 340.140, 719.002 335.503 C 716.428 331.339, 709.397 326.432, 704.015 325.044 C 698.849 323.712, 688.288 323.148, 682 323.869 M 790 348.079 C 784.169 350.715, 779.480 355.262, 776.161 361.500 L 773.500 366.500 773.212 357.250 L 772.925 348 765.462 348 L 758 348 758 395 L 758 442 766.421 442 L 774.842 442 775.236 412.750 C 775.678 380.020, 776.071 377.782, 782.748 369.981 C 787.277 364.690, 792.916 362.051, 799.750 362.022 L 805 362 805 354 L 805 346 799.750 346.022 C 796.655 346.035, 792.653 346.879, 790 348.079 M 846 347.882 C 834.478 351.600, 827.971 356.297, 822.046 365.169 C 816.134 374.023, 813.570 383.216, 813.588 395.500 C 813.610 411.104, 817.246 421.150, 826.360 430.788 C 835.435 440.385, 847.070 444.630, 861.881 443.751 C 882.643 442.518, 898.199 429.691, 903.469 409.458 C 905.418 401.974, 905.438 387.102, 903.508 379.693 C 897.952 358.362, 881.720 345.908, 859.661 346.054 C 854.719 346.086, 849.330 346.808, 846 347.882 M 951.286 347.393 C 944.441 349.626, 938.656 353.524, 932.797 359.852 C 916.767 377.167, 915.858 409.078, 930.868 427.612 C 944.819 444.838, 970.895 446.503, 985.908 431.126 L 991.322 425.581 990.636 436.185 C 989.820 448.800, 988.119 454.332, 983.338 459.918 C 977.917 466.252, 973.109 468.295, 962.442 468.796 C 952.193 469.278, 944.836 468.042, 937.384 464.588 L 932.268 462.216 930.634 468.093 C 929.735 471.325, 929 474.371, 929 474.862 C 929 476.036, 937.085 479.406, 944 481.115 C 951.933 483.076, 969.116 482.809, 976.500 480.610 C 989.252 476.813, 997.006 470.597, 1001.652 460.448 C 1006.378 450.125, 1006.830 444.754, 1007.176 394.750 L 1007.500 348 1000.250 348 L 993 348 993 352.918 C 993 361.218, 992.342 361.597, 987.425 356.128 C 981.431 349.461, 974.936 346.746, 964 346.337 C 958.659 346.137, 953.934 346.530, 951.286 347.393 M 1066.500 347.867 C 1060.529 350.589, 1056.210 354.662, 1052.671 360.906 L 1049.500 366.500 1049.212 357.250 L 1048.925 348 1041.305 348 L 1033.686 348 1034.343 364.660 C 1034.704 373.823, 1035 394.973, 1035 411.660 L 1035 442 1042.909 442 L 1050.818 442 1051.244 413.250 C 1051.723 380.853, 1052.297 377.518, 1058.672 370.070 C 1063.273 364.695, 1068.884 362.051, 1075.750 362.022 L 1081 362 1081 354 L 1081 346 1075.750 346.022 C 1072.844 346.034, 1068.714 346.858, 1066.500 347.867 M 1113 347.447 C 1106.286 349.157, 1098.463 352.442, 1097.537 353.940 C 1096.953 354.886, 1099.622 365, 1100.456 365 C 1100.618 365, 1103.307 363.870, 1106.431 362.488 C 1113.681 359.282, 1123.757 357.816, 1130.176 359.033 C 1136.074 360.152, 1137.700 360.983, 1141.186 364.664 C 1144.594 368.261, 1146 371.990, 1146 377.428 L 1146 381.725 1137.250 382.421 C 1105.142 384.977, 1088.706 397.721, 1090.225 418.884 C 1090.793 426.795, 1093.364 432.289, 1098.791 437.193 C 1110.061 447.374, 1132.088 445.912, 1143.794 434.206 L 1147.792 430.208 1148.396 433.229 C 1148.728 434.891, 1149 437.544, 1149 439.125 L 1149 442 1157.107 442 C 1164.437 442, 1165.145 441.832, 1164.491 440.250 C 1164.093 439.288, 1163.468 423.200, 1163.102 404.500 L 1162.437 370.500 1159.638 364.374 C 1156.276 357.017, 1151.258 351.880, 1144.500 348.877 C 1138.159 346.059, 1121.431 345.299, 1113 347.447 M 1225.173 347.484 C 1219.309 349.314, 1213.442 353.542, 1209.377 358.865 L 1206 363.288 1206 360.283 C 1206 358.631, 1205.714 355.191, 1205.364 352.640 L 1204.728 348 1197.239 348 L 1189.750 348 1190.375 351.125 C 1190.719 352.844, 1191 373.994, 1191 398.125 L 1191 442 1199.500 442 L 1208 442 1208 411.149 C 1208 378.686, 1208.226 376.720, 1212.749 369.831 C 1216.699 363.816, 1222.213 360.635, 1229.356 360.250 C 1237.910 359.789, 1242.390 362.456, 1246.477 370.445 L 1249.500 376.352 1249.801 409.176 L 1250.101 442 1258.551 442 L 1267 442 1267.022 409.750 C 1267.042 380.680, 1267.224 377.103, 1268.871 373.478 C 1276.201 357.343, 1297.449 355.198, 1304.918 369.840 C 1308.250 376.371, 1309 384.426, 1309 413.684 L 1309 442 1317.058 442 L 1325.117 442 1324.796 406.750 C 1324.483 372.280, 1324.423 371.368, 1322.084 365.531 C 1318.856 357.474, 1311.314 349.929, 1304.089 347.530 C 1297.312 345.279, 1286.446 345.813, 1279.892 348.719 C 1275.376 350.721, 1268.083 357.041, 1264.566 362 C 1263.387 363.662, 1262.629 364.073, 1262.305 363.227 C 1262.037 362.526, 1260.396 359.836, 1258.659 357.248 C 1254.033 350.357, 1245.218 345.976, 1236.163 346.067 C 1232.498 346.104, 1227.553 346.741, 1225.173 347.484 M 1386.500 347.759 C 1382.815 348.965, 1379.725 351.157, 1374.750 356.094 L 1368 362.793 1368 355.397 L 1368 348 1360.500 348 L 1353 348 1353 395 L 1353 442 1361.500 442 L 1370 442 1370 411.678 C 1370 377.391, 1370.335 375.309, 1377.093 367.631 C 1387.097 356.266, 1402.774 357.778, 1409.148 370.723 C 1411.454 375.407, 1411.506 376.149, 1411.788 408.750 L 1412.077 442 1420.488 442 L 1428.899 442 1429.199 409.250 C 1429.487 377.903, 1429.592 376.329, 1431.658 372.500 C 1437.263 362.113, 1448.683 357.334, 1458.298 361.351 C 1462.459 363.090, 1467.549 368.904, 1469.130 373.723 C 1469.975 376.299, 1470.489 387.755, 1470.747 409.750 L 1471.125 442 1479.563 442 L 1488 442 1487.992 412.250 C 1487.988 395.887, 1487.515 379.575, 1486.940 376 C 1484.948 363.607, 1478.531 353.550, 1469.500 348.668 C 1466.199 346.883, 1463.841 346.506, 1456 346.508 C 1447.644 346.509, 1445.891 346.831, 1441.442 349.174 C 1436.027 352.027, 1431.979 355.504, 1427.905 360.804 L 1425.365 364.107 1422.321 359.210 C 1416.806 350.338, 1408.567 345.951, 1397.624 346.062 C 1394.256 346.096, 1389.250 346.859, 1386.500 347.759 M 1541.746 347.031 C 1522.426 351.868, 1509 371.807, 1509 395.661 C 1509 405.925, 1510.393 412.765, 1514.072 420.574 C 1517.264 427.349, 1525.157 435.509, 1531.792 438.894 C 1543.872 445.057, 1563.698 445.635, 1580.500 440.314 C 1583.250 439.443, 1585.644 438.610, 1585.819 438.462 C 1585.995 438.315, 1585.594 435.427, 1584.929 432.044 C 1583.940 427.019, 1583.424 426.017, 1582.109 426.567 C 1566.965 432.902, 1547.438 432.080, 1537.092 424.672 C 1531.571 420.719, 1526.363 411.188, 1525.388 403.250 L 1524.742 398 1557.764 398 C 1594.816 398, 1592.014 398.641, 1591.983 390.168 C 1591.938 378.207, 1586.937 364.142, 1580.087 356.710 C 1573.881 349.978, 1565.729 346.677, 1554.500 346.352 C 1549.550 346.208, 1543.811 346.514, 1541.746 347.031 M 1543.885 359.380 C 1534.590 362.701, 1528.803 370.270, 1525.633 383.250 L 1524.962 386 1549.981 386 L 1575 386 1575 382.178 C 1575 365.647, 1559.050 353.960, 1543.885 359.380 M 850.357 360.091 C 845.156 361.598, 837.651 369.179, 834.409 376.200 C 831.688 382.093, 831.500 383.308, 831.500 395 C 831.500 406.668, 831.692 407.916, 834.385 413.747 C 837.520 420.535, 843.933 427.239, 849.528 429.576 C 854.373 431.600, 864.614 431.358, 869.581 429.103 C 889.084 420.245, 894.048 385.552, 878.451 367.107 C 872.657 360.255, 860.376 357.188, 850.357 360.091 M 959.500 359.881 C 947.962 362.898, 940.071 373.137, 938.024 387.748 C 935.303 407.159, 943.297 423.414, 957.611 427.575 C 967.037 430.315, 975.868 428.065, 982.769 421.164 C 989.020 414.913, 989.953 411.425, 989.978 394.218 C 990.002 377.839, 989.342 374.760, 984.435 368.326 C 979.280 361.567, 967.852 357.697, 959.500 359.881 M 1129 395.134 C 1121.499 396.363, 1113.536 400.431, 1110.281 404.698 C 1106.386 409.805, 1105.846 419.073, 1109.162 423.908 C 1113.234 429.844, 1116.378 431.510, 1123.324 431.416 C 1133.247 431.281, 1141.066 426.287, 1145.114 417.500 C 1146.497 414.496, 1146.962 411.073, 1146.978 403.750 L 1147 394 1140.750 394.117 C 1137.313 394.181, 1132.025 394.639, 1129 395.134" stroke="none" fill="#ffffff" fill-rule="evenodd"/><path d="M 728.250 59.750 C 868.913 59.890, 1099.088 59.890, 1239.750 59.750 C 1380.413 59.610, 1265.325 59.496, 984 59.496 C 702.675 59.496, 587.588 59.610, 728.250 59.750 M 1595.425 119.303 C 1617.980 137.677, 1640.306 157.696, 1639.571 158.885 C 1639.336 159.265, 1640.198 159.663, 1641.485 159.769 C 1644.844 160.047, 1655 163.983, 1655 165.007 C 1655 165.481, 1654.578 166.980, 1654.062 168.337 C 1653.208 170.584, 1654.126 171.866, 1664.317 182.652 C 1696.275 216.478, 1723.541 249.919, 1745.915 282.732 L 1754.255 294.963 1803.088 295.232 L 1851.922 295.500 1860.334 281 C 1887.791 233.674, 1906.598 189.633, 1921.565 137.610 C 1924.554 127.220, 1927 118.107, 1927 117.360 C 1927 116.219, 1900.021 116.008, 1759.250 116.053 L 1591.500 116.105 1595.425 119.303 M 1081.473 186.500 C 1081.474 225, 1081.598 240.605, 1081.750 221.177 C 1081.902 201.749, 1081.901 170.249, 1081.749 151.177 C 1081.598 132.105, 1081.473 148, 1081.473 186.500 M 816.462 208.500 C 816.463 234.900, 816.592 245.556, 816.749 232.181 C 816.907 218.805, 816.907 197.205, 816.749 184.181 C 816.591 171.156, 816.462 182.100, 816.462 208.500 M 1556.436 230.500 C 1556.436 244.800, 1556.577 250.511, 1556.748 243.191 C 1556.919 235.871, 1556.918 224.171, 1556.747 217.191 C 1556.575 210.211, 1556.435 216.200, 1556.436 230.500 M 1190.484 400.250 L 1190.500 442.500 1199.500 442.566 L 1208.500 442.631 1199.761 442.277 L 1191.022 441.922 1190.744 399.961 L 1190.467 358 1190.484 400.250 M 1249.478 412.250 L 1249.500 442.500 1258 442.558 L 1266.500 442.617 1258.265 442.270 L 1250.029 441.923 1249.742 411.961 L 1249.455 381.999 1249.478 412.250 M 1370.234 411.711 L 1370 441.922 1361.250 442.255 L 1352.500 442.589 1361.281 442.794 C 1367.584 442.942, 1370.199 442.644, 1370.547 441.738 C 1370.813 441.045, 1370.904 427.207, 1370.750 410.988 L 1370.469 381.500 1370.234 411.711 M 1538.308 385.748 C 1545.353 385.920, 1556.603 385.919, 1563.308 385.747 C 1570.014 385.574, 1564.250 385.433, 1550.500 385.434 C 1536.750 385.434, 1531.264 385.576, 1538.308 385.748 M 1141.954 394.708 L 1145.924 395.111 1146.278 403.806 L 1146.631 412.500 1146.566 403.500 L 1146.500 394.500 1142.243 394.402 L 1137.985 394.304 1141.954 394.708 M 1525.667 398.667 C 1525.300 399.033, 1525.007 399.821, 1525.015 400.417 C 1525.025 401.069, 1525.343 401.009, 1525.816 400.264 C 1526.406 399.334, 1534.631 398.959, 1559.050 398.750 L 1591.500 398.471 1558.917 398.236 C 1540.996 398.106, 1526.033 398.300, 1525.667 398.667" stroke="none" fill="#ee734c" fill-rule="evenodd"/><path d="M 1501 61.360 C 1520.474 68.312, 1557.722 90.156, 1584.223 110.168 L 1591.946 116 1759.473 116 C 1892.784 116, 1927.017 116.255, 1927.082 117.250 C 1927.416 122.359, 1936.512 74.505, 1937.204 64 L 1937.500 59.500 1716 59.270 L 1494.500 59.040 1501 61.360 M 925.780 145.001 C 925.626 160.401, 925.837 173.001, 926.250 173.001 C 926.663 173, 927 160.400, 927 145 C 927 129.600, 926.789 117, 926.530 117 C 926.272 117, 925.935 129.600, 925.780 145.001 M 1053.470 179 C 1053.470 213.375, 1053.596 227.438, 1053.749 210.250 C 1053.903 193.062, 1053.903 164.937, 1053.749 147.750 C 1053.596 130.563, 1053.470 144.625, 1053.470 179 M 926.370 208 C 926.370 213.775, 926.535 216.137, 926.737 213.250 C 926.939 210.363, 926.939 205.637, 926.737 202.750 C 926.535 199.863, 926.370 202.225, 926.370 208 M 1304.441 228 C 1304.441 243.675, 1304.579 250.087, 1304.748 242.250 C 1304.917 234.412, 1304.917 221.587, 1304.748 213.750 C 1304.579 205.912, 1304.441 212.325, 1304.441 228 M 658.472 377 C 658.472 413.025, 658.597 427.762, 658.750 409.750 C 658.902 391.738, 658.902 362.262, 658.750 344.250 C 658.597 326.238, 658.472 340.975, 658.472 377 M 1007.452 396 C 1007.452 416.075, 1007.585 424.288, 1007.749 414.250 C 1007.912 404.213, 1007.912 387.788, 1007.749 377.750 C 1007.585 367.713, 1007.452 375.925, 1007.452 396 M 1034.452 406 C 1034.452 426.075, 1034.585 434.288, 1034.749 424.250 C 1034.912 414.213, 1034.912 397.788, 1034.749 387.750 C 1034.585 377.713, 1034.452 385.925, 1034.452 406 M 1795.221 374.017 C 1791.867 379.389, 1767.461 406.569, 1750 424.380 C 1698.333 477.081, 1647.744 514.724, 1599.102 536.660 L 1589.500 540.990 1717.582 540.995 L 1845.663 541 1844.417 530.750 C 1839.427 489.687, 1820.937 427.004, 1800.982 383.500 C 1799.216 379.650, 1797.483 375.485, 1797.129 374.245 C 1796.493 372.011, 1796.475 372.009, 1795.221 374.017 M 1163.432 404 C 1163.432 417.475, 1163.574 422.988, 1163.747 416.250 C 1163.920 409.512, 1163.920 398.488, 1163.747 391.750 C 1163.574 385.012, 1163.432 390.525, 1163.432 404 M 1325.445 411 C 1325.445 428.325, 1325.582 435.413, 1325.748 426.750 C 1325.915 418.087, 1325.915 403.913, 1325.748 395.250 C 1325.582 386.587, 1325.445 393.675, 1325.445 411 M 1308.443 412.500 C 1308.443 429, 1308.580 435.890, 1308.748 427.812 C 1308.915 419.733, 1308.916 406.233, 1308.748 397.812 C 1308.581 389.390, 1308.444 396, 1308.443 412.500 M 775.439 415 C 775.439 430.125, 775.578 436.313, 775.748 428.750 C 775.917 421.188, 775.917 408.813, 775.748 401.250 C 775.578 393.688, 775.439 399.875, 775.439 415 M 1051.437 416 C 1051.437 430.575, 1051.577 436.538, 1051.747 429.250 C 1051.918 421.962, 1051.918 410.038, 1051.747 402.750 C 1051.577 395.462, 1051.437 401.425, 1051.437 416" stroke="none" fill="#f18c69" fill-rule="evenodd"/><path d="M 443.624 217.250 C 359.533 276.090, 358.976 276.502, 363.223 276.745 C 381.422 277.785, 393.545 280.451, 406.169 286.190 L 412.839 289.222 479.669 242.486 C 516.426 216.781, 546.925 195.359, 547.445 194.880 C 548.027 194.345, 547.201 191.335, 545.298 187.052 C 541.615 178.762, 529.956 158, 528.984 158 C 528.609 158, 490.196 184.662, 443.624 217.250 M 333.024 301.603 C 313.059 306.968, 302.709 324.931, 300.221 358.534 L 299.478 368.568 339.627 340.534 L 379.776 312.500 377.328 309.883 C 374.180 306.517, 365.952 302.538, 359.201 301.116 C 351.972 299.594, 339.648 299.823, 333.024 301.603 M 168.966 409.612 C 126.910 439.045, 92.173 463.447, 91.773 463.840 C 90.883 464.714, 101.835 477.692, 113.136 489.157 C 117.736 493.823, 121.162 497.182, 120.750 496.620 C 120.338 496.059, 120 495.282, 120 494.892 C 120 494.389, 232.541 414.957, 243.386 407.805 C 244.276 407.218, 246.502 357.169, 245.675 356.342 C 245.541 356.208, 211.022 380.180, 168.966 409.612" stroke="none" fill="#0e78b5" fill-rule="evenodd"/><path d="M 474.547 60.844 C 475.071 61.311, 479.141 64.428, 483.591 67.771 C 531.548 103.793, 569.225 159.154, 586.853 219.500 C 598.487 259.327, 601.081 306.951, 593.925 349.322 C 588.932 378.882, 580.281 404.770, 565.960 433 C 544.808 474.698, 516.051 508.272, 475.430 538.694 L 472.500 540.889 1030.213 540.944 L 1587.926 541 1593.213 538.927 C 1601.459 535.695, 1624.533 523.885, 1634.766 517.660 C 1699.843 478.071, 1765.314 415.816, 1821.076 340.500 C 1829.951 328.513, 1851 297.129, 1851 295.883 C 1851 295.384, 1829.949 295, 1802.640 295 L 1754.280 295 1745.927 282.750 C 1723.640 250.065, 1695.566 215.640, 1663.911 182.180 L 1653.201 170.860 1652.023 174.430 C 1651.375 176.393, 1650.767 177.998, 1650.672 177.995 C 1650.578 177.993, 1647.800 176.879, 1644.500 175.519 C 1637.467 172.622, 1627.559 172.142, 1623.039 174.480 C 1618.565 176.793, 1616 180.733, 1616 185.290 C 1616 190.898, 1621.002 195.453, 1632.050 199.905 C 1651.653 207.804, 1658.126 215.045, 1658.160 229.110 C 1658.205 247.323, 1644.865 258.035, 1622.201 257.985 C 1613.076 257.965, 1599.788 254.625, 1596.147 251.437 C 1595.767 251.103, 1599.970 238, 1600.457 238 C 1600.619 238, 1603.395 239.195, 1606.626 240.656 C 1614.918 244.404, 1627.872 245.126, 1633.680 242.163 C 1640.691 238.587, 1642.990 230.302, 1638.750 223.898 C 1636.565 220.598, 1630.871 217.248, 1617.050 211.131 C 1610.651 208.299, 1603.558 202.013, 1600.916 196.835 C 1598.706 192.503, 1598.369 183.838, 1600.176 177.807 C 1601.846 172.234, 1608.115 165.582, 1614.786 162.306 C 1619.930 159.780, 1621.533 159.500, 1630.850 159.500 L 1641.200 159.500 1633.113 151.819 C 1613.146 132.854, 1580.929 107.401, 1558 92.479 C 1541.969 82.046, 1530.559 75.594, 1513.336 67.224 L 1499.500 60.500 986.547 60.247 C 704.423 60.108, 474.023 60.376, 474.547 60.844 M 926 144.535 L 926 172.070 922.932 168.575 C 921.244 166.653, 917.307 163.825, 914.182 162.290 C 909.059 159.774, 907.467 159.500, 898 159.500 C 888.328 159.500, 886.983 159.745, 880.949 162.605 C 864.846 170.235, 855.035 187.991, 855.035 209.500 C 855.035 230.214, 864.650 247.826, 879.732 254.737 C 887.160 258.141, 899.119 258.979, 907.111 256.656 C 914.060 254.636, 921.462 249.726, 925.074 244.740 L 927.909 240.826 928.204 248.163 L 928.500 255.500 936.894 255.793 L 945.289 256.086 944.653 250.793 C 944.303 247.882, 944.013 216.588, 944.009 181.250 L 944 117 935 117 L 926 117 926 144.535 M 1036 144.571 L 1036 172.142 1032.640 168.580 C 1030.793 166.621, 1026.630 163.776, 1023.390 162.259 C 1018.191 159.824, 1016.327 159.500, 1007.500 159.500 C 998.328 159.500, 996.942 159.765, 990.759 162.693 C 974.248 170.515, 965.030 187.285, 965.030 209.500 C 965.030 231.221, 973.837 247.347, 989.782 254.820 C 994.846 257.193, 996.701 257.500, 1006 257.500 C 1015.471 257.500, 1017.058 257.226, 1022.190 254.706 C 1025.608 253.027, 1029.900 249.701, 1032.940 246.375 L 1038 240.839 1038 248.419 L 1038 256 1046.617 256 C 1055.064 256, 1055.221 255.956, 1054.630 253.750 C 1054.299 252.512, 1054.021 221.238, 1054.014 184.250 L 1054 117 1045 117 L 1036 117 1036 144.571 M 1081 186.500 L 1081 256 1090 256 L 1099 256 1099 186.500 L 1099 117 1090 117 L 1081 117 1081 186.500 M 663.593 127.218 C 663.016 130.939, 654.944 249.015, 654.978 253.250 L 655 256 663.500 256 L 672 256 672.006 253.250 C 672.009 251.738, 672.894 236.550, 673.971 219.500 C 675.049 202.450, 676.192 181.075, 676.511 172 C 676.830 162.925, 677.340 153.475, 677.644 151 C 678.183 146.620, 678.300 146.858, 682.062 160 C 684.187 167.425, 692.127 191.838, 699.706 214.250 L 713.487 255 720.493 254.998 L 727.500 254.996 742.454 213.748 C 750.679 191.062, 759.493 166.001, 762.040 158.058 L 766.672 143.616 767.333 166.558 C 767.821 183.482, 770.435 233.626, 771.983 255.750 C 771.992 255.887, 775.825 256, 780.500 256 L 789 256 789.013 252.250 C 789.032 246.971, 782.073 133.424, 781.412 128.218 L 780.868 123.936 769.715 124.218 L 758.562 124.500 748.768 151 C 738.688 178.277, 724.986 218.068, 722.955 225.966 L 721.806 230.433 717.366 215.093 C 714.923 206.656, 706.964 182.822, 699.679 162.127 L 686.433 124.500 675.268 124.218 L 664.103 123.935 663.593 127.218 M 817.766 126.918 C 814.876 129.500, 814.500 130.431, 814.500 135 C 814.500 139.569, 814.876 140.500, 817.766 143.082 C 821.503 146.421, 826.300 146.930, 831.020 144.490 C 834.827 142.521, 836 140.165, 836 134.489 C 836 130.691, 835.468 129.314, 833.077 126.923 C 828.929 122.775, 822.405 122.773, 817.766 126.918 M 1247.251 128.250 C 1248.594 130.588, 1258.086 147.824, 1268.346 166.553 L 1287 200.605 1287 228.303 L 1287 256 1296 256 L 1305 256 1305 227.990 L 1305 199.980 1327.022 162.240 L 1349.045 124.500 1339.347 124.212 C 1332.414 124.006, 1329.300 124.291, 1328.427 125.212 C 1327.755 125.920, 1320.382 139.867, 1312.041 156.205 L 1296.877 185.910 1281.221 154.955 L 1265.565 124 1255.187 124 L 1244.810 124 1247.251 128.250 M 1153.746 160.024 C 1133.966 165.012, 1120.779 184.728, 1120.653 209.500 C 1120.528 234.219, 1132.272 250.929, 1153.693 256.508 C 1164.382 259.292, 1185.298 257.827, 1195.456 253.583 C 1199.557 251.869, 1199.471 252.528, 1196.884 242.666 C 1196.087 239.631, 1195.526 238.978, 1194.189 239.531 C 1187.827 242.159, 1180.418 243.407, 1171 243.437 C 1162.144 243.465, 1159.717 243.112, 1155.500 241.186 C 1145.850 236.777, 1139.614 227.983, 1138.306 216.938 L 1137.721 212 1170.751 212 L 1203.781 212 1204.275 208.250 C 1204.925 203.311, 1203.342 190.222, 1201.444 184.841 C 1197.840 174.628, 1189.950 165.638, 1181.176 161.750 C 1175.856 159.392, 1160.165 158.405, 1153.746 160.024 M 1371.836 160.919 C 1364.250 163.345, 1360.328 165.902, 1354.109 172.478 C 1345.263 181.832, 1340.992 194.054, 1341.012 209.960 C 1341.032 225.815, 1345.256 237.169, 1354.328 245.749 C 1363.423 254.351, 1373.516 257.958, 1388.566 257.985 C 1401.873 258.010, 1419.018 254.110, 1418.981 251.067 C 1418.942 247.938, 1416.346 239.501, 1415.435 239.546 C 1414.921 239.571, 1411.800 240.450, 1408.500 241.499 C 1404.163 242.877, 1399.451 243.419, 1391.500 243.453 C 1381.415 243.496, 1380.024 243.266, 1374.776 240.689 C 1365.368 236.069, 1360.290 228.490, 1358.400 216.250 L 1357.744 212 1390.793 212 L 1423.841 212 1424.527 208.879 C 1425.589 204.042, 1424.108 192.066, 1421.539 184.713 C 1417.232 172.387, 1408.736 163.781, 1397.614 160.478 C 1390.873 158.476, 1378.831 158.682, 1371.836 160.919 M 1460.721 160.567 C 1457.542 161.337, 1452.526 163.150, 1449.574 164.595 L 1444.207 167.223 1446.195 173.112 C 1447.289 176.350, 1448.610 179, 1449.132 179 C 1449.653 179, 1451.752 178.147, 1453.795 177.104 C 1462.404 172.713, 1476.261 171.411, 1483.262 174.336 C 1489.636 176.999, 1493.764 183.508, 1493.924 191.144 L 1494 194.788 1484.750 195.510 C 1462.361 197.257, 1448.290 203.823, 1441.272 215.800 C 1437.743 221.821, 1436.894 233.816, 1439.512 240.670 C 1441.691 246.377, 1447.029 252.431, 1452.432 255.322 C 1455.870 257.163, 1458.127 257.500, 1467 257.500 C 1479.227 257.500, 1483.941 255.861, 1491.347 249.034 L 1495.842 244.891 1496.536 250.445 L 1497.230 256 1505.722 256 C 1513.432 256, 1514.144 255.839, 1513.456 254.250 C 1513.040 253.287, 1512.393 237.200, 1512.019 218.500 C 1511.449 189.984, 1511.064 183.774, 1509.629 180 C 1504.159 165.613, 1493.081 158.908, 1475.068 159.083 C 1470.356 159.129, 1463.899 159.797, 1460.721 160.567 M 1570.500 161.358 C 1565.314 163.784, 1557.732 171.117, 1556.546 174.854 C 1555.131 179.314, 1554 176.715, 1554 169 L 1554 161 1545.853 161 L 1537.707 161 1538.353 168.651 C 1538.709 172.859, 1539 194.234, 1539 216.151 L 1539 256 1547.946 256 L 1556.892 256 1557.196 225.750 C 1557.491 196.399, 1557.570 195.344, 1559.870 190.258 C 1564.143 180.805, 1572.406 175.433, 1581.557 176.161 L 1586 176.514 1586 167.757 L 1586 159 1580.750 159.010 C 1577.356 159.016, 1573.733 159.846, 1570.500 161.358 M 816 208.500 L 816 256 825 256 L 834 256 834 208.500 L 834 161 825 161 L 816 161 816 208.500 M 1155.511 173.601 C 1148.057 176.329, 1140.600 186.058, 1138.534 195.750 L 1137.841 199 1162.556 199 L 1187.272 199 1186.632 194.331 C 1185.709 187.597, 1181.767 179.683, 1177.871 176.741 C 1171.709 172.090, 1162.987 170.865, 1155.511 173.601 M 1377.994 172.934 C 1368.595 175.793, 1361.594 183.951, 1359.131 194.911 L 1358.213 199 1382.606 199 L 1407 199 1407 195.538 C 1407 189.803, 1403.304 181.508, 1399.028 177.644 C 1393.471 172.624, 1385.143 170.759, 1377.994 172.934 M 894.500 174.091 C 892.300 174.625, 888.403 176.598, 885.840 178.475 C 876.792 185.103, 871.665 201.386, 873.962 216.195 C 876.687 233.753, 885.725 243.027, 900.066 242.978 C 910.838 242.941, 917.954 238.731, 922.849 229.500 C 925.408 224.674, 925.500 223.927, 925.500 208 C 925.500 193.029, 925.301 191.128, 923.351 187.487 C 917.562 176.679, 905.983 171.303, 894.500 174.091 M 1002.969 174.480 C 985.308 180.141, 977.222 208.702, 987.535 229 C 992.322 238.421, 999.758 243, 1010.272 243 C 1022.133 243, 1031.071 236.236, 1034.510 224.655 C 1036.503 217.942, 1036.511 198.083, 1034.523 191.388 C 1032.758 185.445, 1027.237 178.672, 1021.967 175.983 C 1016.759 173.326, 1008.587 172.680, 1002.969 174.480 M 1478.121 209.127 C 1468.172 210.780, 1460.501 215.250, 1457.405 221.200 C 1455.607 224.656, 1455.602 232.111, 1457.394 236.401 C 1462.524 248.679, 1483.860 246.627, 1491.792 233.092 C 1494.119 229.122, 1494.516 227.191, 1494.847 218.264 L 1495.227 208 1489.363 208.117 C 1486.139 208.181, 1481.079 208.636, 1478.121 209.127 M 669 310.552 C 668.175 310.729, 665.359 311.155, 662.743 311.499 L 657.986 312.125 658.243 377.312 L 658.500 442.500 667.250 442.789 L 676 443.078 676.004 416.789 L 676.007 390.500 689.754 390.479 C 704.264 390.456, 709.072 389.465, 719 384.451 C 733.299 377.229, 741.209 361.917, 739.598 344.581 C 738.018 327.587, 727.234 315.625, 709.781 311.511 C 704.162 310.186, 674.030 309.478, 669 310.552 M 678.250 324.647 L 676 325.139 676 350.440 L 676 375.742 683.003 376.432 C 700.250 378.131, 713.442 372.725, 719.270 361.568 C 722.315 355.740, 722.350 343.127, 719.337 337.500 C 714.336 328.163, 707.075 324.746, 691.500 324.400 C 685.450 324.265, 679.487 324.377, 678.250 324.647 M 794.332 345.959 C 786.655 347.788, 777.588 355.622, 775.359 362.351 C 774.664 364.449, 774.630 364.440, 773.923 362 C 773.525 360.625, 773.155 356.688, 773.100 353.250 L 773 347 764.858 347 L 756.715 347 757.358 353.147 C 757.711 356.527, 758 378.145, 758 401.186 L 758 443.078 766.750 442.789 L 775.500 442.500 776.032 412 C 776.405 390.597, 776.944 380.605, 777.838 378.500 C 782.182 368.270, 789.499 362.823, 799.017 362.734 L 805 362.677 805 354.446 C 805 344.536, 803.919 343.676, 794.332 345.959 M 849.467 346.472 C 831.893 350.298, 818.721 363.355, 814.540 381.093 C 811.360 394.583, 813.204 410.973, 819.157 422.144 C 827.581 437.947, 846.902 447.084, 865.715 444.159 C 892.925 439.929, 909.182 416.062, 905.188 386.210 C 902.364 365.102, 889.540 350.554, 870.131 346.440 C 862.098 344.738, 857.402 344.745, 849.467 346.472 M 953.500 346.325 C 933.012 351.557, 919.979 370.680, 920.012 395.460 C 920.039 415.881, 928.516 431.061, 944 438.413 C 949.917 441.223, 951.397 441.500, 960.500 441.500 C 969.227 441.500, 971.219 441.163, 976.148 438.852 C 979.254 437.396, 983.704 434.296, 986.035 431.965 L 990.274 427.726 989.802 438.350 C 989.391 447.594, 988.947 449.724, 986.392 454.738 C 978.512 470.198, 958.525 473.181, 933.863 462.577 C 932.546 462.011, 931.813 463.096, 930.113 468.131 C 928.951 471.572, 928 474.696, 928 475.071 C 928 475.447, 930.213 476.706, 932.918 477.869 C 948.704 484.660, 971.908 484.679, 985.174 477.911 C 990.988 474.945, 998.796 467.337, 1001.498 462.003 C 1007.158 450.834, 1007.950 442.268, 1008.024 391.366 L 1008.088 347.500 1000.882 347.203 C 992.445 346.855, 992.037 347.211, 992.015 354.930 L 992 360.360 988.458 356.222 C 981.093 347.618, 965.606 343.233, 953.500 346.325 M 1070.332 345.959 C 1066.536 346.863, 1059.151 351.067, 1056.827 353.646 C 1055.909 354.666, 1054.042 357.468, 1052.679 359.873 L 1050.200 364.246 1049.478 355.583 L 1048.757 346.920 1041.281 347.210 L 1033.805 347.500 1033.948 394.495 C 1034.026 420.343, 1034.451 441.851, 1034.890 442.290 C 1035.330 442.730, 1039.247 442.957, 1043.595 442.795 L 1051.500 442.500 1052.051 412.500 C 1052.636 380.661, 1052.884 378.928, 1057.885 371.862 C 1062.737 365.007, 1070.842 361.451, 1078.707 362.727 L 1082 363.262 1082 354.747 C 1082 346.763, 1081.860 346.196, 1079.750 345.630 C 1076.983 344.889, 1074.456 344.977, 1070.332 345.959 M 1120.500 345.626 C 1110.027 347.688, 1106.810 348.556, 1102.378 350.514 C 1099.561 351.758, 1096.996 353.197, 1096.678 353.712 C 1096.360 354.226, 1097.026 357.158, 1098.156 360.228 L 1100.212 365.810 1105.356 363.425 C 1112.471 360.127, 1120.316 358.671, 1127.760 359.269 C 1138.632 360.142, 1144.355 365.758, 1145.668 376.843 L 1146.241 381.685 1135.871 382.321 C 1106.350 384.130, 1089.591 396.481, 1089.571 416.441 C 1089.559 428.680, 1095.072 437.405, 1105.949 442.363 C 1109.426 443.948, 1112.508 444.434, 1119.011 444.425 C 1126.419 444.414, 1128.363 444.015, 1134.011 441.343 C 1137.580 439.655, 1142.188 436.562, 1144.250 434.470 L 1148 430.667 1148 433.708 C 1148 435.381, 1148.281 438.156, 1148.625 439.875 L 1149.250 443 1156.875 443 L 1164.500 443 1164.224 411.750 C 1164.072 394.563, 1163.486 377.628, 1162.922 374.118 C 1161.034 362.377, 1155.205 353.696, 1146.085 349.043 C 1139.980 345.929, 1127.456 344.256, 1120.500 345.626 M 1228.344 345.983 C 1221.726 347.385, 1216.686 350.469, 1211.198 356.474 L 1206.089 362.064 1205.794 354.782 L 1205.500 347.500 1197.740 347.208 L 1189.981 346.916 1190.240 394.708 L 1190.500 442.500 1199.199 442.788 L 1207.897 443.076 1208.199 410.788 L 1208.500 378.500 1211.216 373.351 C 1219.603 357.448, 1238.514 355.826, 1246.278 370.345 C 1248.417 374.344, 1248.519 375.777, 1249 408.500 L 1249.500 442.500 1258.250 442.789 L 1267 443.078 1267 412.220 C 1267 376.285, 1267.452 373.495, 1274.400 366.547 C 1284.577 356.370, 1299.232 358.950, 1305.380 372 C 1307.369 376.222, 1307.531 378.536, 1308 409.500 L 1308.500 442.500 1317 442.500 L 1325.500 442.500 1325.787 412 C 1325.964 393.135, 1325.656 379.020, 1324.979 375 C 1322.781 361.958, 1316.831 353.028, 1307.182 348.291 C 1302.340 345.914, 1300.318 345.513, 1293.500 345.574 C 1281.822 345.679, 1272.537 350.354, 1266.340 359.250 C 1264.904 361.313, 1263.394 363, 1262.985 363 C 1262.577 363, 1261.688 361.661, 1261.010 360.025 C 1259.454 356.268, 1251.952 349.296, 1247.434 347.408 C 1242.999 345.555, 1233.657 344.858, 1228.344 345.983 M 1389.081 346.529 C 1382.090 348.485, 1377.989 351.070, 1373.147 356.570 C 1369.451 360.769, 1369.203 360.889, 1368.632 358.756 C 1368.299 357.515, 1368.021 354.363, 1368.014 351.750 L 1368 347 1359.853 347 L 1351.707 347 1352.353 354.651 C 1352.709 358.859, 1353 380.476, 1353 402.690 L 1353 443.078 1361.750 442.789 L 1370.500 442.500 1371 409.500 C 1371.526 374.776, 1371.438 375.438, 1376.413 368.652 C 1378.846 365.333, 1385.139 361.479, 1389.666 360.537 C 1394.031 359.628, 1400.927 361.644, 1404.380 364.837 C 1405.964 366.302, 1408.214 369.525, 1409.380 372 C 1411.384 376.254, 1411.518 378.321, 1411.822 409.750 L 1412.144 443 1420.498 443 L 1428.853 443 1429.176 410.750 C 1429.481 380.441, 1429.627 378.229, 1431.603 374 C 1435.755 365.116, 1442.417 360.576, 1451.210 360.640 C 1462.127 360.719, 1468.086 367.527, 1469.975 382.078 C 1470.505 386.160, 1470.952 401.538, 1470.969 416.250 L 1471 443 1479.500 443 L 1488 443 1488 410.549 C 1488 375.597, 1487.524 371.005, 1482.965 362 C 1477.473 351.150, 1468.616 345.657, 1456.500 345.584 C 1444.486 345.512, 1435.147 350.293, 1427.985 360.180 L 1425.233 363.978 1423.992 360.981 C 1422.180 356.607, 1415.462 350.092, 1410.499 347.897 C 1404.494 345.240, 1395.695 344.678, 1389.081 346.529 M 1544 346.098 C 1521.854 350.423, 1506.257 374.447, 1508.479 400.813 C 1509.995 418.810, 1518.030 432.383, 1531.122 439.062 C 1543.687 445.472, 1563.302 446.239, 1580.313 440.985 C 1587.762 438.684, 1587.355 439.705, 1584.834 429.650 C 1584.002 426.331, 1583.568 425.887, 1581.685 426.429 C 1569.996 429.788, 1567.082 430.188, 1557.068 429.803 C 1548.109 429.459, 1545.739 429.001, 1541.500 426.792 C 1532.718 422.216, 1527.292 414.230, 1526.276 404.386 L 1525.723 399.028 1558.612 398.764 L 1591.500 398.500 1591.790 390.297 C 1592.856 360.094, 1571.844 340.660, 1544 346.098 M 851 360.537 C 844.498 362.556, 839.552 367.134, 835.934 374.482 C 826.073 394.513, 832.247 420.421, 848.850 428.684 C 851.331 429.918, 854.742 430.500, 859.500 430.500 C 865.353 430.500, 867.275 430.045, 871.225 427.722 C 881.076 421.932, 887.011 409.667, 886.988 395.145 C 886.949 369.625, 871.031 354.317, 851 360.537 M 1541.491 360.865 C 1534.658 363.969, 1528.425 372.666, 1526.522 381.750 L 1525.841 385 1550.534 385 L 1575.227 385 1574.518 380.250 C 1573.115 370.847, 1568.089 363.301, 1561.282 360.381 C 1556.684 358.408, 1546.343 358.661, 1541.491 360.865 M 954.195 362.590 C 944.348 367.497, 939.162 377.110, 938.256 392.136 C 937.494 404.772, 940.316 413.614, 947.352 420.640 C 950.665 423.949, 953.926 426.174, 956.500 426.885 C 970.986 430.883, 984.646 423.777, 988.628 410.170 C 991.040 401.932, 990.214 378.933, 987.312 373.500 C 980.659 361.045, 966.594 356.411, 954.195 362.590 M 1125.230 396.550 C 1118.154 398.456, 1114.743 400.328, 1111.645 404.010 C 1104.769 412.182, 1106.666 425.241, 1115.326 429.351 C 1123.866 433.403, 1136.682 429.543, 1142.494 421.168 C 1145.314 417.104, 1145.521 416.158, 1145.838 405.918 L 1146.177 395 1138.338 395.066 C 1134.027 395.102, 1128.129 395.770, 1125.230 396.550" stroke="none" fill="#e34c2a" fill-rule="evenodd"/></svg>